<?xml version="1.0" encoding="UTF-8"?>
<!-- Created with Inkscape (http://www.inkscape.org/) -->
<svg width="145.58mm" height="26.105mm" version="1.1" viewBox="0 0 145.58 26.105" xmlns="http://www.w3.org/2000/svg" xmlns:cc="http://creativecommons.org/ns#" xmlns:dc="http://purl.org/dc/elements/1.1/" xmlns:rdf="http://www.w3.org/1999/02/22-rdf-syntax-ns#">
 <defs>
  <clipPath id="clipPath4694">
   <path d="m0 8681.9h1280v-8681.9h-1280z"/>
  </clipPath>
  <clipPath id="clipPath2198">
   <path d="m0 8681.9h1280v-8681.9h-1280z"/>
  </clipPath>
  <clipPath id="clipPath2210">
   <path d="m217 6367.2h412.67v-74h-412.67z"/>
  </clipPath>
 </defs>
 <metadata>
  <rdf:RDF>
   <cc:Work rdf:about="">
    <dc:format>image/svg+xml</dc:format>
    <dc:type rdf:resource="http://purl.org/dc/dcmitype/StillImage"/>
    <dc:title/>
   </cc:Work>
  </rdf:RDF>
 </metadata>
 <g transform="translate(63.719 -219.12)">
  <g transform="matrix(.35278 0 0 -.35278 -27.985 2600.3)">
   <g clip-path="url(#clipPath4694)">
    <g transform="translate(293.83 4234.3)">
     <path d="M 0,0 -5.755,4.18 0,8.359" fill="none" stroke="#fff" stroke-linecap="round" stroke-linejoin="round" stroke-miterlimit="10" stroke-width="2"/>
    </g>
    <g transform="translate(992.38 4234)">
     <path d="M 0,0 5.755,4.18 0,8.359" fill="none" stroke="#fff" stroke-linecap="round" stroke-linejoin="round" stroke-miterlimit="10" stroke-width="2"/>
    </g>
    <g transform="translate(1099.5 4386.5)">
     <path d="m0 0c-0.337 0.484-0.663 0.951-0.99 1.418-0.03 0.043-0.071 0.079-0.104 0.121-0.205 0.261-0.464 0.39-0.802 0.451-0.852 0.154-1.675 0.422-2.412 0.889-0.269 0.172-0.527 0.393-0.72 0.645-0.396 0.515-0.186 0.983 0.456 1.061 0.51 0.063 0.967-0.123 1.402-0.363 0.947-0.524 1.669-1.289 2.262-2.176 0.287-0.429 0.526-0.891 0.786-1.338 0.029-0.05 0.055-0.101 0.1-0.183 0.104 0.2 0.191 0.375 0.284 0.547 0.631 1.156 1.401 2.194 2.512 2.94 0.422 0.283 0.87 0.52 1.385 0.567 0.212 0.019 0.441-3e-3 0.644-0.066 0.316-0.096 0.454-0.395 0.323-0.701-0.086-0.202-0.218-0.397-0.373-0.553-0.484-0.49-1.111-0.746-1.748-0.956-0.471-0.155-0.962-0.246-1.442-0.374-0.091-0.025-0.188-0.07-0.257-0.133-0.446-0.407-0.787-0.898-1.089-1.416-0.076-0.13-0.149-0.262-0.217-0.38" fill="#fff"/>
    </g>
    <g transform="translate(1111.5 4393)">
     <path d="m0 0c2.038 0.59 3.609 2.219 4.125 4.277 0 0-6.47-1.799-9.698-2.697 0.05-0.12 0.074-0.183 0.119-0.273 0.638-1.29 0.788-2.76 0.489-4.168-0.018-0.086-0.026-0.148-0.019-0.197-0.015-0.053-0.024-0.083-0.024-0.083s-0.059-0.756-0.708-1.882c-0.236-0.258-0.449-0.503-0.702-0.695-0.554-0.42-1.127-0.828-1.735-1.161-1.152-0.63-2.344-1.187-3.5-1.81-0.166-0.09-0.313-0.137-0.459-0.143-0.145 6e-3 -0.293 0.053-0.459 0.143-1.156 0.623-2.348 1.18-3.5 1.81-0.608 0.333-1.18 0.741-1.735 1.161-0.253 0.192-0.466 0.437-0.702 0.695-0.649 1.126-0.708 1.882-0.708 1.882s-9e-3 0.03-0.024 0.083c7e-3 0.049 0 0.111-0.019 0.197-0.299 1.408-0.149 2.878 0.489 4.168 0.045 0.09 0.069 0.153 0.12 0.273-3.229 0.898-9.699 2.697-9.699 2.697 0.516-2.058 2.087-3.687 4.125-4.277l0.067-0.02c1.79-0.553 3.605-1.181 3.577-1.443-1.439 0.025-3.763 0.011-5.76 0.012 9e-3 -0.018 0.018-0.035 0.028-0.053 1.052-1.93 3.039-3.161 5.232-3.311 0.803-0.056 1.392-0.138 1.441-0.258-0.642-0.195-2.012-0.604-3.355-1.005 0.121-0.131 0.243-0.26 0.365-0.388 1.411-1.47 3.435-2.183 5.46-1.966l-1.762-1.289c0.438-0.328 0.87-0.636 1.292-0.924 1.017-0.692 2.352-0.696 3.381-0.022l-0.405-0.926c-0.175-0.401-0.014-0.87 0.372-1.075l5e-3 -2e-3c0.494-0.247 1.141-0.569 1.586-0.789l0.01-4e-3c0.367-0.169 0.789-0.169 1.157 0l9e-3 4e-3c0.446 0.22 1.092 0.542 1.584 0.787l7e-3 4e-3c0.385 0.205 0.548 0.672 0.373 1.072l-0.406 0.929c1.029-0.674 2.364-0.67 3.381 0.022 0.422 0.288 0.854 0.596 1.292 0.924l-1.762 1.289c2.025-0.217 4.05 0.496 5.46 1.966 0.122 0.128 0.244 0.257 0.365 0.388-1.343 0.401-2.713 0.81-3.355 1.005 0.049 0.12 0.638 0.202 1.441 0.258 2.193 0.15 4.18 1.381 5.232 3.311l0.029 0.053c-1.998-1e-3 -4.322 0.013-5.761-0.012-0.027 0.262 1.787 0.89 3.577 1.443z" fill="#fff"/>
    </g>
    <g transform="translate(1118.9 4391.2)">
     <path d="m0 0v1.326c0 0.36-0.278 0.638-0.622 0.638s-0.622-0.278-0.622-0.638v-1.097c0-0.671 0.507-1.539 0.507-1.539l1.408-2.652c0.573-1.048 0.524-1.818 0.524-1.818v-1.457c0-0.802-0.655-1.457-1.473-1.457h-0.737c-0.786 0.033-1.408 0.671-1.425 1.457v1.179c0 0.376 0.181 0.557 0.328 0.639 0.098 0.032 0.573 0.245 0.868 0.376v-1.998c0-0.343 0.278-0.622 0.622-0.622s0.622 0.279 0.622 0.639v1.31c0 0.671-0.508 1.555-0.508 1.555l-1.408 2.636c-0.573 1.048-0.524 1.817-0.524 1.817v1.18c0 0.802 0.655 1.522 1.474 1.522h0.737c0.786-0.017 1.424-0.737 1.424-1.522v-0.443c0-0.376-0.18-0.556-0.327-0.638-0.098-0.049-0.557-0.262-0.868-0.393" fill="#fff"/>
    </g>
    <g transform="translate(1126.7 4393.3)">
     <path d="m0 0c-0.065-0.147-0.246-0.311-0.622-0.311h-0.917c-0.164 0-0.278-0.131-0.295-0.278v-10.02h-0.835c-0.278 0-0.327 0.163-0.327 0.245v10.053h-1.654v0.803c0 0.196 0.164 0.36 0.36 0.36h4.683z" fill="#fff"/>
    </g>
    <g transform="translate(1130.6 4383.6)">
     <path d="m0 0c0.344 0 0.622 0.278 0.622 0.638v8.351c0 0.36-0.278 0.638-0.622 0.638h-0.18c-0.344-0.016-0.622-0.294-0.622-0.638v-8.351c0-0.344 0.278-0.621 0.622-0.638zm0.393 10.659c0.786-0.033 1.425-0.672 1.425-1.457v-8.793c-0.017-0.785-0.639-1.408-1.425-1.44h-0.901c-0.802 0-1.457 0.655-1.473 1.44v8.793c0 0.802 0.655 1.457 1.473 1.457z" fill="#fff"/>
    </g>
    <g transform="translate(1138.9 4384)">
     <path d="m0 0c0-0.786-0.622-1.424-1.408-1.457h-0.721c-0.818 0-1.473 0.655-1.473 1.457v8.776c0 0.802 0.655 1.457 1.473 1.457h0.721c0.786-0.017 1.408-0.671 1.408-1.457v-1.752c0-0.377-0.164-0.557-0.311-0.622l-0.851-0.393v2.57c0 0.344-0.279 0.622-0.639 0.622-0.344 0-0.622-0.278-0.622-0.622v-8.367c0-0.359 0.278-0.638 0.622-0.638 0.36 0 0.639 0.279 0.639 0.638v1.54c0 0.376 0.163 0.557 0.311 0.638 0.098 0.049 0.556 0.246 0.851 0.377z" fill="#fff"/>
    </g>
    <g transform="translate(1144.9 4382.6)">
     <path d="m0 0-1.572 5.125v-5.125h-1.162v11.019c0 0.36 0.245 0.426 0.376 0.442h0.786v-4.175l1.441 4.142h1.228l-1.85-5.157 1.981-6.271z" fill="#fff"/>
    </g>
    <g transform="translate(1158 4382.6)">
     <path d="m0 0h-1.097l-0.802 5.812-0.786-5.812h-1.081l-1.424 11.461h0.9c0.279 0 0.344-0.164 0.361-0.246l0.785-6.27 0.574 3.962c0.065 0.671 0.262 0.917 1.015 0.917h0.147l0.769-4.879 0.754 6.287c0.016 0.081 0.098 0.229 0.344 0.229h0.933z" fill="#fff"/>
    </g>
    <g transform="translate(1162.1 4394.1)">
     <path d="m0 0c0.344 0 0.475-0.262 0.475-0.458v-11.003h-0.835c-0.279 0-0.328 0.164-0.344 0.246v11.215z" fill="#fff"/>
    </g>
    <g transform="translate(1167.6 4391.2)">
     <path d="m0 0v1.326c0 0.36-0.278 0.638-0.622 0.638s-0.622-0.278-0.622-0.638v-1.097c0-0.671 0.507-1.539 0.507-1.539l1.408-2.652c0.573-1.048 0.524-1.818 0.524-1.818v-1.457c0-0.802-0.655-1.457-1.473-1.457h-0.737c-0.786 0.033-1.408 0.671-1.425 1.457v1.179c0 0.376 0.181 0.557 0.328 0.639 0.098 0.032 0.573 0.245 0.868 0.376v-1.998c0-0.343 0.278-0.622 0.622-0.622s0.622 0.279 0.622 0.639v1.31c0 0.671-0.507 1.555-0.507 1.555l-1.409 2.636c-0.573 1.048-0.524 1.817-0.524 1.817v1.18c0 0.802 0.655 1.522 1.474 1.522h0.737c0.786-0.017 1.424-0.737 1.424-1.522v-0.443c0-0.376-0.18-0.556-0.327-0.638-0.098-0.049-0.557-0.262-0.868-0.393" fill="#fff"/>
    </g>
    <g transform="translate(1174.7 4383.8)">
     <path d="m0 0c-0.131-0.295-0.327-0.753-0.376-0.852-0.082-0.147-0.263-0.311-0.639-0.311h-2.62v11.134c0.016 0.18 0.164 0.327 0.36 0.327h3.062l-0.393-0.851c-0.065-0.147-0.245-0.327-0.622-0.327h-0.95c-0.163 0-0.278-0.115-0.278-0.279v-3.405h1.768c-0.131-0.295-0.327-0.769-0.376-0.868-0.082-0.148-0.246-0.311-0.622-0.311h-0.492c-0.147 0-0.278-0.131-0.278-0.278v-3.979z" fill="#fff"/>
    </g>
    <g transform="translate(1150 4396.8)">
     <path d="m0 0s0.918 0.097 0.918-1.16v-15.752h-1.208c-0.29 0-0.532 0.242-0.532 0.532v14.278c0 0.193-0.048 0.362-0.313 0.411-0.339 0.072-0.532 0.266-0.604 0.435-0.073 0.145-0.194 0.821-0.387 1.256z" fill="#fff"/>
    </g>
    <g transform="translate(405.1 8643.1)">
     <path d="m0 0h1.1l1.473-5.401 1.431 5.401h1.077l-2.034-6.963h-0.892c-0.52 1.584-1.055 3.413-1.605 5.488-0.55-2.075-1.086-3.904-1.607-5.488h-0.89l-2.035 6.963h1.078l1.429-5.401z" fill="#004f53"/>
    </g>
    <g transform="translate(413.17 8636.1)">
     <path d="m0 0h-1.012v6.963h1.012v-2.926h3.355v2.926h1.023v-6.963h-1.023v3.189h-3.355z" fill="#004f53"/>
    </g>
    <g transform="translate(419.52 8643.1)">
     <path d="m0 0h1.089l1.782-3.388 1.771 3.388h1.089l-2.354-4.225v-2.738h-1.012v2.738z" fill="#004f53"/>
    </g>
    <g transform="translate(431.81 8639.3)">
     <path d="m0 0c-0.154-0.125-0.285-0.305-0.391-0.539-0.106-0.235-0.16-0.455-0.16-0.66 0-0.374 0.107-0.675 0.32-0.903 0.212-0.227 0.491-0.34 0.835-0.34 0.448 0 0.792 0.157 1.035 0.472zm2.243 0.418h0.99v-0.43c0-0.836-0.154-1.488-0.462-1.958l1.1-1.231h-1.133l-0.483 0.527c-0.411-0.439-0.98-0.659-1.705-0.659-0.683 0-1.225 0.216-1.628 0.648-0.338 0.36-0.506 0.796-0.506 1.31 0 0.374 0.099 0.74 0.297 1.1 0.197 0.359 0.458 0.645 0.78 0.858l-0.132 0.143c-0.506 0.557-0.758 1.074-0.758 1.55 0 0.485 0.163 0.873 0.489 1.166s0.758 0.441 1.293 0.441c0.498 0 1.026-0.192 1.584-0.572l-0.43-0.605c-0.381 0.205-0.769 0.308-1.165 0.308-0.565 0-0.848-0.236-0.848-0.704 0-0.345 0.232-0.789 0.694-1.331l1.881-2.189c0.094 0.19 0.142 0.531 0.142 1.023z" fill="#004f53"/>
    </g>
    <g transform="translate(441.95 8636.1)">
     <path d="m0 0h-1.012v6.963h1.012v-2.926h3.355v2.926h1.023v-6.963h-1.023v3.189h-3.355z" fill="#004f53"/>
    </g>
    <g transform="translate(451.73 8636.9)">
     <path d="m0 0c0.683 0 1.195 0.282 1.54 0.847 0.286 0.469 0.43 1.085 0.43 1.847 0 0.888-0.188 1.581-0.562 2.079-0.345 0.462-0.813 0.694-1.408 0.694-0.675 0-1.187-0.297-1.54-0.891-0.285-0.484-0.429-1.111-0.429-1.882 0-0.88 0.188-1.557 0.562-2.034 0.344-0.44 0.813-0.66 1.407-0.66m0-0.88c-1.033 0-1.829 0.406-2.387 1.221-0.44 0.645-0.66 1.43-0.66 2.353 0 1.086 0.29 1.973 0.869 2.662 0.55 0.661 1.277 0.991 2.178 0.991 1.027 0 1.822-0.422 2.388-1.265 0.439-0.66 0.659-1.456 0.659-2.388 0-1.077-0.289-1.95-0.868-2.617-0.551-0.639-1.277-0.957-2.179-0.957" fill="#004f53"/>
    </g>
    <g transform="translate(460.24 8643.1)">
     <path d="m0 0h1.1l1.473-5.401 1.431 5.401h1.077l-2.034-6.963h-0.892c-0.52 1.584-1.055 3.413-1.605 5.488-0.55-2.075-1.086-3.904-1.607-5.488h-0.89l-2.035 6.963h1.078l1.429-5.401z" fill="#004f53"/>
    </g>
    <g transform="translate(470.89 8636.6)">
     <path d="m0 0c0 0.153 0.057 0.287 0.17 0.401 0.114 0.114 0.248 0.17 0.402 0.17 0.176 0 0.324-0.054 0.446-0.165 0.121-0.109 0.181-0.245 0.181-0.406 0-0.418-0.209-0.627-0.627-0.627-0.169 0-0.306 0.059-0.413 0.176-0.106 0.117-0.159 0.267-0.159 0.451m1.045 1.045h-0.946v1.045c0 0.301 0.042 0.526 0.127 0.677 0.084 0.149 0.28 0.345 0.587 0.587 0.602 0.485 0.903 0.972 0.903 1.463 0 0.301-0.096 0.541-0.286 0.721-0.191 0.18-0.448 0.27-0.77 0.27-0.308 0-0.66-0.118-1.056-0.352l-0.341 0.55c0.535 0.395 1.096 0.594 1.682 0.594 0.507 0 0.919-0.159 1.239-0.473 0.318-0.315 0.478-0.723 0.478-1.222 0-0.711-0.286-1.304-0.858-1.781-0.022-0.016-0.055-0.041-0.099-0.077l-0.066-0.067c-0.264-0.212-0.429-0.377-0.495-0.495-0.066-0.117-0.099-0.307-0.099-0.571z" fill="#004f53"/>
    </g>
    <g transform="translate(520.74 8642.3)">
     <path d="m0 0v-2.574c0.295-0.052 0.568-0.077 0.826-0.077 0.924 0 1.385 0.468 1.385 1.408 0 0.88-0.465 1.319-1.397 1.319-0.337 0-0.609-0.025-0.814-0.076m-1.021-6.204v6.952c0.644 0.095 1.238 0.143 1.781 0.143 1.687 0 2.529-0.711 2.529-2.134 0-0.924-0.381-1.577-1.143-1.958l1.385-3.003h-1.033l-1.254 2.75c-0.096-0.015-0.234-0.023-0.418-0.023-0.258 0-0.531 0.026-0.826 0.078v-2.805z" fill="#004f53"/>
    </g>
    <g transform="translate(528.97 8636.9)">
     <path d="m0 0c0.682 0 1.195 0.282 1.539 0.847 0.287 0.469 0.43 1.085 0.43 1.847 0 0.888-0.188 1.581-0.561 2.079-0.346 0.462-0.814 0.694-1.408 0.694-0.676 0-1.187-0.297-1.541-0.891-0.285-0.484-0.428-1.111-0.428-1.882 0-0.88 0.188-1.557 0.561-2.034 0.344-0.44 0.814-0.66 1.408-0.66m0-0.88c-1.033 0-1.83 0.406-2.387 1.221-0.441 0.645-0.66 1.43-0.66 2.353 0 1.086 0.289 1.973 0.869 2.662 0.549 0.661 1.276 0.991 2.178 0.991 1.027 0 1.822-0.422 2.387-1.265 0.439-0.66 0.66-1.456 0.66-2.388 0-1.077-0.289-1.95-0.869-2.617-0.551-0.639-1.276-0.957-2.178-0.957" fill="#004f53"/>
    </g>
    <g transform="translate(536.39 8641.8)">
     <path d="m0 0-1.133-3.311h2.266zm-0.484 1.232h0.968l2.52-6.962h-1.045l-0.529 1.572h-2.848l-0.539-1.572h-1.045z" fill="#004f53"/>
    </g>
    <g transform="translate(542.39 8636.9)">
     <path d="m0 0c0.234-0.052 0.498-0.077 0.791-0.077 0.83 0 1.457 0.264 1.881 0.792 0.389 0.484 0.584 1.162 0.584 2.035 0 0.938-0.272 1.657-0.815 2.156-0.439 0.41-1 0.615-1.681 0.615-0.301 0-0.555-0.025-0.76-0.076zm-1.023 6.193c0.55 0.095 1.132 0.143 1.75 0.143 1.209 0 2.136-0.363 2.783-1.089 0.549-0.616 0.824-1.434 0.824-2.453 0-1.239-0.346-2.182-1.033-2.827-0.61-0.572-1.446-0.858-2.51-0.858-0.66 0-1.264 0.048-1.814 0.143z" fill="#004f53"/>
    </g>
    <g transform="translate(550.09 8641.8)">
     <path d="m0 0v-5.73h-1.012v6.962h1.299c0.565-1.173 1.158-2.779 1.781-4.818 0.139-0.454 0.246-0.803 0.319-1.045 0.066 0.213 0.14 0.447 0.22 0.704 0.69 2.2 1.321 3.92 1.893 5.159h1.309v-6.962h-1.024v5.752c-0.285-1.019-0.945-2.937-1.98-5.752h-0.813c-0.33 0.769-0.707 1.765-1.129 2.986s-0.709 2.136-0.863 2.744" fill="#004f53"/>
    </g>
    <g transform="translate(560.88 8641.8)">
     <path d="m0 0-1.133-3.311h2.266zm-0.484 1.232h0.968l2.52-6.962h-1.045l-0.529 1.572h-2.848l-0.539-1.572h-1.045z" fill="#004f53"/>
    </g>
    <g transform="translate(566.89 8642.3)">
     <path d="m0 0v-2.574c0.295-0.052 0.598-0.077 0.914-0.077 0.865 0 1.297 0.468 1.297 1.408 0 0.88-0.465 1.319-1.397 1.319-0.337 0-0.609-0.025-0.814-0.076m-1.021-6.204v6.952c0.644 0.095 1.238 0.143 1.781 0.143 1.687 0 2.529-0.711 2.529-2.134 0-0.771-0.256-1.354-0.769-1.749-0.418-0.323-0.954-0.485-1.606-0.485-0.316 0-0.619 0.026-0.914 0.078v-2.805z" fill="#004f53"/>
    </g>
    <g transform="translate(640.64 8642.2)">
     <path d="m0 0h-2.09v0.847h5.367v-0.847h-2.254v-6.116h-1.023z" fill="#004f53"/>
    </g>
    <g transform="translate(645.92 8643.1)">
     <path d="m0 0h4.246v-0.847h-3.225v-2.079h2.708v-0.847h-2.708v-2.343h3.368v-0.847h-4.389z" fill="#004f53"/>
    </g>
    <g transform="translate(654.78 8641.8)">
     <path d="m0 0-1.133-3.311h2.266zm-0.484 1.232h0.968l2.518-6.962h-1.045l-0.527 1.572h-2.85l-0.539-1.572h-1.045z" fill="#004f53"/>
    </g>
    <g transform="translate(660.78 8641.8)">
     <path d="m0 0v-5.73h-1.012v6.962h1.299c0.565-1.173 1.158-2.779 1.781-4.818 0.139-0.454 0.246-0.803 0.319-1.045 0.066 0.213 0.14 0.447 0.22 0.704 0.69 2.2 1.321 3.92 1.893 5.159h1.309v-6.962h-1.024v5.752c-0.285-1.019-0.945-2.937-1.98-5.752h-0.813c-0.33 0.769-0.707 1.765-1.129 2.986s-0.709 2.136-0.863 2.744" fill="#004f53"/>
    </g>
    <g transform="translate(315.01 8641.8)">
     <path d="m0 0-1.133-3.311h2.266zm-0.484 1.232h0.968l2.52-6.962h-1.045l-0.529 1.572h-2.848l-0.539-1.572h-1.045z" fill="#004f53"/>
    </g>
    <g transform="translate(321.02 8639.4)">
     <path d="m0 0v-2.508c0.258-0.052 0.584-0.077 0.98-0.077 0.946 0 1.418 0.399 1.418 1.199 0 0.44-0.121 0.782-0.363 1.023-0.242 0.242-0.582 0.363-1.021 0.363zm0 2.938v-2.102h1.035c0.367 0 0.658 0.086 0.875 0.259 0.215 0.172 0.324 0.405 0.324 0.698 0 0.814-0.466 1.221-1.398 1.221-0.336 0-0.615-0.026-0.836-0.076m-1.021-6.194v6.942c0.63 0.094 1.253 0.142 1.869 0.142 0.873 0 1.513-0.205 1.925-0.616 0.331-0.33 0.495-0.767 0.495-1.309 0-0.359-0.123-0.678-0.37-0.957-0.244-0.279-0.546-0.444-0.906-0.495v-0.011c0.455-0.066 0.815-0.262 1.084-0.588 0.268-0.327 0.401-0.743 0.401-1.248 0-0.661-0.268-1.17-0.803-1.53-0.463-0.315-1.07-0.472-1.826-0.472-0.674 0-1.299 0.047-1.869 0.142" fill="#004f53"/>
    </g>
    <g transform="translate(329.46 8636.9)">
     <path d="m0 0c0.682 0 1.195 0.282 1.539 0.847 0.287 0.469 0.43 1.085 0.43 1.847 0 0.888-0.188 1.581-0.561 2.079-0.346 0.462-0.814 0.694-1.408 0.694-0.676 0-1.187-0.297-1.541-0.891-0.285-0.484-0.428-1.111-0.428-1.882 0-0.88 0.188-1.557 0.561-2.034 0.344-0.44 0.814-0.66 1.408-0.66m0-0.88c-1.033 0-1.83 0.406-2.387 1.221-0.441 0.645-0.66 1.43-0.66 2.353 0 1.086 0.289 1.973 0.869 2.662 0.549 0.661 1.276 0.991 2.178 0.991 1.027 0 1.822-0.422 2.387-1.265 0.439-0.66 0.66-1.456 0.66-2.388 0-1.077-0.289-1.95-0.869-2.617-0.551-0.639-1.276-0.957-2.178-0.957" fill="#004f53"/>
    </g>
    <g transform="translate(339.97 8639)">
     <path d="m0 0c0-2.031-0.85-3.047-2.551-3.047s-2.553 1.016-2.553 3.047v4.048h1.036v-4.279c0-1.291 0.505-1.936 1.517-1.936s1.518 0.645 1.518 1.936v4.279h1.033z" fill="#004f53"/>
    </g>
    <g transform="translate(344.14 8642.2)">
     <path d="m0 0h-2.09v0.847h5.367v-0.847h-2.256v-6.116h-1.021z" fill="#004f53"/>
    </g>
    <g transform="translate(1055 8636.8)">
     <path d="m0 0c-0.616-0.535-1.287-0.803-2.014-0.803-1.055 0-1.873 0.407-2.452 1.221-0.455 0.645-0.682 1.419-0.682 2.321 0 1.027 0.282 1.904 0.847 2.629 0.557 0.704 1.265 1.057 2.122 1.057 0.763 0 1.46-0.254 2.091-0.76l-0.407-0.615c-0.499 0.329-0.994 0.494-1.485 0.494-0.667 0-1.192-0.274-1.574-0.824-0.344-0.499-0.516-1.159-0.516-1.981 0-0.813 0.216-1.467 0.649-1.958 0.396-0.455 0.909-0.681 1.54-0.681 0.477 0 0.968 0.171 1.474 0.516z" fill="#004f53"/>
    </g>
    <g transform="translate(1060 8636.9)">
     <path d="m0 0c0.683 0 1.195 0.282 1.54 0.848 0.286 0.468 0.43 1.085 0.43 1.847 0 0.887-0.188 1.58-0.562 2.079-0.345 0.462-0.813 0.693-1.408 0.693-0.675 0-1.187-0.297-1.54-0.891-0.285-0.484-0.429-1.111-0.429-1.881 0-0.88 0.188-1.558 0.562-2.035 0.344-0.44 0.813-0.66 1.407-0.66m0-0.88c-1.033 0-1.829 0.407-2.387 1.221-0.44 0.645-0.66 1.43-0.66 2.354 0 1.085 0.29 1.973 0.869 2.662 0.55 0.661 1.277 0.991 2.178 0.991 1.027 0 1.822-0.422 2.388-1.266 0.439-0.66 0.659-1.456 0.659-2.387 0-1.078-0.289-1.951-0.868-2.618-0.551-0.638-1.277-0.957-2.179-0.957" fill="#004f53"/>
    </g>
    <g transform="translate(1066.4 8641.8)">
     <path d="m0 0v-5.731h-1.012v6.962h1.298c0.565-1.172 1.158-2.779 1.782-4.817 0.139-0.455 0.245-0.804 0.319-1.045 0.066 0.212 0.139 0.447 0.22 0.704 0.689 2.199 1.32 3.919 1.892 5.158h1.309v-6.962h-1.023v5.752c-0.286-1.019-0.946-2.936-1.98-5.752h-0.814c-0.33 0.77-0.706 1.765-1.128 2.986-0.422 1.222-0.709 2.136-0.863 2.745" fill="#004f53"/>
    </g>
    <g transform="translate(1076 8641.8)">
     <path d="m0 0v-5.731h-1.012v6.962h1.298c0.565-1.172 1.158-2.779 1.782-4.817 0.139-0.455 0.245-0.804 0.319-1.045 0.066 0.212 0.139 0.447 0.22 0.704 0.689 2.199 1.32 3.919 1.892 5.158h1.309v-6.962h-1.023v5.752c-0.286-1.019-0.946-2.936-1.98-5.752h-0.814c-0.33 0.77-0.706 1.765-1.128 2.986-0.422 1.222-0.709 2.136-0.863 2.745" fill="#004f53"/>
    </g>
    <g transform="translate(1089.7 8639)">
     <path d="m0 0c0-2.031-0.851-3.047-2.552-3.047s-2.552 1.016-2.552 3.047v4.048h1.035v-4.278c0-1.291 0.506-1.937 1.517-1.937 1.012 0 1.518 0.646 1.518 1.937v4.278h1.034z" fill="#004f53"/>
    </g>
    <g transform="translate(1093.5 8641.4)">
     <path d="m0 0v-5.27h-1.012v6.963h0.891c1.467-2.126 2.643-3.922 3.531-5.389v5.389h1.023v-6.963h-0.912c-0.749 1.035-1.922 2.791-3.521 5.27" fill="#004f53"/>
    </g>
    <path d="m1101.8 8636.1h-1.012v6.963h1.012z" fill="#004f53"/>
    <g transform="translate(1106 8642.2)">
     <path d="m0 0h-2.09v0.847h5.367v-0.847h-2.255v-6.116h-1.022z" fill="#004f53"/>
    </g>
    <g transform="translate(1110.5 8643.1)">
     <path d="m0 0h1.089l1.782-3.388 1.771 3.388h1.089l-2.354-4.224v-2.739h-1.012v2.739z" fill="#004f53"/>
    </g>
    <g transform="translate(750.83 8636.1)">
     <path d="m0 0v6.963h4.246v-0.847h-3.224v-2.091h2.707v-0.846h-2.707v-3.179z" fill="#004f53"/>
    </g>
    <g transform="translate(759.12 8641.8)">
     <path d="m0 0-1.133-3.311h2.266zm-0.484 1.232h0.968l2.519-6.962h-1.045l-0.528 1.572h-2.849l-0.539-1.572h-1.045z" fill="#004f53"/>
    </g>
    <g transform="translate(764.52 8639.5)">
     <path d="m0 0c0-0.88 0.187-1.559 0.562-2.035 0.343-0.433 0.813-0.649 1.407-0.649 0.682 0 1.195 0.279 1.54 0.836 0.286 0.469 0.429 1.085 0.429 1.848 0 0.888-0.187 1.584-0.561 2.09-0.345 0.462-0.814 0.693-1.408 0.693-0.675 0-1.188-0.297-1.54-0.89-0.285-0.493-0.429-1.122-0.429-1.893m2.651-3.487c-0.242-0.051-0.469-0.076-0.682-0.076-1.033 0-1.829 0.402-2.387 1.209-0.44 0.645-0.66 1.43-0.66 2.354 0 1.101 0.293 1.995 0.88 2.685 0.557 0.652 1.28 0.978 2.167 0.978 1.027 0 1.822-0.422 2.387-1.265 0.44-0.668 0.66-1.466 0.66-2.398 0-0.704-0.134-1.336-0.402-1.897-0.267-0.561-0.635-0.985-1.105-1.271l1.364-1.441h-1.187z" fill="#004f53"/>
    </g>
    <g transform="translate(848.24 8641)">
     <path d="m0 0-1.133-3.311h2.266zm-0.484 1.232h0.968l2.52-6.962h-1.045l-0.529 1.572h-2.848l-0.539-1.572h-1.045z" fill="#004f53"/>
    </g>
    <path d="m854.24 8635.3h-1.012v6.963h1.012z" fill="#004f53"/>
    <g transform="translate(858.06 8641.5)">
     <path d="m0 0v-2.574c0.293-0.052 0.568-0.077 0.824-0.077 0.924 0 1.387 0.468 1.387 1.408 0 0.88-0.467 1.319-1.397 1.319-0.337 0-0.609-0.025-0.814-0.076m-1.023-6.204v6.952c0.644 0.095 1.24 0.143 1.783 0.143 1.685 0 2.529-0.711 2.529-2.134 0-0.924-0.381-1.577-1.144-1.958l1.386-3.003h-1.035l-1.254 2.75c-0.096-0.015-0.234-0.023-0.418-0.023-0.256 0-0.531 0.026-0.824 0.078v-2.805z" fill="#004f53"/>
    </g>
    <g transform="translate(864.7 8636)">
     <path d="m0 0c0.236-0.052 0.5-0.077 0.793-0.077 0.828 0 1.455 0.264 1.881 0.792 0.389 0.484 0.582 1.162 0.582 2.035 0 0.938-0.27 1.657-0.813 2.156-0.441 0.41-1.002 0.615-1.683 0.615-0.301 0-0.555-0.025-0.76-0.076zm-1.021 6.193c0.548 0.095 1.132 0.143 1.748 0.143 1.21 0 2.138-0.363 2.783-1.089 0.551-0.616 0.824-1.434 0.824-2.453 0-1.239-0.344-2.182-1.033-2.827-0.61-0.572-1.446-0.858-2.508-0.858-0.66 0-1.266 0.048-1.814 0.143z" fill="#004f53"/>
    </g>
    <g transform="translate(872.41 8641.5)">
     <path d="m0 0v-2.574c0.295-0.052 0.568-0.077 0.826-0.077 0.924 0 1.385 0.468 1.385 1.408 0 0.88-0.465 1.319-1.397 1.319-0.337 0-0.609-0.025-0.814-0.076m-1.021-6.204v6.952c0.644 0.095 1.238 0.143 1.781 0.143 1.687 0 2.529-0.711 2.529-2.134 0-0.924-0.381-1.577-1.143-1.958l1.385-3.003h-1.033l-1.254 2.75c-0.096-0.015-0.234-0.023-0.418-0.023-0.258 0-0.531 0.026-0.826 0.078v-2.805z" fill="#004f53"/>
    </g>
    <g transform="translate(880.64 8636)">
     <path d="m0 0c0.684 0 1.195 0.282 1.541 0.847 0.285 0.469 0.43 1.085 0.43 1.847 0 0.888-0.188 1.581-0.563 2.079-0.344 0.462-0.812 0.694-1.408 0.694-0.674 0-1.187-0.297-1.539-0.891-0.285-0.484-0.43-1.111-0.43-1.882 0-0.88 0.188-1.557 0.563-2.034 0.344-0.44 0.812-0.66 1.406-0.66m0-0.88c-1.033 0-1.828 0.406-2.387 1.221-0.439 0.645-0.66 1.43-0.66 2.353 0 1.086 0.291 1.973 0.869 2.662 0.551 0.661 1.278 0.991 2.178 0.991 1.027 0 1.822-0.422 2.389-1.265 0.439-0.66 0.658-1.456 0.658-2.388 0-1.077-0.289-1.95-0.867-2.617-0.551-0.639-1.278-0.957-2.18-0.957" fill="#004f53"/>
    </g>
    <g transform="translate(887.07 8641.5)">
     <path d="m0 0v-2.574c0.293-0.052 0.598-0.077 0.912-0.077 0.865 0 1.299 0.468 1.299 1.408 0 0.88-0.467 1.319-1.397 1.319-0.337 0-0.609-0.025-0.814-0.076m-1.023-6.204v6.952c0.644 0.095 1.24 0.143 1.783 0.143 1.685 0 2.529-0.711 2.529-2.134 0-0.771-0.258-1.354-0.769-1.749-0.418-0.323-0.956-0.485-1.608-0.485-0.314 0-0.619 0.026-0.912 0.078v-2.805z" fill="#004f53"/>
    </g>
    <g transform="translate(956.96 8641.4)">
     <path d="m0 0h-2.09v0.847h5.367v-0.847h-2.255v-6.116h-1.022z" fill="#004f53"/>
    </g>
    <g transform="translate(964.72 8636)">
     <path d="m0 0c0.683 0 1.195 0.282 1.54 0.847 0.286 0.469 0.43 1.085 0.43 1.847 0 0.888-0.188 1.581-0.562 2.079-0.345 0.462-0.813 0.694-1.408 0.694-0.675 0-1.187-0.297-1.54-0.891-0.285-0.484-0.429-1.111-0.429-1.882 0-0.88 0.188-1.557 0.562-2.034 0.344-0.44 0.813-0.66 1.407-0.66m0-0.88c-1.033 0-1.829 0.406-2.387 1.221-0.44 0.645-0.66 1.43-0.66 2.353 0 1.086 0.29 1.973 0.869 2.662 0.55 0.661 1.277 0.991 2.178 0.991 1.027 0 1.822-0.422 2.388-1.265 0.439-0.66 0.659-1.456 0.659-2.388 0-1.077-0.289-1.95-0.868-2.617-0.551-0.639-1.277-0.957-2.179-0.957" fill="#004f53"/>
    </g>
    <g transform="translate(971.11 8638.7)">
     <path d="m0 0v-3.388h-0.99v6.963h0.99v-3.003h0.011l2.409 3.003h1.242l-2.683-3.278 2.925-3.685h-1.331l-2.562 3.388z" fill="#004f53"/>
    </g>
    <g transform="translate(976.9 8642.3)">
     <path d="m0 0h4.246v-0.847h-3.224v-2.079h2.707v-0.847h-2.707v-2.343h3.367v-0.847h-4.389z" fill="#004f53"/>
    </g>
    <g transform="translate(984.61 8640.6)">
     <path d="m0 0v-5.269h-1.012v6.963h0.891c1.467-2.127 2.643-3.923 3.531-5.39v5.39h1.023v-6.963h-0.912c-0.749 1.035-1.922 2.79-3.521 5.269" fill="#004f53"/>
    </g>
    <g transform="translate(995.28 8641.1)">
     <path d="m0 0c-0.499 0.249-1.001 0.374-1.507 0.374-0.359 0-0.652-0.082-0.88-0.247-0.227-0.165-0.341-0.376-0.341-0.633 0-0.462 0.304-0.806 0.914-1.034 0.909-0.337 1.553-0.691 1.935-1.062 0.381-0.37 0.572-0.826 0.572-1.369 0-0.66-0.253-1.176-0.758-1.55-0.412-0.309-0.921-0.462-1.53-0.462-0.726 0-1.481 0.249-2.266 0.748l0.44 0.627c0.491-0.301 1.064-0.452 1.716-0.452 0.894 0 1.342 0.377 1.342 1.133 0 0.587-0.377 1.008-1.133 1.265-0.792 0.271-1.365 0.572-1.722 0.902-0.355 0.33-0.533 0.73-0.533 1.199 0 0.557 0.217 1.004 0.649 1.342 0.396 0.308 0.916 0.462 1.562 0.462 0.727 0 1.386-0.205 1.98-0.616z" fill="#004f53"/>
    </g>
   </g>
  </g>
  <g transform="matrix(.35278 0 0 -.35278 -140.27 2465.3)">
   <g clip-path="url(#clipPath2198)">
    <g transform="translate(238.91 6333.4)">
     <path d="m0 0c0.154 5e-3 0.3 0.01 0.43 0.021 0.068 6e-3 0.145 5e-3 0.216 0-0.032-0.083-0.042-0.173-0.028-0.263 0.024-0.158 0.122-0.295 0.263-0.37 0.095-0.052 0.228-0.14 0.368-0.234 0.398-0.265 0.849-0.566 1.272-0.592 0.385-0.025 0.599 0.194 0.691 0.288 8e-3 7e-3 0.014 0.014 0.022 0.021 0.051 0.042 0.1 0.099 0.136 0.167 0.081-0.023 0.167-0.046 0.254-0.07 0.302-0.082 0.862-0.234 0.986-0.365 0.22-0.233 0.392-0.677 0.543-1.069 0.077-0.198 0.149-0.385 0.23-0.558 0.035-0.074 0.069-0.151 0.104-0.228 0.234-0.524 0.501-1.118 1.065-1.487 0.256-0.167 0.57-0.215 0.847-0.258 0.033-4e-3 0.071-0.01 0.11-0.017-0.164-0.229-0.398-0.447-0.645-0.677-0.63-0.587-1.414-1.317-1.053-2.481 0.171-0.55 0.179-0.61-0.095-0.908-0.038-0.04-0.073-0.077-0.105-0.112-0.235-0.25-0.42-0.447-0.574-0.931-0.044-0.14-0.102-0.205-0.207-0.323-0.084-0.094-0.188-0.212-0.284-0.377-0.116-0.198-0.154-0.387-0.185-0.54-0.03-0.151-0.047-0.226-0.106-0.299-0.134-0.165-0.385-0.404-0.642-0.567-0.239-0.152-0.379-0.173-0.426-0.17-0.055 0.058-0.251 0.313-0.548 1.195-0.074 0.217-0.175 0.441-0.274 0.658-0.216 0.477-0.44 0.97-0.331 1.308 0.013 0.039 0.025 0.078 0.038 0.116 0.174 0.531 0.338 1.032 0.034 1.762-0.093 0.222-0.241 0.384-0.371 0.527-0.084 0.093-0.179 0.198-0.194 0.258-0.018 0.074-0.017 0.159-0.017 0.258 2e-3 0.266 5e-3 0.667-0.395 1.041-0.563 0.527-1.219 0.365-1.654 0.257-0.133-0.032-0.259-0.064-0.371-0.077-0.715-0.084-1.353 0.186-1.751 0.741-0.417 0.579-0.477 1.359-0.158 2.036 0.155 0.327 0.388 0.59 0.659 0.894 0.059 0.067 0.118 0.133 0.178 0.202 0.099 0.115 0.208 0.269 0.324 0.433 0.138 0.196 0.394 0.561 0.506 0.63 0.227 0.127 0.753 0.146 1.138 0.16m-5.068 3.817c0.167-0.406 0.081-0.876-0.218-1.197l-0.599-0.641c-0.026-0.029-0.05-0.061-0.069-0.095l-1.359-2.372-1.208-0.864c-0.225-0.161-0.28-0.472-0.125-0.7l0.452-0.663c-0.26-0.039-0.494-0.071-0.649-0.088-0.03 0.029-0.061 0.058-0.094 0.088-0.121 0.112-0.289 0.262-0.539 0.482 0.413 2.557 1.645 4.966 3.583 6.805 0.371-0.117 0.676-0.394 0.825-0.755m-4.512-7.161c2e-3 -0.022 5e-3 -0.044 9e-3 -0.066-4e-3 0.021-7e-3 0.043-9e-3 0.066m1.329-2.151 2.098-1.594c0.062-0.048 0.134-0.08 0.21-0.095l1.264-0.247c0.162-0.031 0.296-0.127 0.38-0.269 0.083-0.141 0.1-0.305 0.049-0.462-0.105-0.321-0.106-0.661-1e-3 -0.982l0.161-0.496c0.096-0.297-0.067-0.616-0.363-0.713l-0.506-0.164c-0.176-0.057-0.307-0.206-0.342-0.388l-0.407-2.124c-0.895 0.819-1.68 1.787-2.318 2.891-0.777 1.347-1.263 2.784-1.477 4.237zm21.898 7.87c-1.739 3.012-4.547 5.167-7.907 6.066-3.359 0.901-6.868 0.439-9.88-1.3-3.013-1.739-5.167-4.547-6.067-7.907-0.901-3.359-0.439-6.869 1.3-9.881 1.56-2.702 4.04-4.755 6.982-5.782 1.394-0.487 2.85-0.729 4.304-0.729 1.58 0 3.158 0.287 4.649 0.86 0.262 0.101 0.393 0.395 0.293 0.657-0.101 0.263-0.396 0.394-0.658 0.293-3.969-1.526-8.267-0.833-11.477 1.577l0.456 2.379 0.219 0.072c0.83 0.27 1.286 1.164 1.017 1.994l-0.161 0.496c-0.038 0.115-0.038 0.236 0 0.351 0.141 0.431 0.091 0.903-0.139 1.294-0.229 0.392-0.616 0.665-1.061 0.753l-1.149 0.224-2.215 1.685c-0.133 0.101-0.307 0.13-0.465 0.079l-1.297-0.422c-0.028 0.464-0.028 0.928-2e-3 1.389 0.051-0.047 0.084-0.08 0.105-0.101 0.025-0.043 0.057-0.081 0.093-0.115 0.106-0.096 0.202-0.14 0.404-0.14 0.185 0 0.459 0.037 0.912 0.104 0.429 0.063 0.856 0.135 0.86 0.135 0.171 0.029 0.316 0.143 0.384 0.302 0.068 0.16 0.05 0.343-0.048 0.487l-0.624 0.915 0.894 0.639c0.059 0.042 0.109 0.097 0.145 0.161l1.385 2.418 0.559 0.598c0.57 0.611 0.733 1.506 0.414 2.279-0.188 0.456-0.516 0.836-0.926 1.091 0.444 0.35 0.918 0.673 1.422 0.964 1.849 1.067 3.867 1.584 5.863 1.604l-0.908-1.139-3.369-1.182c-0.137-0.047-0.247-0.151-0.302-0.286l-0.941-2.28c-0.067-0.163-0.046-0.347 0.056-0.49l1.374-1.925c-0.197-0.179-0.388-0.441-0.617-0.766-0.1-0.142-0.195-0.276-0.26-0.352-0.057-0.066-0.114-0.13-0.171-0.193-0.295-0.333-0.601-0.676-0.818-1.136-0.477-1.01-0.381-2.184 0.252-3.064 0.611-0.851 1.619-1.284 2.696-1.157 0.175 0.02 0.338 0.061 0.497 0.1 0.436 0.108 0.574 0.119 0.714-0.013 0.068-0.063 0.074-0.075 0.073-0.292-1e-3 -0.137-2e-3 -0.308 0.045-0.503 0.076-0.313 0.272-0.529 0.43-0.703 0.079-0.086 0.16-0.175 0.185-0.235 0.158-0.38 0.089-0.591-0.062-1.053-0.013-0.039-0.026-0.079-0.04-0.12-0.23-0.713 0.091-1.419 0.374-2.042 0.092-0.202 0.178-0.393 0.235-0.562 0.458-1.357 0.801-1.668 1.076-1.793 0.144-0.066 0.293-0.095 0.444-0.095 0.733 0 1.499 0.681 1.85 1.113 0.221 0.271 0.275 0.543 0.315 0.741 0.02 0.099 0.035 0.176 0.065 0.227 0.046 0.078 0.099 0.138 0.167 0.215 0.136 0.153 0.306 0.345 0.416 0.691 0.084 0.263 0.144 0.327 0.345 0.541 0.035 0.038 0.073 0.077 0.113 0.121 0.677 0.737 0.503 1.301 0.318 1.897-0.155 0.502 0.117 0.823 0.774 1.435 0.285 0.266 0.58 0.54 0.808 0.87 0.1 0.145 0.403 0.584 0.215 1.019-0.184 0.427-0.651 0.499-1.027 0.556-0.149 0.023-0.373 0.057-0.444 0.104-0.315 0.206-0.508 0.636-0.694 1.051-0.037 0.083-0.073 0.164-0.111 0.243-0.066 0.142-0.132 0.313-0.202 0.494-0.185 0.479-0.395 1.022-0.752 1.4-0.321 0.341-0.926 0.504-1.46 0.649-0.179 0.049-0.349 0.094-0.46 0.135-0.094 0.035-0.196 0.041-0.293 0.019-0.26-0.061-0.422-0.128-0.542-0.225-0.032-0.025-0.126-0.109-0.181-0.243-0.186 0.089-0.443 0.26-0.6 0.364-3e-3 3e-3 -7e-3 5e-3 -0.01 7e-3 0.053 0.213 5e-3 0.384-0.045 0.49-0.285 0.601-1.228 0.554-1.414 0.538-0.106-9e-3 -0.24-0.014-0.381-0.018-0.222-8e-3 -0.468-0.017-0.711-0.044l0.013 0.035c0.184 0.513 0.675 0.859 1.221 0.859h0.289c0.281 0 0.509 0.228 0.509 0.508 0 0.282-0.228 0.509-0.509 0.509h-0.289c-0.811 0-1.553-0.426-1.969-1.098l-0.759 1.063 0.746 1.81 3.292 1.154c0.091 0.032 0.17 0.088 0.23 0.163l1.463 1.836c3.739-0.356 7.259-2.453 9.276-5.946 0.537-0.93 0.935-1.91 1.199-2.912l-0.216-0.192c-0.281-0.251-0.446-0.612-0.453-0.989v-0.012l-0.351 0.966c-0.053 0.145-0.13 0.276-0.229 0.393l-0.627 0.734c-0.243 0.284-0.597 0.447-0.971 0.447h-0.767c-0.272 0-0.521-0.149-0.65-0.389-0.128-0.24-0.114-0.53 0.037-0.756l0.077-0.116c-0.495-0.427-1.069-0.768-1.679-0.998l-1.052 2.014v0.449c0 0.14-0.057 0.273-0.157 0.369l-0.947 0.904c-0.052 0.05-0.115 0.088-0.183 0.112l-0.852 0.299c-0.266 0.094-0.556-0.046-0.649-0.311s0.046-0.556 0.311-0.649l0.749-0.263 0.711-0.678v-0.357c0-0.081 0.02-0.162 0.058-0.235l1.316-2.522c0.118-0.227 0.387-0.33 0.627-0.242l0.383 0.142c0.891 0.328 1.716 0.856 2.388 1.528 0.171 0.171 0.198 0.44 0.063 0.642l-0.027 0.04h0.243c0.076 0 0.148-0.033 0.197-0.091l0.627-0.734c0.02-0.023 0.036-0.05 0.046-0.08l0.692-1.901c0.06-0.164 0.198-0.286 0.368-0.323 0.037-8e-3 0.074-0.012 0.11-0.012 0.134 0 0.264 0.052 0.36 0.149l0.329 0.329c0.209 0.209 0.352 0.472 0.421 0.765 0.509-4.081-1.091-8.302-4.473-10.956-0.221-0.174-0.26-0.493-0.086-0.715 0.173-0.221 0.493-0.259 0.714-0.086 2.442 1.917 4.119 4.658 4.723 7.719 0.61 3.089 0.078 6.296-1.499 9.027" fill="#fff"/>
    </g>
    <g clip-path="url(#clipPath2210)" opacity=".2">
     <g transform="translate(624.05 6293.2)">
      <path d="m0 0h-401.44c-3.101 0-5.615 2.514-5.615 5.616v62.768c0 3.102 2.514 5.616 5.615 5.616h401.44c3.101 0 5.616-2.514 5.616-5.616v-62.768c0-3.102-2.515-5.616-5.616-5.616" fill="#fff"/>
     </g>
    </g>
   </g>
  </g>
 </g>
</svg>
