<?xml version="1.0" encoding="UTF-8"?>
<!-- Created with Inkscape (http://www.inkscape.org/) -->
<svg width="102.35mm" height="108.2mm" version="1.1" viewBox="0 0 102.35 108.2" xmlns="http://www.w3.org/2000/svg" xmlns:cc="http://creativecommons.org/ns#" xmlns:dc="http://purl.org/dc/elements/1.1/" xmlns:rdf="http://www.w3.org/1999/02/22-rdf-syntax-ns#">
 <defs>
  <clipPath id="clipPath4694">
   <path d="m0 8681.9h1280v-8681.9h-1280z"/>
  </clipPath>
  <clipPath id="clipPath2232">
   <path d="m0 8681.9h1280v-8681.9h-1280z"/>
  </clipPath>
 </defs>
 <metadata>
  <rdf:RDF>
   <cc:Work rdf:about="">
    <dc:format>image/svg+xml</dc:format>
    <dc:type rdf:resource="http://purl.org/dc/dcmitype/StillImage"/>
    <dc:title/>
   </cc:Work>
  </rdf:RDF>
 </metadata>
 <g transform="translate(24.151 -268.79)">
  <g transform="matrix(.35278 0 0 -.35278 -27.985 2600.3)">
   <g clip-path="url(#clipPath4694)">
    <g transform="translate(293.83 4234.3)">
     <path d="M 0,0 -5.755,4.18 0,8.359" fill="none" stroke="#fff" stroke-linecap="round" stroke-linejoin="round" stroke-miterlimit="10" stroke-width="2"/>
    </g>
    <g transform="translate(992.38 4234)">
     <path d="M 0,0 5.755,4.18 0,8.359" fill="none" stroke="#fff" stroke-linecap="round" stroke-linejoin="round" stroke-miterlimit="10" stroke-width="2"/>
    </g>
    <g transform="translate(1118.9 4391.2)">
     <path d="m0 0v1.326c0 0.36-0.278 0.638-0.622 0.638s-0.622-0.278-0.622-0.638v-1.097c0-0.671 0.507-1.539 0.507-1.539l1.408-2.652c0.573-1.048 0.524-1.818 0.524-1.818v-1.457c0-0.802-0.655-1.457-1.473-1.457h-0.737c-0.786 0.033-1.408 0.671-1.425 1.457v1.179c0 0.376 0.181 0.557 0.328 0.639 0.098 0.032 0.573 0.245 0.868 0.376v-1.998c0-0.343 0.278-0.622 0.622-0.622s0.622 0.279 0.622 0.639v1.31c0 0.671-0.508 1.555-0.508 1.555l-1.408 2.636c-0.573 1.048-0.524 1.817-0.524 1.817v1.18c0 0.802 0.655 1.522 1.474 1.522h0.737c0.786-0.017 1.424-0.737 1.424-1.522v-0.443c0-0.376-0.18-0.556-0.327-0.638-0.098-0.049-0.557-0.262-0.868-0.393" fill="#fff"/>
    </g>
    <g transform="translate(1126.7 4393.3)">
     <path d="m0 0c-0.065-0.147-0.246-0.311-0.622-0.311h-0.917c-0.164 0-0.278-0.131-0.295-0.278v-10.02h-0.835c-0.278 0-0.327 0.163-0.327 0.245v10.053h-1.654v0.803c0 0.196 0.164 0.36 0.36 0.36h4.683z" fill="#fff"/>
    </g>
    <g transform="translate(1130.6 4383.6)">
     <path d="m0 0c0.344 0 0.622 0.278 0.622 0.638v8.351c0 0.36-0.278 0.638-0.622 0.638h-0.18c-0.344-0.016-0.622-0.294-0.622-0.638v-8.351c0-0.344 0.278-0.621 0.622-0.638zm0.393 10.659c0.786-0.033 1.425-0.672 1.425-1.457v-8.793c-0.017-0.785-0.639-1.408-1.425-1.44h-0.901c-0.802 0-1.457 0.655-1.473 1.44v8.793c0 0.802 0.655 1.457 1.473 1.457z" fill="#fff"/>
    </g>
    <g transform="translate(1138.9 4384)">
     <path d="m0 0c0-0.786-0.622-1.424-1.408-1.457h-0.721c-0.818 0-1.473 0.655-1.473 1.457v8.776c0 0.802 0.655 1.457 1.473 1.457h0.721c0.786-0.017 1.408-0.671 1.408-1.457v-1.752c0-0.377-0.164-0.557-0.311-0.622l-0.851-0.393v2.57c0 0.344-0.279 0.622-0.639 0.622-0.344 0-0.622-0.278-0.622-0.622v-8.367c0-0.359 0.278-0.638 0.622-0.638 0.36 0 0.639 0.279 0.639 0.638v1.54c0 0.376 0.163 0.557 0.311 0.638 0.098 0.049 0.556 0.246 0.851 0.377z" fill="#fff"/>
    </g>
    <g transform="translate(1144.9 4382.6)">
     <path d="m0 0-1.572 5.125v-5.125h-1.162v11.019c0 0.36 0.245 0.426 0.376 0.442h0.786v-4.175l1.441 4.142h1.228l-1.85-5.157 1.981-6.271z" fill="#fff"/>
    </g>
    <g transform="translate(1158 4382.6)">
     <path d="m0 0h-1.097l-0.802 5.812-0.786-5.812h-1.081l-1.424 11.461h0.9c0.279 0 0.344-0.164 0.361-0.246l0.785-6.27 0.574 3.962c0.065 0.671 0.262 0.917 1.015 0.917h0.147l0.769-4.879 0.754 6.287c0.016 0.081 0.098 0.229 0.344 0.229h0.933z" fill="#fff"/>
    </g>
    <g transform="translate(1162.1 4394.1)">
     <path d="m0 0c0.344 0 0.475-0.262 0.475-0.458v-11.003h-0.835c-0.279 0-0.328 0.164-0.344 0.246v11.215z" fill="#fff"/>
    </g>
    <g transform="translate(1167.6 4391.2)">
     <path d="m0 0v1.326c0 0.36-0.278 0.638-0.622 0.638s-0.622-0.278-0.622-0.638v-1.097c0-0.671 0.507-1.539 0.507-1.539l1.408-2.652c0.573-1.048 0.524-1.818 0.524-1.818v-1.457c0-0.802-0.655-1.457-1.473-1.457h-0.737c-0.786 0.033-1.408 0.671-1.425 1.457v1.179c0 0.376 0.181 0.557 0.328 0.639 0.098 0.032 0.573 0.245 0.868 0.376v-1.998c0-0.343 0.278-0.622 0.622-0.622s0.622 0.279 0.622 0.639v1.31c0 0.671-0.507 1.555-0.507 1.555l-1.409 2.636c-0.573 1.048-0.524 1.817-0.524 1.817v1.18c0 0.802 0.655 1.522 1.474 1.522h0.737c0.786-0.017 1.424-0.737 1.424-1.522v-0.443c0-0.376-0.18-0.556-0.327-0.638-0.098-0.049-0.557-0.262-0.868-0.393" fill="#fff"/>
    </g>
    <g transform="translate(1174.7 4383.8)">
     <path d="m0 0c-0.131-0.295-0.327-0.753-0.376-0.852-0.082-0.147-0.263-0.311-0.639-0.311h-2.62v11.134c0.016 0.18 0.164 0.327 0.36 0.327h3.062l-0.393-0.851c-0.065-0.147-0.245-0.327-0.622-0.327h-0.95c-0.163 0-0.278-0.115-0.278-0.279v-3.405h1.768c-0.131-0.295-0.327-0.769-0.376-0.868-0.082-0.148-0.246-0.311-0.622-0.311h-0.492c-0.147 0-0.278-0.131-0.278-0.278v-3.979z" fill="#fff"/>
    </g>
    <g transform="translate(1150 4396.8)">
     <path d="m0 0s0.918 0.097 0.918-1.16v-15.752h-1.208c-0.29 0-0.532 0.242-0.532 0.532v14.278c0 0.193-0.048 0.362-0.313 0.411-0.339 0.072-0.532 0.266-0.604 0.435-0.073 0.145-0.194 0.821-0.387 1.256z" fill="#fff"/>
    </g>
    <g transform="translate(405.1 8643.1)">
     <path d="m0 0h1.1l1.473-5.401 1.431 5.401h1.077l-2.034-6.963h-0.892c-0.52 1.584-1.055 3.413-1.605 5.488-0.55-2.075-1.086-3.904-1.607-5.488h-0.89l-2.035 6.963h1.078l1.429-5.401z" fill="#004f53"/>
    </g>
    <g transform="translate(413.17 8636.1)">
     <path d="m0 0h-1.012v6.963h1.012v-2.926h3.355v2.926h1.023v-6.963h-1.023v3.189h-3.355z" fill="#004f53"/>
    </g>
    <g transform="translate(419.52 8643.1)">
     <path d="m0 0h1.089l1.782-3.388 1.771 3.388h1.089l-2.354-4.225v-2.738h-1.012v2.738z" fill="#004f53"/>
    </g>
    <g transform="translate(431.81 8639.3)">
     <path d="m0 0c-0.154-0.125-0.285-0.305-0.391-0.539-0.106-0.235-0.16-0.455-0.16-0.66 0-0.374 0.107-0.675 0.32-0.903 0.212-0.227 0.491-0.34 0.835-0.34 0.448 0 0.792 0.157 1.035 0.472zm2.243 0.418h0.99v-0.43c0-0.836-0.154-1.488-0.462-1.958l1.1-1.231h-1.133l-0.483 0.527c-0.411-0.439-0.98-0.659-1.705-0.659-0.683 0-1.225 0.216-1.628 0.648-0.338 0.36-0.506 0.796-0.506 1.31 0 0.374 0.099 0.74 0.297 1.1 0.197 0.359 0.458 0.645 0.78 0.858l-0.132 0.143c-0.506 0.557-0.758 1.074-0.758 1.55 0 0.485 0.163 0.873 0.489 1.166s0.758 0.441 1.293 0.441c0.498 0 1.026-0.192 1.584-0.572l-0.43-0.605c-0.381 0.205-0.769 0.308-1.165 0.308-0.565 0-0.848-0.236-0.848-0.704 0-0.345 0.232-0.789 0.694-1.331l1.881-2.189c0.094 0.19 0.142 0.531 0.142 1.023z" fill="#004f53"/>
    </g>
    <g transform="translate(441.95 8636.1)">
     <path d="m0 0h-1.012v6.963h1.012v-2.926h3.355v2.926h1.023v-6.963h-1.023v3.189h-3.355z" fill="#004f53"/>
    </g>
    <g transform="translate(451.73 8636.9)">
     <path d="m0 0c0.683 0 1.195 0.282 1.54 0.847 0.286 0.469 0.43 1.085 0.43 1.847 0 0.888-0.188 1.581-0.562 2.079-0.345 0.462-0.813 0.694-1.408 0.694-0.675 0-1.187-0.297-1.54-0.891-0.285-0.484-0.429-1.111-0.429-1.882 0-0.88 0.188-1.557 0.562-2.034 0.344-0.44 0.813-0.66 1.407-0.66m0-0.88c-1.033 0-1.829 0.406-2.387 1.221-0.44 0.645-0.66 1.43-0.66 2.353 0 1.086 0.29 1.973 0.869 2.662 0.55 0.661 1.277 0.991 2.178 0.991 1.027 0 1.822-0.422 2.388-1.265 0.439-0.66 0.659-1.456 0.659-2.388 0-1.077-0.289-1.95-0.868-2.617-0.551-0.639-1.277-0.957-2.179-0.957" fill="#004f53"/>
    </g>
    <g transform="translate(460.24 8643.1)">
     <path d="m0 0h1.1l1.473-5.401 1.431 5.401h1.077l-2.034-6.963h-0.892c-0.52 1.584-1.055 3.413-1.605 5.488-0.55-2.075-1.086-3.904-1.607-5.488h-0.89l-2.035 6.963h1.078l1.429-5.401z" fill="#004f53"/>
    </g>
    <g transform="translate(470.89 8636.6)">
     <path d="m0 0c0 0.153 0.057 0.287 0.17 0.401 0.114 0.114 0.248 0.17 0.402 0.17 0.176 0 0.324-0.054 0.446-0.165 0.121-0.109 0.181-0.245 0.181-0.406 0-0.418-0.209-0.627-0.627-0.627-0.169 0-0.306 0.059-0.413 0.176-0.106 0.117-0.159 0.267-0.159 0.451m1.045 1.045h-0.946v1.045c0 0.301 0.042 0.526 0.127 0.677 0.084 0.149 0.28 0.345 0.587 0.587 0.602 0.485 0.903 0.972 0.903 1.463 0 0.301-0.096 0.541-0.286 0.721-0.191 0.18-0.448 0.27-0.77 0.27-0.308 0-0.66-0.118-1.056-0.352l-0.341 0.55c0.535 0.395 1.096 0.594 1.682 0.594 0.507 0 0.919-0.159 1.239-0.473 0.318-0.315 0.478-0.723 0.478-1.222 0-0.711-0.286-1.304-0.858-1.781-0.022-0.016-0.055-0.041-0.099-0.077l-0.066-0.067c-0.264-0.212-0.429-0.377-0.495-0.495-0.066-0.117-0.099-0.307-0.099-0.571z" fill="#004f53"/>
    </g>
    <g transform="translate(520.74 8642.3)">
     <path d="m0 0v-2.574c0.295-0.052 0.568-0.077 0.826-0.077 0.924 0 1.385 0.468 1.385 1.408 0 0.88-0.465 1.319-1.397 1.319-0.337 0-0.609-0.025-0.814-0.076m-1.021-6.204v6.952c0.644 0.095 1.238 0.143 1.781 0.143 1.687 0 2.529-0.711 2.529-2.134 0-0.924-0.381-1.577-1.143-1.958l1.385-3.003h-1.033l-1.254 2.75c-0.096-0.015-0.234-0.023-0.418-0.023-0.258 0-0.531 0.026-0.826 0.078v-2.805z" fill="#004f53"/>
    </g>
    <g transform="translate(528.97 8636.9)">
     <path d="m0 0c0.682 0 1.195 0.282 1.539 0.847 0.287 0.469 0.43 1.085 0.43 1.847 0 0.888-0.188 1.581-0.561 2.079-0.346 0.462-0.814 0.694-1.408 0.694-0.676 0-1.187-0.297-1.541-0.891-0.285-0.484-0.428-1.111-0.428-1.882 0-0.88 0.188-1.557 0.561-2.034 0.344-0.44 0.814-0.66 1.408-0.66m0-0.88c-1.033 0-1.83 0.406-2.387 1.221-0.441 0.645-0.66 1.43-0.66 2.353 0 1.086 0.289 1.973 0.869 2.662 0.549 0.661 1.276 0.991 2.178 0.991 1.027 0 1.822-0.422 2.387-1.265 0.439-0.66 0.66-1.456 0.66-2.388 0-1.077-0.289-1.95-0.869-2.617-0.551-0.639-1.276-0.957-2.178-0.957" fill="#004f53"/>
    </g>
    <g transform="translate(536.39 8641.8)">
     <path d="m0 0-1.133-3.311h2.266zm-0.484 1.232h0.968l2.52-6.962h-1.045l-0.529 1.572h-2.848l-0.539-1.572h-1.045z" fill="#004f53"/>
    </g>
    <g transform="translate(542.39 8636.9)">
     <path d="m0 0c0.234-0.052 0.498-0.077 0.791-0.077 0.83 0 1.457 0.264 1.881 0.792 0.389 0.484 0.584 1.162 0.584 2.035 0 0.938-0.272 1.657-0.815 2.156-0.439 0.41-1 0.615-1.681 0.615-0.301 0-0.555-0.025-0.76-0.076zm-1.023 6.193c0.55 0.095 1.132 0.143 1.75 0.143 1.209 0 2.136-0.363 2.783-1.089 0.549-0.616 0.824-1.434 0.824-2.453 0-1.239-0.346-2.182-1.033-2.827-0.61-0.572-1.446-0.858-2.51-0.858-0.66 0-1.264 0.048-1.814 0.143z" fill="#004f53"/>
    </g>
    <g transform="translate(550.09 8641.8)">
     <path d="m0 0v-5.73h-1.012v6.962h1.299c0.565-1.173 1.158-2.779 1.781-4.818 0.139-0.454 0.246-0.803 0.319-1.045 0.066 0.213 0.14 0.447 0.22 0.704 0.69 2.2 1.321 3.92 1.893 5.159h1.309v-6.962h-1.024v5.752c-0.285-1.019-0.945-2.937-1.98-5.752h-0.813c-0.33 0.769-0.707 1.765-1.129 2.986s-0.709 2.136-0.863 2.744" fill="#004f53"/>
    </g>
    <g transform="translate(560.88 8641.8)">
     <path d="m0 0-1.133-3.311h2.266zm-0.484 1.232h0.968l2.52-6.962h-1.045l-0.529 1.572h-2.848l-0.539-1.572h-1.045z" fill="#004f53"/>
    </g>
    <g transform="translate(566.89 8642.3)">
     <path d="m0 0v-2.574c0.295-0.052 0.598-0.077 0.914-0.077 0.865 0 1.297 0.468 1.297 1.408 0 0.88-0.465 1.319-1.397 1.319-0.337 0-0.609-0.025-0.814-0.076m-1.021-6.204v6.952c0.644 0.095 1.238 0.143 1.781 0.143 1.687 0 2.529-0.711 2.529-2.134 0-0.771-0.256-1.354-0.769-1.749-0.418-0.323-0.954-0.485-1.606-0.485-0.316 0-0.619 0.026-0.914 0.078v-2.805z" fill="#004f53"/>
    </g>
    <g transform="translate(640.64 8642.2)">
     <path d="m0 0h-2.09v0.847h5.367v-0.847h-2.254v-6.116h-1.023z" fill="#004f53"/>
    </g>
    <g transform="translate(645.92 8643.1)">
     <path d="m0 0h4.246v-0.847h-3.225v-2.079h2.708v-0.847h-2.708v-2.343h3.368v-0.847h-4.389z" fill="#004f53"/>
    </g>
    <g transform="translate(654.78 8641.8)">
     <path d="m0 0-1.133-3.311h2.266zm-0.484 1.232h0.968l2.518-6.962h-1.045l-0.527 1.572h-2.85l-0.539-1.572h-1.045z" fill="#004f53"/>
    </g>
    <g transform="translate(660.78 8641.8)">
     <path d="m0 0v-5.73h-1.012v6.962h1.299c0.565-1.173 1.158-2.779 1.781-4.818 0.139-0.454 0.246-0.803 0.319-1.045 0.066 0.213 0.14 0.447 0.22 0.704 0.69 2.2 1.321 3.92 1.893 5.159h1.309v-6.962h-1.024v5.752c-0.285-1.019-0.945-2.937-1.98-5.752h-0.813c-0.33 0.769-0.707 1.765-1.129 2.986s-0.709 2.136-0.863 2.744" fill="#004f53"/>
    </g>
    <g transform="translate(315.01 8641.8)">
     <path d="m0 0-1.133-3.311h2.266zm-0.484 1.232h0.968l2.52-6.962h-1.045l-0.529 1.572h-2.848l-0.539-1.572h-1.045z" fill="#004f53"/>
    </g>
    <g transform="translate(321.02 8639.4)">
     <path d="m0 0v-2.508c0.258-0.052 0.584-0.077 0.98-0.077 0.946 0 1.418 0.399 1.418 1.199 0 0.44-0.121 0.782-0.363 1.023-0.242 0.242-0.582 0.363-1.021 0.363zm0 2.938v-2.102h1.035c0.367 0 0.658 0.086 0.875 0.259 0.215 0.172 0.324 0.405 0.324 0.698 0 0.814-0.466 1.221-1.398 1.221-0.336 0-0.615-0.026-0.836-0.076m-1.021-6.194v6.942c0.63 0.094 1.253 0.142 1.869 0.142 0.873 0 1.513-0.205 1.925-0.616 0.331-0.33 0.495-0.767 0.495-1.309 0-0.359-0.123-0.678-0.37-0.957-0.244-0.279-0.546-0.444-0.906-0.495v-0.011c0.455-0.066 0.815-0.262 1.084-0.588 0.268-0.327 0.401-0.743 0.401-1.248 0-0.661-0.268-1.17-0.803-1.53-0.463-0.315-1.07-0.472-1.826-0.472-0.674 0-1.299 0.047-1.869 0.142" fill="#004f53"/>
    </g>
    <g transform="translate(329.46 8636.9)">
     <path d="m0 0c0.682 0 1.195 0.282 1.539 0.847 0.287 0.469 0.43 1.085 0.43 1.847 0 0.888-0.188 1.581-0.561 2.079-0.346 0.462-0.814 0.694-1.408 0.694-0.676 0-1.187-0.297-1.541-0.891-0.285-0.484-0.428-1.111-0.428-1.882 0-0.88 0.188-1.557 0.561-2.034 0.344-0.44 0.814-0.66 1.408-0.66m0-0.88c-1.033 0-1.83 0.406-2.387 1.221-0.441 0.645-0.66 1.43-0.66 2.353 0 1.086 0.289 1.973 0.869 2.662 0.549 0.661 1.276 0.991 2.178 0.991 1.027 0 1.822-0.422 2.387-1.265 0.439-0.66 0.66-1.456 0.66-2.388 0-1.077-0.289-1.95-0.869-2.617-0.551-0.639-1.276-0.957-2.178-0.957" fill="#004f53"/>
    </g>
    <g transform="translate(339.97 8639)">
     <path d="m0 0c0-2.031-0.85-3.047-2.551-3.047s-2.553 1.016-2.553 3.047v4.048h1.036v-4.279c0-1.291 0.505-1.936 1.517-1.936s1.518 0.645 1.518 1.936v4.279h1.033z" fill="#004f53"/>
    </g>
    <g transform="translate(344.14 8642.2)">
     <path d="m0 0h-2.09v0.847h5.367v-0.847h-2.256v-6.116h-1.021z" fill="#004f53"/>
    </g>
    <g transform="translate(1055 8636.8)">
     <path d="m0 0c-0.616-0.535-1.287-0.803-2.014-0.803-1.055 0-1.873 0.407-2.452 1.221-0.455 0.645-0.682 1.419-0.682 2.321 0 1.027 0.282 1.904 0.847 2.629 0.557 0.704 1.265 1.057 2.122 1.057 0.763 0 1.46-0.254 2.091-0.76l-0.407-0.615c-0.499 0.329-0.994 0.494-1.485 0.494-0.667 0-1.192-0.274-1.574-0.824-0.344-0.499-0.516-1.159-0.516-1.981 0-0.813 0.216-1.467 0.649-1.958 0.396-0.455 0.909-0.681 1.54-0.681 0.477 0 0.968 0.171 1.474 0.516z" fill="#004f53"/>
    </g>
    <g transform="translate(1060 8636.9)">
     <path d="m0 0c0.683 0 1.195 0.282 1.54 0.848 0.286 0.468 0.43 1.085 0.43 1.847 0 0.887-0.188 1.58-0.562 2.079-0.345 0.462-0.813 0.693-1.408 0.693-0.675 0-1.187-0.297-1.54-0.891-0.285-0.484-0.429-1.111-0.429-1.881 0-0.88 0.188-1.558 0.562-2.035 0.344-0.44 0.813-0.66 1.407-0.66m0-0.88c-1.033 0-1.829 0.407-2.387 1.221-0.44 0.645-0.66 1.43-0.66 2.354 0 1.085 0.29 1.973 0.869 2.662 0.55 0.661 1.277 0.991 2.178 0.991 1.027 0 1.822-0.422 2.388-1.266 0.439-0.66 0.659-1.456 0.659-2.387 0-1.078-0.289-1.951-0.868-2.618-0.551-0.638-1.277-0.957-2.179-0.957" fill="#004f53"/>
    </g>
    <g transform="translate(1066.4 8641.8)">
     <path d="m0 0v-5.731h-1.012v6.962h1.298c0.565-1.172 1.158-2.779 1.782-4.817 0.139-0.455 0.245-0.804 0.319-1.045 0.066 0.212 0.139 0.447 0.22 0.704 0.689 2.199 1.32 3.919 1.892 5.158h1.309v-6.962h-1.023v5.752c-0.286-1.019-0.946-2.936-1.98-5.752h-0.814c-0.33 0.77-0.706 1.765-1.128 2.986-0.422 1.222-0.709 2.136-0.863 2.745" fill="#004f53"/>
    </g>
    <g transform="translate(1076 8641.8)">
     <path d="m0 0v-5.731h-1.012v6.962h1.298c0.565-1.172 1.158-2.779 1.782-4.817 0.139-0.455 0.245-0.804 0.319-1.045 0.066 0.212 0.139 0.447 0.22 0.704 0.689 2.199 1.32 3.919 1.892 5.158h1.309v-6.962h-1.023v5.752c-0.286-1.019-0.946-2.936-1.98-5.752h-0.814c-0.33 0.77-0.706 1.765-1.128 2.986-0.422 1.222-0.709 2.136-0.863 2.745" fill="#004f53"/>
    </g>
    <g transform="translate(1089.7 8639)">
     <path d="m0 0c0-2.031-0.851-3.047-2.552-3.047s-2.552 1.016-2.552 3.047v4.048h1.035v-4.278c0-1.291 0.506-1.937 1.517-1.937 1.012 0 1.518 0.646 1.518 1.937v4.278h1.034z" fill="#004f53"/>
    </g>
    <g transform="translate(1093.5 8641.4)">
     <path d="m0 0v-5.27h-1.012v6.963h0.891c1.467-2.126 2.643-3.922 3.531-5.389v5.389h1.023v-6.963h-0.912c-0.749 1.035-1.922 2.791-3.521 5.27" fill="#004f53"/>
    </g>
    <path d="m1101.8 8636.1h-1.012v6.963h1.012z" fill="#004f53"/>
    <g transform="translate(1106 8642.2)">
     <path d="m0 0h-2.09v0.847h5.367v-0.847h-2.255v-6.116h-1.022z" fill="#004f53"/>
    </g>
    <g transform="translate(1110.5 8643.1)">
     <path d="m0 0h1.089l1.782-3.388 1.771 3.388h1.089l-2.354-4.224v-2.739h-1.012v2.739z" fill="#004f53"/>
    </g>
    <g transform="translate(750.83 8636.1)">
     <path d="m0 0v6.963h4.246v-0.847h-3.224v-2.091h2.707v-0.846h-2.707v-3.179z" fill="#004f53"/>
    </g>
    <g transform="translate(759.12 8641.8)">
     <path d="m0 0-1.133-3.311h2.266zm-0.484 1.232h0.968l2.519-6.962h-1.045l-0.528 1.572h-2.849l-0.539-1.572h-1.045z" fill="#004f53"/>
    </g>
    <g transform="translate(764.52 8639.5)">
     <path d="m0 0c0-0.88 0.187-1.559 0.562-2.035 0.343-0.433 0.813-0.649 1.407-0.649 0.682 0 1.195 0.279 1.54 0.836 0.286 0.469 0.429 1.085 0.429 1.848 0 0.888-0.187 1.584-0.561 2.09-0.345 0.462-0.814 0.693-1.408 0.693-0.675 0-1.188-0.297-1.54-0.89-0.285-0.493-0.429-1.122-0.429-1.893m2.651-3.487c-0.242-0.051-0.469-0.076-0.682-0.076-1.033 0-1.829 0.402-2.387 1.209-0.44 0.645-0.66 1.43-0.66 2.354 0 1.101 0.293 1.995 0.88 2.685 0.557 0.652 1.28 0.978 2.167 0.978 1.027 0 1.822-0.422 2.387-1.265 0.44-0.668 0.66-1.466 0.66-2.398 0-0.704-0.134-1.336-0.402-1.897-0.267-0.561-0.635-0.985-1.105-1.271l1.364-1.441h-1.187z" fill="#004f53"/>
    </g>
    <g transform="translate(848.24 8641)">
     <path d="m0 0-1.133-3.311h2.266zm-0.484 1.232h0.968l2.52-6.962h-1.045l-0.529 1.572h-2.848l-0.539-1.572h-1.045z" fill="#004f53"/>
    </g>
    <path d="m854.24 8635.3h-1.012v6.963h1.012z" fill="#004f53"/>
    <g transform="translate(858.06 8641.5)">
     <path d="m0 0v-2.574c0.293-0.052 0.568-0.077 0.824-0.077 0.924 0 1.387 0.468 1.387 1.408 0 0.88-0.467 1.319-1.397 1.319-0.337 0-0.609-0.025-0.814-0.076m-1.023-6.204v6.952c0.644 0.095 1.24 0.143 1.783 0.143 1.685 0 2.529-0.711 2.529-2.134 0-0.924-0.381-1.577-1.144-1.958l1.386-3.003h-1.035l-1.254 2.75c-0.096-0.015-0.234-0.023-0.418-0.023-0.256 0-0.531 0.026-0.824 0.078v-2.805z" fill="#004f53"/>
    </g>
    <g transform="translate(864.7 8636)">
     <path d="m0 0c0.236-0.052 0.5-0.077 0.793-0.077 0.828 0 1.455 0.264 1.881 0.792 0.389 0.484 0.582 1.162 0.582 2.035 0 0.938-0.27 1.657-0.813 2.156-0.441 0.41-1.002 0.615-1.683 0.615-0.301 0-0.555-0.025-0.76-0.076zm-1.021 6.193c0.548 0.095 1.132 0.143 1.748 0.143 1.21 0 2.138-0.363 2.783-1.089 0.551-0.616 0.824-1.434 0.824-2.453 0-1.239-0.344-2.182-1.033-2.827-0.61-0.572-1.446-0.858-2.508-0.858-0.66 0-1.266 0.048-1.814 0.143z" fill="#004f53"/>
    </g>
    <g transform="translate(872.41 8641.5)">
     <path d="m0 0v-2.574c0.295-0.052 0.568-0.077 0.826-0.077 0.924 0 1.385 0.468 1.385 1.408 0 0.88-0.465 1.319-1.397 1.319-0.337 0-0.609-0.025-0.814-0.076m-1.021-6.204v6.952c0.644 0.095 1.238 0.143 1.781 0.143 1.687 0 2.529-0.711 2.529-2.134 0-0.924-0.381-1.577-1.143-1.958l1.385-3.003h-1.033l-1.254 2.75c-0.096-0.015-0.234-0.023-0.418-0.023-0.258 0-0.531 0.026-0.826 0.078v-2.805z" fill="#004f53"/>
    </g>
    <g transform="translate(880.64 8636)">
     <path d="m0 0c0.684 0 1.195 0.282 1.541 0.847 0.285 0.469 0.43 1.085 0.43 1.847 0 0.888-0.188 1.581-0.563 2.079-0.344 0.462-0.812 0.694-1.408 0.694-0.674 0-1.187-0.297-1.539-0.891-0.285-0.484-0.43-1.111-0.43-1.882 0-0.88 0.188-1.557 0.563-2.034 0.344-0.44 0.812-0.66 1.406-0.66m0-0.88c-1.033 0-1.828 0.406-2.387 1.221-0.439 0.645-0.66 1.43-0.66 2.353 0 1.086 0.291 1.973 0.869 2.662 0.551 0.661 1.278 0.991 2.178 0.991 1.027 0 1.822-0.422 2.389-1.265 0.439-0.66 0.658-1.456 0.658-2.388 0-1.077-0.289-1.95-0.867-2.617-0.551-0.639-1.278-0.957-2.18-0.957" fill="#004f53"/>
    </g>
    <g transform="translate(887.07 8641.5)">
     <path d="m0 0v-2.574c0.293-0.052 0.598-0.077 0.912-0.077 0.865 0 1.299 0.468 1.299 1.408 0 0.88-0.467 1.319-1.397 1.319-0.337 0-0.609-0.025-0.814-0.076m-1.023-6.204v6.952c0.644 0.095 1.24 0.143 1.783 0.143 1.685 0 2.529-0.711 2.529-2.134 0-0.771-0.258-1.354-0.769-1.749-0.418-0.323-0.956-0.485-1.608-0.485-0.314 0-0.619 0.026-0.912 0.078v-2.805z" fill="#004f53"/>
    </g>
    <g transform="translate(956.96 8641.4)">
     <path d="m0 0h-2.09v0.847h5.367v-0.847h-2.255v-6.116h-1.022z" fill="#004f53"/>
    </g>
    <g transform="translate(964.72 8636)">
     <path d="m0 0c0.683 0 1.195 0.282 1.54 0.847 0.286 0.469 0.43 1.085 0.43 1.847 0 0.888-0.188 1.581-0.562 2.079-0.345 0.462-0.813 0.694-1.408 0.694-0.675 0-1.187-0.297-1.54-0.891-0.285-0.484-0.429-1.111-0.429-1.882 0-0.88 0.188-1.557 0.562-2.034 0.344-0.44 0.813-0.66 1.407-0.66m0-0.88c-1.033 0-1.829 0.406-2.387 1.221-0.44 0.645-0.66 1.43-0.66 2.353 0 1.086 0.29 1.973 0.869 2.662 0.55 0.661 1.277 0.991 2.178 0.991 1.027 0 1.822-0.422 2.388-1.265 0.439-0.66 0.659-1.456 0.659-2.388 0-1.077-0.289-1.95-0.868-2.617-0.551-0.639-1.277-0.957-2.179-0.957" fill="#004f53"/>
    </g>
    <g transform="translate(971.11 8638.7)">
     <path d="m0 0v-3.388h-0.99v6.963h0.99v-3.003h0.011l2.409 3.003h1.242l-2.683-3.278 2.925-3.685h-1.331l-2.562 3.388z" fill="#004f53"/>
    </g>
    <g transform="translate(976.9 8642.3)">
     <path d="m0 0h4.246v-0.847h-3.224v-2.079h2.707v-0.847h-2.707v-2.343h3.367v-0.847h-4.389z" fill="#004f53"/>
    </g>
    <g transform="translate(984.61 8640.6)">
     <path d="m0 0v-5.269h-1.012v6.963h0.891c1.467-2.127 2.643-3.923 3.531-5.39v5.39h1.023v-6.963h-0.912c-0.749 1.035-1.922 2.79-3.521 5.269" fill="#004f53"/>
    </g>
    <g transform="translate(995.28 8641.1)">
     <path d="m0 0c-0.499 0.249-1.001 0.374-1.507 0.374-0.359 0-0.652-0.082-0.88-0.247-0.227-0.165-0.341-0.376-0.341-0.633 0-0.462 0.304-0.806 0.914-1.034 0.909-0.337 1.553-0.691 1.935-1.062 0.381-0.37 0.572-0.826 0.572-1.369 0-0.66-0.253-1.176-0.758-1.55-0.412-0.309-0.921-0.462-1.53-0.462-0.726 0-1.481 0.249-2.266 0.748l0.44 0.627c0.491-0.301 1.064-0.452 1.716-0.452 0.894 0 1.342 0.377 1.342 1.133 0 0.587-0.377 1.008-1.133 1.265-0.792 0.271-1.365 0.572-1.722 0.902-0.355 0.33-0.533 0.73-0.533 1.199 0 0.557 0.217 1.004 0.649 1.342 0.396 0.308 0.916 0.462 1.562 0.462 0.727 0 1.386-0.205 1.98-0.616z" fill="#004f53"/>
    </g>
   </g>
  </g>
  <g transform="matrix(.35278 0 0 -.35278 -312.26 2610.4)">
   <g clip-path="url(#clipPath2232)">
    <g transform="translate(966.66 6516.4)">
     <path d="m0 0c-0.641 0-1.161-0.519-1.161-1.16s0.52-1.161 1.161-1.161c14.44 0 26.188-11.747 26.188-26.188 0-14.44-11.748-26.188-26.188-26.188-14.441 0-26.188 11.747-26.188 26.188 0 9.825 5.423 18.74 14.151 23.265 0.57 0.295 0.792 0.996 0.497 1.564-0.295 0.57-0.995 0.791-1.564 0.496-9.503-4.926-15.405-14.63-15.405-25.325 0-15.72 12.789-28.509 28.509-28.509s28.509 12.789 28.509 28.509-12.789 28.509-28.509 28.509" fill="#202340"/>
    </g>
    <g transform="translate(966.66 6516.4)">
     <path d="m0 0c-0.641 0-1.161-0.519-1.161-1.16s0.52-1.161 1.161-1.161c14.44 0 26.188-11.747 26.188-26.188 0-14.44-11.748-26.188-26.188-26.188-14.441 0-26.188 11.747-26.188 26.188 0 9.825 5.423 18.74 14.151 23.265 0.57 0.295 0.792 0.996 0.497 1.564-0.295 0.57-0.995 0.791-1.564 0.496-9.503-4.926-15.405-14.63-15.405-25.325 0-15.72 12.789-28.509 28.509-28.509s28.509 12.789 28.509 28.509-12.789 28.509-28.509 28.509z" fill="none" stroke="#202340"/>
    </g>
    <g transform="translate(977.84 6502.6)">
     <path d="m0 0c-3.235 2.464-7.1 3.768-11.176 3.768-10.177 0-18.455-8.279-18.455-18.456 0-10.176 8.278-18.454 18.455-18.454 4.929 0 9.563 1.92 13.049 5.405 0.453 0.453 0.453 1.188 0 1.641s-1.188 0.453-1.641 0c-3.047-3.047-7.099-4.725-11.408-4.725-8.897 0-16.135 7.237-16.135 16.133 0 8.897 7.238 16.134 16.135 16.134 7.134 0 13.506-4.779 15.495-11.623 0.178-0.615 0.822-0.969 1.438-0.79 0.615 0.179 0.969 0.822 0.79 1.438-1.092 3.759-3.418 7.144-6.547 9.529" fill="#202340"/>
    </g>
    <g transform="translate(977.84 6502.6)">
     <path d="m0 0c-3.235 2.464-7.1 3.768-11.176 3.768-10.177 0-18.455-8.279-18.455-18.456 0-10.176 8.278-18.454 18.455-18.454 4.929 0 9.563 1.92 13.049 5.405 0.453 0.453 0.453 1.188 0 1.641s-1.188 0.453-1.641 0c-3.047-3.047-7.099-4.725-11.408-4.725-8.897 0-16.135 7.237-16.135 16.133 0 8.897 7.238 16.134 16.135 16.134 7.134 0 13.506-4.779 15.495-11.623 0.178-0.615 0.822-0.969 1.438-0.79 0.615 0.179 0.969 0.822 0.79 1.438-1.092 3.759-3.418 7.144-6.547 9.529z" fill="none" stroke="#202340"/>
    </g>
    <g transform="translate(980.27 6491.4)">
     <path d="m0 0c-0.453 0.453-1.188 0.453-1.641 0s-0.453-1.188 0-1.641l4.365-4.364c0.217-0.219 0.512-0.34 0.82-0.34s0.603 0.121 0.82 0.34l4.366 4.364c0.453 0.453 0.453 1.188 0 1.641-0.454 0.453-1.188 0.453-1.641 0l-3.545-3.543z" fill="#202340"/>
    </g>
    <g transform="translate(980.27 6491.4)">
     <path d="m0 0c-0.453 0.453-1.188 0.453-1.641 0s-0.453-1.188 0-1.641l4.365-4.364c0.217-0.219 0.512-0.34 0.82-0.34s0.603 0.121 0.82 0.34l4.366 4.364c0.453 0.453 0.453 1.188 0 1.641-0.454 0.453-1.188 0.453-1.641 0l-3.545-3.543z" fill="none" stroke="#202340"/>
    </g>
    <g transform="translate(1081.9 6487.9)">
     <path d="m0 0c0-63.656-51.603-115.26-115.26-115.26s-115.26 51.603-115.26 115.26c0 63.655 51.603 115.26 115.26 115.26s115.26-51.604 115.26-115.26z" fill="none" stroke="#202340" stroke-dasharray="8.047, 8.047" stroke-linecap="round" stroke-linejoin="round" stroke-width="4"/>
    </g>
    <g transform="translate(894.94 6487.7)">
     <path d="m0 0c0-20.924-16.963-37.887-37.888-37.887-20.924 0-37.887 16.963-37.887 37.887 0 20.925 16.963 37.888 37.887 37.888 20.925 0 37.888-16.963 37.888-37.888" fill="#2da868"/>
    </g>
    <g transform="translate(867.22 6454.5)">
     <path d="m0 0c1.281 1.474 2.526 3.17 3.685 5.049 1.478 2.397 2.757 4.995 3.829 7.743h10.957c-0.997-1.319-2.09-2.579-3.279-3.769-4.302-4.301-9.51-7.367-15.192-9.023m-38.545 12.792h10.957c1.072-2.748 2.351-5.345 3.829-7.742 1.159-1.88 2.404-3.575 3.685-5.05-5.682 1.656-10.89 4.722-15.192 9.023-1.189 1.19-2.282 2.45-3.279 3.769m18.471 55.712c-1.281-1.474-2.526-3.17-3.685-5.049-1.478-2.397-2.757-4.996-3.829-7.742h-10.957c0.997 1.318 2.09 2.579 3.279 3.767 4.302 4.302 9.51 7.368 15.192 9.024m38.545-12.791h-10.957c-1.072 2.746-2.351 5.345-3.829 7.742-1.159 1.879-2.404 3.575-3.685 5.049 5.682-1.656 10.89-4.722 15.192-9.024 1.189-1.188 2.282-2.449 3.279-3.767m-7.096-23.868h14.185c-0.333-5.033-1.708-9.864-4.022-14.24h-12.404c1.29 4.514 2.053 9.323 2.241 14.24m-19.005-14.24v14.24h14.188c-0.205-4.957-1.039-9.78-2.446-14.24zm0-18.063v13.25h9.939c-0.803-1.832-1.711-3.577-2.722-5.216-2.519-4.086-5.212-6.722-7.217-8.034m-4.814 13.25v-13.25c-2.005 1.312-4.698 3.948-7.217 8.034-1.011 1.639-1.919 3.384-2.722 5.216zm-14.189 19.053h14.189v-14.24h-11.742c-1.407 4.46-2.241 9.283-2.447 14.24m-4.817 4.814h-14.184c0.333 5.033 1.708 9.863 4.022 14.24h12.403c-1.289-4.514-2.052-9.323-2.241-14.24m19.006 14.24v-14.24h-14.189c0.205 4.958 1.04 9.78 2.447 14.24zm0 18.063v-13.249h-9.939c0.803 1.831 1.711 3.577 2.722 5.215 2.519 4.086 5.212 6.722 7.217 8.034m4.814-13.249v13.249c2.005-1.312 4.698-3.948 7.217-8.034 1.011-1.638 1.919-3.384 2.722-5.215zm14.188-19.054h-14.188v14.24h11.742c1.407-4.46 2.241-9.282 2.446-14.24m19.002 0h-14.185c-0.188 4.917-0.951 9.726-2.241 14.24h12.404c2.314-4.377 3.689-9.207 4.022-14.24m-71.194-4.814h14.184c0.189-4.917 0.952-9.726 2.241-14.24h-12.403c-2.314 4.376-3.689 9.207-4.022 14.24m76.089 2.407c0 10.816-4.212 20.984-11.86 28.632-7.518 7.519-17.473 11.714-28.084 11.854-0.185 0.017-0.368 0.029-0.548 0.029s-0.364-0.012-0.548-0.029c-10.611-0.14-20.566-4.335-28.085-11.853-7.648-7.649-11.859-17.817-11.859-28.633 0-10.815 4.211-20.984 11.86-28.632 7.518-7.519 17.473-11.714 28.084-11.853 0.185-0.017 0.368-0.029 0.548-0.029s0.363 0.012 0.548 0.029c10.611 0.139 20.566 4.334 28.085 11.853 7.647 7.648 11.859 17.816 11.859 28.632" fill="#202340"/>
    </g>
    <path d="m1106.2 6450.4h-59.946v76.547h59.946z" fill="#2da868"/>
    <path d="m1103.6 6453.3h-55.696v70.911h55.696zm-58.956-3.261h62.217v77.431h-62.217z" fill="#202340"/>
    <g transform="translate(1061.9 6517.5)">
     <path d="m0 0v-9.76h9.761c-0.76-3.794-4.116-6.662-8.131-6.662-4.572 0-8.291 3.72-8.291 8.292 0 4.013 2.867 7.37 6.661 8.13m9.761-6.5h-6.501v6.5c3.268-0.655 5.847-3.233 6.501-6.5m-8.131-13.182c6.371 0 11.553 5.182 11.553 11.552s-5.182 11.552-11.553 11.552c-6.37 0-11.552-5.182-11.552-11.552s5.182-11.552 11.552-11.552" fill="#202340"/>
    </g>
    <g fill="#202340">
     <path d="m1082.1 6520.9h16.301v-3.26h-16.301z"/>
     <path d="m1082.1 6510.8h16.301v-3.26h-16.301z"/>
     <path d="m1082.1 6500.7h16.301v-3.26h-16.301z"/>
     <path d="m1051.8 6490.6h46.598v-3.26h-46.598z"/>
     <path d="m1097.4 6463.1h-22.347v15.962h22.347zm-43.339 15.962h17.731v-15.963h-17.731zm46.599 3.26h-49.859v-22.483h49.859z"/>
    </g>
    <g transform="translate(981.19 6635.9)">
     <path d="m0 0-47.172-0.525-0.476-62.155 9.59 0.533-1.269-7.437 48.138-1.062v19.632l10.293 12.489s8.211 8.255-0.82 8.255c-6.375-2.656-10.476-7.129-10.476-7.129l2.507 18.286-7.438 6.906z" fill="#2da868"/>
    </g>
    <g transform="translate(936.36 6633.3)">
     <path d="m0 0h44.038v-4.551h-37.432c-1.216 0-2.202-0.986-2.202-2.201v-50.644h-4.404zm52.201-15.827c0.416-0.416 0.645-0.969 0.645-1.557v-0.378h-8.807v8.807h0.377c0.588 0 1.141-0.229 1.557-0.644zm13.493-15.382c0.858-0.859 0.858-2.256-5e-3 -3.12l-1.547-1.557-3.114 3.114 1.552 1.563c0.858 0.858 2.256 0.858 3.114 0m-24.324-21.354 0.842 0.848c0.675-0.323 1.296-0.758 1.831-1.292 0.531-0.532 0.965-1.149 1.286-1.819l-0.847-0.853-4.082-0.96zm7.174 0.974c-0.403 0.607-0.868 1.176-1.387 1.695-0.531 0.531-1.112 1.003-1.733 1.412 0.798 0.804 11.701 11.781 12.501 12.586l3.114-3.114zm4.302-14.762h-44.038v57.396h30.827v-11.009c0-1.216 0.985-2.202 2.201-2.202h11.01v-12.594l-15.037-15.139c-0.285-0.287-0.486-0.648-0.579-1.041l-1.939-8.149c-0.381-1.598 1.06-3.026 2.646-2.653l8.167 1.92c0.401 0.094 0.768 0.3 1.058 0.592 0.599 0.603 5.085 5.12 5.684 5.723zm-55.048 4.551h6.606v-6.753c0-1.216 0.986-2.202 2.202-2.202h48.442c1.216 0 2.202 0.986 2.202 2.202v19.479l11.558 11.636c2.575 2.576 2.575 6.767 0 9.343-2.576 2.575-6.767 2.575-9.348-6e-3l-2.21-2.225v12.942c0 1.764-0.687 3.423-1.935 4.671l-6.228 6.228c-0.204 0.204-0.42 0.391-0.645 0.565v8.122c0 1.216-0.986 2.202-2.202 2.202h-48.442c-1.216 0-2.202-0.986-2.202-2.202v-61.801c0-1.215 0.986-2.201 2.202-2.201" fill="#202340"/>
    </g>
    <g transform="translate(951.77 6615.5)">
     <path d="m0 0h17.615c1.216 0 2.202 0.986 2.202 2.202s-0.986 2.202-2.202 2.202h-17.615c-1.216 0-2.202-0.986-2.202-2.202s0.986-2.202 2.202-2.202" fill="#202340"/>
    </g>
    <g transform="translate(951.77 6606.7)">
     <path d="m0 0h17.615c1.216 0 2.202 0.986 2.202 2.202s-0.986 2.202-2.202 2.202h-17.615c-1.216 0-2.202-0.986-2.202-2.202s0.986-2.202 2.202-2.202" fill="#202340"/>
    </g>
    <g transform="translate(951.77 6597.9)">
     <path d="m0 0h30.827c1.216 0 2.202 0.986 2.202 2.202s-0.986 2.202-2.202 2.202h-30.827c-1.216 0-2.202-0.986-2.202-2.202s0.986-2.202 2.202-2.202" fill="#202340"/>
    </g>
    <g transform="translate(967.83 6588.4)">
     <path d="m0 0-11.655-11.655-2.847 2.847c-0.859 0.86-2.254 0.86-3.113 0-0.86-0.859-0.86-2.254 0-3.114l4.403-4.404c0.86-0.86 2.255-0.86 3.114 0l13.212 13.212c0.86 0.86 0.86 2.254 0 3.114s-2.254 0.86-3.114 0" fill="#202340"/>
    </g>
    <g transform="translate(969.74 6332.1)">
     <path d="m0 0c-0.631 0-1.262 0.122-1.862 0.366-9.693 3.945-17.955 10.609-23.892 19.272-6.08 8.872-9.294 19.269-9.294 30.066v23.331c0 2.168 1.452 4.111 3.532 4.724l28.172 8.308c2.188 0.646 4.501 0.646 6.688 0l28.172-8.308c2.08-0.613 3.532-2.556 3.532-4.724v-23.331c0-10.797-3.214-21.194-9.295-30.066-5.936-8.663-14.198-15.327-23.891-19.272-0.6-0.244-1.231-0.366-1.862-0.366" fill="#2da868"/>
    </g>
    <g transform="translate(949.03 6398)">
     <path d="m0 0v-16.154c0-8.099 2.449-15.867 7.081-22.462 3.493-4.972 8.124-9.101 13.417-11.968 5.293 2.867 9.923 6.996 13.416 11.968 4.632 6.595 7.081 14.363 7.081 22.462v16.154l-20.497 6.045zm20.498-54.755c-0.482 0-0.963 0.114-1.402 0.344-6.057 3.172-11.353 7.831-15.317 13.475-5.113 7.278-7.815 15.848-7.815 24.782v16.908c0 1.333 0.893 2.527 2.171 2.904l21.506 6.343c0.561 0.165 1.152 0.165 1.713 0l21.506-6.343c1.279-0.377 2.171-1.571 2.171-2.904v-16.908c0-8.934-2.702-17.504-7.815-24.782-3.964-5.643-9.26-10.303-15.317-13.475-0.439-0.23-0.92-0.344-1.401-0.344" fill="#202340"/>
    </g>
    <g transform="translate(969.53 6415.6)">
     <path d="m0 0c-0.768 0-1.537-0.11-2.284-0.33l-28.856-8.511c-0.426-0.125-0.724-0.523-0.724-0.968v-23.897c0-10.242 3.048-20.102 8.814-28.515 5.632-8.219 13.47-14.542 22.664-18.283 0.249-0.101 0.523-0.101 0.772 0 9.194 3.741 17.032 10.064 22.664 18.283 5.766 8.413 8.814 18.273 8.814 28.515v23.897c0 0.445-0.298 0.843-0.724 0.968l-28.857 8.51c-0.747 0.221-1.515 0.331-2.283 0.331m0-84.619c-0.646 0-1.292 0.126-1.908 0.376-9.928 4.04-18.391 10.867-24.472 19.74-6.228 9.087-9.52 19.737-9.52 30.797v23.897c0 2.222 1.488 4.212 3.618 4.84l28.857 8.51c2.241 0.661 4.61 0.661 6.85 0l28.857-8.51c2.13-0.628 3.618-2.618 3.618-4.84v-23.897c0-11.06-3.292-21.71-9.521-30.797-6.081-8.874-14.543-15.7-24.472-19.74-0.615-0.25-1.261-0.376-1.907-0.376" fill="#202340"/>
    </g>
    <g transform="translate(949.03 6398)">
     <path d="m0 0v-16.154c0-8.099 2.449-15.867 7.081-22.462 3.493-4.972 8.124-9.101 13.417-11.968 5.293 2.867 9.923 6.996 13.416 11.968 4.632 6.595 7.081 14.363 7.081 22.462v16.154l-20.497 6.045zm20.498-54.755c-0.482 0-0.963 0.114-1.402 0.344-6.057 3.172-11.353 7.831-15.317 13.475-5.113 7.278-7.815 15.848-7.815 24.782v16.908c0 1.333 0.893 2.527 2.171 2.904l21.506 6.343c0.561 0.165 1.152 0.165 1.713 0l21.506-6.343c1.279-0.377 2.171-1.571 2.171-2.904v-16.908c0-8.934-2.702-17.504-7.815-24.782-3.964-5.643-9.26-10.303-15.317-13.475-0.439-0.23-0.92-0.344-1.401-0.344" fill="#202340"/>
    </g>
   </g>
  </g>
 </g>
</svg>
