<?xml version="1.0" encoding="UTF-8"?>
<!-- Created with Inkscape (http://www.inkscape.org/) -->
<svg width="6.8199mm" height="6.8199mm" version="1.1" viewBox="0 0 6.8199 6.8199" xmlns="http://www.w3.org/2000/svg" xmlns:cc="http://creativecommons.org/ns#" xmlns:dc="http://purl.org/dc/elements/1.1/" xmlns:rdf="http://www.w3.org/1999/02/22-rdf-syntax-ns#">
 <metadata>
  <rdf:RDF>
   <cc:Work rdf:about="">
    <dc:format>image/svg+xml</dc:format>
    <dc:type rdf:resource="http://purl.org/dc/dcmitype/StillImage"/>
    <dc:title/>
   </cc:Work>
  </rdf:RDF>
 </metadata>
 <g transform="translate(-4.2441 -305.07)">
  <path d="m7.6604 307.14c-0.75636 0-1.3698 0.59408-1.3698 1.3272s0.61348 1.3275 1.3698 1.3275c0.75636 0 1.3698-0.59443 1.3698-1.3275s-0.61313-1.3272-1.3698-1.3272m2.6328 0.81598h-0.60043c0.056797 0.18556 0.087489 0.38205 0.087489 0.58525 0 1.1345-0.94897 2.0542-2.1198 2.0542-1.1709 0-2.1198-0.91969-2.1198-2.0542 0-0.2032 0.030692-0.39969 0.087489-0.58525h-0.62618v2.8811c0 0.14923 0.12206 0.27129 0.27129 0.27129h4.7487c0.14958 0 0.27129-0.12206 0.27129-0.27129zm-1.0813-2.1262c-0.16898 0-0.30692 0.13794-0.30692 0.30692v0.73519c0 0.16898 0.13794 0.30692 0.30692 0.30692h0.77117c0.16863 0 0.30656-0.13794 0.30656-0.30692v-0.73519c0-0.16898-0.13794-0.30692-0.30656-0.30692zm-4.0926-0.75776h5.0691c0.48154 0 0.8756 0.3563 0.8756 0.87524v5.0694c0 0.51893-0.39405 0.87524-0.8756 0.87524h-5.0691c-0.48154 0-0.87524-0.35631-0.87524-0.87524v-5.0694c0-0.51894 0.3937-0.87524 0.87524-0.87524" fill="#fff" fill-rule="evenodd" opacity=".3"/>
 </g>
</svg>
