<?xml version="1.0" encoding="UTF-8"?>
<!-- Created with Inkscape (http://www.inkscape.org/) -->
<svg width="5.9365mm" height="5.1688mm" version="1.1" viewBox="0 0 5.9365 5.1688" xmlns="http://www.w3.org/2000/svg" xmlns:cc="http://creativecommons.org/ns#" xmlns:dc="http://purl.org/dc/elements/1.1/" xmlns:rdf="http://www.w3.org/1999/02/22-rdf-syntax-ns#">
 <metadata>
  <rdf:RDF>
   <cc:Work rdf:about="">
    <dc:format>image/svg+xml</dc:format>
    <dc:type rdf:resource="http://purl.org/dc/dcmitype/StillImage"/>
    <dc:title/>
   </cc:Work>
  </rdf:RDF>
 </metadata>
 <g transform="translate(19.127 -253.17)">
  <path d="m-17.21 255.89 2.6734-1.6464c0.04798-0.0296 0.09737 0.0353 0.05609 0.0737l-2.2063 2.0507c-0.07761 0.0723-0.12735 0.16898-0.14182 0.27375l-0.07479 0.55704c-0.01023 0.0741-0.11465 0.0815-0.13511 0.01l-0.28892-1.0156c-0.03316-0.11572 0.01482-0.23954 0.11748-0.30269m-1.8122-0.23883 1.3681 0.51047 0.52952 1.7029c0.03387 0.10901 0.16722 0.14922 0.25576 0.0769l0.76235-0.62159c0.08008-0.0649 0.19368-0.0684 0.27728-8e-3l1.3751 0.99871c0.0949 0.0688 0.22895 0.0169 0.25259-0.0977l1.0075-4.8458c0.02611-0.12488-0.09666-0.22931-0.2159-0.18345l-5.6138 2.1657c-0.13864 0.0536-0.13723 0.24976 0.0014 0.30162" fill="#fff" opacity=".8"/>
 </g>
</svg>
