<?xml version="1.0" encoding="UTF-8"?>
<!-- Created with Inkscape (http://www.inkscape.org/) -->
<svg width="7.1822mm" height="7.1822mm" version="1.1" viewBox="0 0 7.1822 7.1822" xmlns="http://www.w3.org/2000/svg" xmlns:cc="http://creativecommons.org/ns#" xmlns:dc="http://purl.org/dc/elements/1.1/" xmlns:rdf="http://www.w3.org/1999/02/22-rdf-syntax-ns#">
 <metadata>
  <rdf:RDF>
   <cc:Work rdf:about="">
    <dc:format>image/svg+xml</dc:format>
    <dc:type rdf:resource="http://purl.org/dc/dcmitype/StillImage"/>
    <dc:title/>
   </cc:Work>
  </rdf:RDF>
 </metadata>
 <g transform="translate(-6.0945 -289.53)">
  <path d="m12.875 289.53h-6.3779c-0.21837 0-0.40217 0.18345-0.40217 0.40217v6.3775c0 0.21872 0.1838 0.40252 0.40217 0.40252h3.3687v-2.6935h-0.89782v-1.257h0.89782v-0.71226c0-0.92604 0.61948-1.4302 1.4453-1.4302 0.39582 0 0.70908 0.0293 0.88865 0.0427v0.96767h-0.55704c-0.44909 0-0.52035 0.21378-0.52035 0.52705v0.60501h0.99695l-0.13935 1.257h-0.8576v2.6935h1.7526c0.21837 0 0.40217-0.1838 0.40217-0.40252v-6.3775c0-0.21872-0.1838-0.40217-0.40217-0.40217" fill="#fff" opacity=".3"/>
 </g>
</svg>
