<?xml version="1.0" encoding="UTF-8"?>
<!-- Created with Inkscape (http://www.inkscape.org/) -->
<svg width="8.3401mm" height="6.778mm" version="1.1" viewBox="0 0 8.3401 6.778" xmlns="http://www.w3.org/2000/svg" xmlns:cc="http://creativecommons.org/ns#" xmlns:dc="http://purl.org/dc/elements/1.1/" xmlns:rdf="http://www.w3.org/1999/02/22-rdf-syntax-ns#">
 <metadata>
  <rdf:RDF>
   <cc:Work rdf:about="">
    <dc:format>image/svg+xml</dc:format>
    <dc:type rdf:resource="http://purl.org/dc/dcmitype/StillImage"/>
    <dc:title/>
   </cc:Work>
  </rdf:RDF>
 </metadata>
 <g transform="translate(-2.6336 -284.92)">
  <path d="m10.974 285.72c-0.30692 0.13618-0.63676 0.2286-0.98284 0.26953 0.35348-0.21167 0.62442-0.54716 0.75247-0.94651-0.33055 0.1958-0.69674 0.33867-1.0866 0.41558-0.31221-0.33303-0.75671-0.54081-1.2488-0.54081-0.94509 0-1.7113 0.76623-1.7113 1.7113 0 0.13441 0.015169 0.26459 0.04445 0.38982-1.422-0.0716-2.6829-0.75247-3.5267-1.7879-0.14746 0.25295-0.23213 0.54646-0.23213 0.86043 0 0.59372 0.30268 1.1172 0.76165 1.4242-0.28046-9e-3 -0.54434-0.0861-0.77505-0.21413v0.0215c0 0.82938 0.58949 1.5205 1.3723 1.6778-0.14358 0.0392-0.29492 0.06-0.4505 0.06-0.11042 0-0.21766-0.0106-0.32244-0.0307 0.21802 0.68015 0.84984 1.1744 1.5988 1.1882-0.58596 0.45932-1.3236 0.73237-2.1251 0.73237-0.13829 0-0.27411-8e-3 -0.40816-0.0236 0.75706 0.48543 1.6566 0.76871 2.6229 0.76871 3.1471 0 4.8683-2.6074 4.8683-4.8683 0-0.0744-0.0014-0.14816-0.0049-0.22119 0.33443-0.2413 0.62442-0.54292 0.85372-0.88618" fill="#fff" opacity=".3"/>
 </g>
</svg>
