<?xml version="1.0" encoding="UTF-8"?>
<!-- Created with Inkscape (http://www.inkscape.org/) -->
<svg width="223.46mm" height="34.436mm" version="1.1" viewBox="0 0 223.46 34.436" xmlns="http://www.w3.org/2000/svg" xmlns:cc="http://creativecommons.org/ns#" xmlns:dc="http://purl.org/dc/elements/1.1/" xmlns:rdf="http://www.w3.org/1999/02/22-rdf-syntax-ns#">
 <defs>
  <clipPath id="clipPath3074">
   <path d="m0 8681.9h1280v-8681.9h-1280z"/>
  </clipPath>
 </defs>
 <metadata>
  <rdf:RDF>
   <cc:Work rdf:about="">
    <dc:format>image/svg+xml</dc:format>
    <dc:type rdf:resource="http://purl.org/dc/dcmitype/StillImage"/>
    <dc:title/>
   </cc:Work>
  </rdf:RDF>
 </metadata>
 <g transform="translate(16.715 -209.86)">
  <g transform="matrix(.35278 0 0 -.35278 -130.53 1722.1)">
   <g clip-path="url(#clipPath3074)">
    <g fill="#2da868">
     <path d="m512.5 4271h-13.73v7.323h13.73z"/>
     <path d="m538.59 4258.8h-13.959v8.924h13.959z"/>
     <path d="m546.83 4233h-13.272v8.467h13.272z"/>
     <path d="m485.96 4258.6h-13.73v9.153h13.73z"/>
     <path d="m477.49 4233.2h-13.501v8.009h13.501z"/>
     <path d="m487.1 4206.9h-14.416v8.695h14.416z"/>
     <path d="m512.73 4200.2h-14.645v8.238h14.645z"/>
     <path d="m538.59 4206.9h-14.417v8.467h14.417z"/>
    </g>
    <g fill="#fff">
     <path d="m465 4240.2h11.569v-5.785h-11.569zm10.123-13.015c0.799 0 1.446 0.648 1.446 1.446 0 0.799-0.647 1.446-1.446 1.446h-2.892v1.447h5.784c0.799 0 1.446 0.647 1.446 1.446v8.677c0 0.798-0.647 1.446-1.446 1.446h-14.461c-0.799 0-1.446-0.648-1.446-1.446v-8.677c0-0.799 0.647-1.446 1.446-1.446h5.784v-1.447h-2.892c-0.798 0-1.446-0.647-1.446-1.446 0-0.798 0.648-1.446 1.446-1.446z"/>
     <path d="m545.98 4234.4h-11.569v5.785h11.569zm1.446 8.677h-14.461c-0.799 0-1.446-0.648-1.446-1.446v-8.677c0-0.799 0.647-1.446 1.446-1.446h5.784v-1.447h-2.892c-0.799 0-1.446-0.647-1.446-1.446 0-0.798 0.647-1.446 1.446-1.446h8.677c0.799 0 1.446 0.648 1.446 1.446 0 0.799-0.647 1.446-1.446 1.446h-2.892v1.447h5.784c0.799 0 1.446 0.647 1.446 1.446v8.677c0 0.798-0.647 1.446-1.446 1.446"/>
     <path d="m525.73 4266.2h11.569v-5.785h-11.569zm-1.446-8.677h5.784v-1.446h-2.892c-0.799 0-1.446-0.647-1.446-1.446s0.647-1.447 1.446-1.447h8.677c0.799 0 1.446 0.648 1.446 1.447s-0.647 1.446-1.446 1.446h-2.892v1.446h5.784c0.799 0 1.446 0.648 1.446 1.446v8.677c0 0.799-0.647 1.446-1.446 1.446h-14.461c-0.799 0-1.446-0.647-1.446-1.446v-8.677c0-0.798 0.647-1.446 1.446-1.446"/>
     <path d="m473.67 4266.2h11.569v-5.785h-11.569zm-1.446-8.677h5.784v-1.446h-2.892c-0.799 0-1.446-0.647-1.446-1.446s0.647-1.447 1.446-1.447h8.677c0.799 0 1.446 0.648 1.446 1.447s-0.647 1.446-1.446 1.446h-2.892v1.446h5.784c0.799 0 1.446 0.648 1.446 1.446v8.677c0 0.799-0.647 1.446-1.446 1.446h-14.461c-0.799 0-1.446-0.647-1.446-1.446v-8.677c0-0.798 0.647-1.446 1.446-1.446"/>
     <path d="m485.24 4208.3h-11.569v5.785h11.569zm1.446 8.677h-14.461c-0.799 0-1.446-0.647-1.446-1.446v-8.677c0-0.799 0.647-1.446 1.446-1.446h5.784v-1.446h-2.892c-0.799 0-1.446-0.647-1.446-1.446s0.647-1.447 1.446-1.447h8.677c0.799 0 1.446 0.648 1.446 1.447s-0.647 1.446-1.446 1.446h-2.892v1.446h5.784c0.799 0 1.446 0.647 1.446 1.446v8.677c0 0.799-0.647 1.446-1.446 1.446"/>
     <path d="m537.3 4208.3h-11.569v5.785h11.569zm1.446 8.677h-14.461c-0.799 0-1.446-0.647-1.446-1.446v-8.677c0-0.799 0.647-1.446 1.446-1.446h5.784v-1.446h-2.892c-0.799 0-1.446-0.647-1.446-1.446s0.647-1.447 1.446-1.447h8.677c0.799 0 1.446 0.648 1.446 1.447s-0.647 1.446-1.446 1.446h-2.892v1.446h5.784c0.799 0 1.446 0.647 1.446 1.446v8.677c0 0.799-0.647 1.446-1.446 1.446"/>
     <path d="m499.7 4277.8h11.569v-5.784h-11.569zm-1.446-8.677h5.785v-1.446h-2.892c-0.799 0-1.447-0.648-1.447-1.446 0-0.799 0.648-1.446 1.447-1.446h8.676c0.799 0 1.447 0.647 1.447 1.446 0 0.798-0.648 1.446-1.447 1.446h-2.892v1.446h5.785c0.798 0 1.446 0.648 1.446 1.446v8.677c0 0.799-0.648 1.447-1.446 1.447h-14.462c-0.798 0-1.446-0.648-1.446-1.447v-8.677c0-0.798 0.648-1.446 1.446-1.446"/>
     <path d="m511.27 4201.1h-11.569v5.785h11.569zm1.446 8.677h-14.462c-0.798 0-1.446-0.647-1.446-1.446v-8.676c0-0.799 0.648-1.447 1.446-1.447h5.785v-1.446h-2.892c-0.799 0-1.447-0.647-1.447-1.446s0.648-1.446 1.447-1.446h8.676c0.799 0 1.447 0.647 1.447 1.446s-0.648 1.446-1.447 1.446h-2.892v1.446h5.785c0.798 0 1.446 0.648 1.446 1.447v8.676c0 0.799-0.648 1.446-1.446 1.446"/>
    </g>
    <g transform="translate(505.49 4225.7)">
     <path d="m0 0c-6.389 3e-3 -11.567 5.185-11.564 11.574 1e-3 2.289 0.681 4.526 1.953 6.427 1.088 1.639 2.583 2.966 4.338 3.853 5.681 2.926 12.657 0.693 15.583-4.987s0.693-12.657-4.988-15.583c-1.645-0.847-3.471-1.288-5.322-1.284m16.93-3.316-5.74 5.74c1.802 2.195 2.915 4.873 3.198 7.699h7.304c0.799 0 1.446 0.648 1.446 1.446 0 0.799-0.647 1.446-1.446 1.446h-7.304c-0.283 2.826-1.396 5.505-3.198 7.699l5.74 5.74c0.555 0.575 0.539 1.49-0.036 2.045-0.56 0.542-1.448 0.542-2.009 0l-5.74-5.74c-2.194 1.803-4.873 2.915-7.699 3.198v8.751c0 0.798-0.647 1.446-1.446 1.446s-1.446-0.648-1.446-1.446v-8.764c-2.826-0.269-5.505-1.382-7.688-3.196l-5.751 5.751c-0.575 0.555-1.49 0.539-2.045-0.036-0.541-0.56-0.541-1.448 0-2.009l5.748-5.748c-0.289-0.357-0.578-0.714-0.837-1.099-1.311-1.971-2.114-4.235-2.337-6.592h-7.336c-0.799 0-1.446-0.647-1.446-1.446 0-0.798 0.647-1.446 1.446-1.446h7.336c0.222-2.355 1.025-4.619 2.336-6.588 0.258-0.387 0.549-0.745 0.838-1.101l-5.748-5.75c-0.574-0.555-0.59-1.47-0.036-2.045 0.555-0.574 1.471-0.59 2.045-0.035 0.012 0.011 0.024 0.023 0.036 0.035l5.751 5.752c2.196-1.803 4.878-2.915 7.705-3.195 0-0.03-0.017-0.056-0.017-0.088v-8.677c0-0.799 0.647-1.446 1.446-1.446s1.446 0.647 1.446 1.446v8.677c0 0.026-0.013 0.047-0.014 0.072 2.83 0.281 5.515 1.394 7.713 3.199l5.74-5.74c0.575-0.555 1.49-0.539 2.045 0.036 0.541 0.56 0.541 1.449 0 2.009" fill="#fff"/>
    </g>
    <g transform="translate(509.83 4232.9)">
     <path d="m0 0h-5.785v2.892h5.785c0.799 0 1.446-0.647 1.446-1.446s-0.647-1.446-1.446-1.446m0 7.23c0-0.798-0.647-1.446-1.446-1.446h-4.339v2.893h4.339c0.799 0 1.446-0.648 1.446-1.447m2.314-2.127c0.375 0.647 0.574 1.38 0.578 2.127 0 2.396-1.942 4.339-4.338 4.339h-1.446v1.446c0 0.799-0.648 1.446-1.446 1.446-0.799 0-1.447-0.647-1.447-1.446v-1.446h-4.338c-0.799 0-1.446-0.648-1.446-1.446 0-0.799 0.647-1.446 1.446-1.446h1.446v-8.677h-1.446c-0.799 0-1.446-0.647-1.446-1.446s0.647-1.447 1.446-1.447h4.338v-1.445c0-0.799 0.648-1.447 1.447-1.447 0.798 0 1.446 0.648 1.446 1.447v1.445h2.892c2.391-5e-3 4.334 1.929 4.34 4.32 3e-3 1.493-0.762 2.882-2.026 3.676" fill="#fff"/>
    </g>
    <g transform="translate(680.91 4263.5)">
     <path d="m0 0c0.068-8e-3 0.135-0.011 0.203-0.011 0.482 0 0.949 0.19 1.293 0.536l9.866 9.865c0.502 0.502 0.668 1.249 0.426 1.917-0.242 0.667-0.848 1.134-1.554 1.199l-7.377 0.671-0.671 7.377c-0.064 0.706-0.532 1.312-1.199 1.553-0.668 0.243-1.415 0.077-1.917-0.426l-9.866-9.865c-0.393-0.393-0.586-0.944-0.524-1.496l0.873-7.86-1.848-1.847c-6.823 6.241-15.772 10.193-25.62 10.631v3.474c0 1.011-0.819 1.83-1.83 1.83-1.01 0-1.83-0.819-1.83-1.83v-3.474c-20.996-0.933-37.905-17.843-38.839-38.839h-3.474c-1.01 0-1.83-0.82-1.83-1.83 0-1.011 0.82-1.83 1.83-1.83h3.474c0.934-20.996 17.843-37.905 38.839-38.839v-3.473c0-1.012 0.82-1.83 1.83-1.83 1.011 0 1.83 0.818 1.83 1.83v3.473c20.995 0.934 37.906 17.843 38.839 38.839h3.474c1.011 0 1.83 0.819 1.83 1.83 0 1.01-0.819 1.83-1.83 1.83h-3.474c-0.437 9.848-4.389 18.798-10.631 25.621l1.848 1.847z" fill="#2da868"/>
    </g>
    <g transform="translate(641.16 4252.9)">
     <path d="m0 0c-9.837 0-17.84-8.003-17.84-17.84s8.003-17.841 17.84-17.841 17.84 8.004 17.84 17.841c0 4.26-1.503 8.176-4.005 11.247l5.518 5.518c3.9-4.496 6.264-10.36 6.264-16.765 0-14.125-11.492-25.617-25.617-25.617s-25.616 11.492-25.616 25.617 11.491 25.617 25.616 25.617c6.405 0 12.269-2.363 16.765-6.264l-5.517-5.518c-3.072 2.502-6.987 4.005-11.248 4.005m-1.294-19.133c0.358-0.358 0.825-0.537 1.293-0.537s0.938 0.179 1.294 0.537l9.937 9.937c1.847-2.396 2.95-5.392 2.95-8.644 0-7.819-6.361-14.181-14.181-14.181-7.819 0-14.181 6.362-14.181 14.181s6.362 14.181 14.181 14.181c3.252 0 6.249-1.103 8.644-2.95l-9.938-9.937c-0.714-0.715-0.714-1.873 1e-3 -2.587m38.301 3.123h-2.578c-1.01 0-1.83-0.82-1.83-1.83 0-1.011 0.82-1.83 1.83-1.83h2.578c-0.928-18.977-16.2-34.25-35.178-35.177v2.578c0 1.01-0.819 1.829-1.829 1.829-1.011 0-1.83-0.819-1.83-1.829v-2.578c-18.978 0.927-34.25 16.2-35.177 35.177h2.577c1.011 0 1.83 0.819 1.83 1.83 0 1.01-0.819 1.83-1.83 1.83h-2.577c0.927 18.978 16.199 34.25 35.177 35.177v-2.578c0-1.009 0.819-1.829 1.829-1.829 1.011 0 1.83 0.82 1.83 1.829v2.578c8.841-0.432 16.875-3.976 23.033-9.558l-5.506-5.505c-5.164 4.561-11.942 7.333-19.357 7.333-16.142 0-29.276-13.134-29.276-29.277s13.134-29.276 29.276-29.276c16.144 0 29.276 13.133 29.276 29.276 0 7.415-2.771 14.193-7.332 19.357l5.507 5.505c5.581-6.157 9.125-14.192 9.557-23.032m1.633 43.926 0.456-5.005c0.08-0.878 0.776-1.576 1.656-1.656l5.004-0.455-6.482-6.481-6.404 0.711-0.712 6.405zm1.105-17.331c0.067-8e-3 0.134-0.011 0.202-0.011 0.483 0 0.949 0.19 1.293 0.536l9.867 9.865c0.501 0.502 0.668 1.249 0.426 1.917-0.242 0.667-0.848 1.134-1.555 1.199l-7.377 0.671-0.671 7.377c-0.064 0.706-0.531 1.312-1.199 1.553-0.667 0.243-1.415 0.077-1.917-0.426l-9.866-9.865c-0.392-0.393-0.585-0.944-0.524-1.496l0.874-7.86-1.848-1.847c-6.823 6.241-15.772 10.193-25.621 10.631v3.474c0 1.011-0.819 1.83-1.83 1.83-1.01 0-1.829-0.819-1.829-1.83v-3.474c-20.996-0.933-37.906-17.843-38.84-38.839h-3.474c-1.01 0-1.829-0.82-1.829-1.83 0-1.011 0.819-1.83 1.829-1.83h3.474c0.934-20.996 17.844-37.905 38.84-38.839v-3.473c0-1.012 0.819-1.831 1.829-1.831 1.011 0 1.83 0.819 1.83 1.831v3.473c20.996 0.934 37.906 17.843 38.84 38.839h3.473c1.011 0 1.83 0.819 1.83 1.83 0 1.01-0.819 1.83-1.83 1.83h-3.473c-0.438 9.848-4.389 18.798-10.631 25.621l1.847 1.847z" fill="#fff"/>
    </g>
    <g transform="translate(819.21 4273.5)">
     <path d="m0 0c-13.264 6.371-35.731 7.113-36.725 7.129-0.944 0-23.411-0.758-36.675-7.129-0.585-0.279-0.959-0.869-0.961-1.517v-36.27c0-1.112 0.674-27.456 37.08-43.568 0.434-0.193 0.93-0.193 1.365 0 36.27 16.129 36.86 42.489 36.877 43.585v36.253c-2e-3 0.648-0.376 1.238-0.961 1.517" fill="#2da868"/>
    </g>
    <g transform="translate(816.8 4235.7)">
     <path d="m0 0c0-0.252-0.624-24.944-34.315-40.214-33.557 15.169-34.298 39.186-34.315 40.197v35.175c12.404 5.528 33.152 6.321 34.315 6.354 1.163 0.034 21.91-0.826 34.315-6.354zm2.41 37.753c-13.264 6.372-35.731 7.113-36.725 7.13-0.944 0-23.411-0.758-36.675-7.13-0.585-0.278-0.959-0.868-0.961-1.516v-36.271c0-1.112 0.675-27.455 37.08-43.568 0.434-0.192 0.93-0.192 1.365 0 36.27 16.13 36.86 42.49 36.877 43.585v36.254c-2e-3 0.648-0.376 1.238-0.961 1.516" fill="#fff"/>
    </g>
    <g transform="translate(808.86 4262.9)">
     <path d="m0 0v-27.102c0-0.774-0.607-19.146-26.309-30.859-25.703 11.797-26.293 30.085-26.31 30.843v27.101c9.607 4.163 25.282 4.77 26.31 4.821 1.028 0.05 16.635-0.658 26.242-4.821zm-55.029 2.596c-0.585-0.279-0.959-0.869-0.961-1.517v-28.214c0-0.877 0.54-21.59 28.99-34.214 0.434-0.193 0.93-0.193 1.365 0 28.467 12.624 28.989 33.337 28.989 34.231v28.18c-2e-3 0.648-0.375 1.238-0.961 1.517-10.382 5.056-27.927 5.562-28.652 5.579h-0.118c-0.792-0.017-18.337-0.574-28.652-5.562" fill="#fff"/>
    </g>
    <path d="m769.98 4245h25.012v-17.141h-25.012zm12.337 10.264c4.092 0 7.617-2.882 8.427-6.893h-16.854c0.811 4.017 4.346 6.903 8.444 6.893zm-12.337-30.775h25.011c1.862 0 3.371 1.509 3.371 3.371v17.14c0 1.862-1.509 3.371-3.371 3.371h-0.842c-0.988 6.516-7.071 10.997-13.587 10.01-5.169-0.784-9.226-4.841-10.009-10.01h-0.523c-1.861 0-3.371-1.509-3.371-3.371v-17.14c0-1.842 1.479-3.344 3.321-3.371" fill="#fff"/>
    <g transform="translate(782.49 4241)">
     <path d="m0 0c-0.931 0-1.685-0.754-1.685-1.686v-5.763c0-0.931 0.754-1.686 1.685-1.686s1.685 0.755 1.685 1.686v5.763c0 0.932-0.754 1.686-1.685 1.686" fill="#fff"/>
    </g>
    <g>
     <path d="m933.01 4241.9h-44.5v31.5h44.5z" fill="#2da868"/>
     <path d="m953.51 4201.4h-44.5v32.5h44.5z" fill="#2da868"/>
     <path d="m932.37 4243.4h-42.814v28.542h42.814zm1.784 32.11h-46.382c-0.984 0-1.784-0.797-1.784-1.783v-32.111c0-0.987 0.8-1.784 1.784-1.784h46.382c0.985 0 1.784 0.797 1.784 1.784v32.111c0 0.986-0.799 1.783-1.784 1.783" fill="#fff"/>
    </g>
    <g transform="translate(910.96 4263)">
     <path d="m0 0c-2.951 0-5.352-2.401-5.352-5.352 0-2.95 2.401-5.352 5.352-5.352s5.352 2.402 5.352 5.352c0 2.951-2.401 5.352-5.352 5.352m0-14.271c-4.918 0-8.92 4.001-8.92 8.919s4.002 8.92 8.92 8.92 8.92-4.002 8.92-8.92-4.002-8.919-8.92-8.919" fill="#fff"/>
    </g>
    <g transform="translate(889.56 4271.9)">
     <path d="m0 0v-6.956c3.489 0.71 6.245 3.467 6.957 6.956zm-1.784-10.704c-0.985 0-1.784 0.798-1.784 1.785v10.703c0 0.987 0.799 1.784 1.784 1.784h10.704c0.984 0 1.784-0.797 1.784-1.784 0-6.884-5.602-12.488-12.488-12.488" fill="#fff"/>
    </g>
    <g transform="translate(925.41 4271.9)">
     <path d="m0 0c0.712-3.489 3.468-6.246 6.957-6.956v6.956zm8.741-10.704c-6.886 0-12.487 5.604-12.487 12.488 0 0.987 0.799 1.784 1.784 1.784h10.703c0.985 0 1.784-0.797 1.784-1.784v-10.703c0-0.987-0.799-1.785-1.784-1.785" fill="#fff"/>
    </g>
    <g transform="translate(925.41 4243.4)">
     <path d="m0 0h6.957v6.956c-3.489-0.711-6.245-3.467-6.957-6.956m8.741-3.568h-10.703c-0.985 0-1.784 0.797-1.784 1.784 0 6.884 5.601 12.487 12.487 12.487 0.985 0 1.784-0.797 1.784-1.784v-10.703c0-0.987-0.799-1.784-1.784-1.784" fill="#fff"/>
    </g>
    <g transform="translate(889.56 4243.4)">
     <path d="m0 0h6.957c-0.712 3.489-3.468 6.245-6.957 6.956zm8.92-3.568h-10.704c-0.985 0-1.784 0.797-1.784 1.784v10.703c0 0.987 0.799 1.784 1.784 1.784 6.886 0 12.488-5.603 12.488-12.487 0-0.987-0.8-1.784-1.784-1.784" fill="#fff"/>
    </g>
    <g transform="translate(912.04 4232)">
     <path d="m0 0c-1.304 0-2.364-1.062-2.364-2.364v-23.815c0-1.302 1.06-2.364 2.364-2.364h38.087c1.304 0 2.363 1.062 2.363 2.364v23.815c0 1.302-1.059 2.364-2.363 2.364zm38.087-32.111h-38.087c-3.272 0-5.932 2.66-5.932 5.932v23.815c0 3.272 2.66 5.932 5.932 5.932h38.087c3.271 0 5.931-2.66 5.931-5.932v-23.815c0-3.272-2.66-5.932-5.931-5.932" fill="#fff"/>
    </g>
    <g transform="translate(909.67 4224.9)">
     <path d="m0 0h42.814v4.772c0 1.302-1.06 2.364-2.364 2.364h-38.086c-1.304 0-2.364-1.062-2.364-2.364zm44.598-3.568h-46.382c-0.985 0-1.784 0.797-1.784 1.784v6.556c0 3.272 2.66 5.932 5.932 5.932h38.086c3.272 0 5.932-2.66 5.932-5.932v-6.556c0-0.987-0.799-1.784-1.784-1.784" fill="#fff"/>
    </g>
    <g transform="translate(922.16 4208.8)">
     <path d="m0 0h-7.136c-0.984 0-1.784 0.797-1.784 1.784s0.8 1.784 1.784 1.784h7.136c0.985 0 1.784-0.797 1.784-1.784s-0.799-1.784-1.784-1.784" fill="#fff"/>
    </g>
    <g transform="translate(947.14 4208.8)">
     <path d="m0 0h-7.136c-0.984 0-1.784 0.797-1.784 1.784s0.8 1.784 1.784 1.784h7.136c0.985 0 1.784-0.797 1.784-1.784s-0.799-1.784-1.784-1.784" fill="#fff"/>
    </g>
    <g transform="translate(932.87 4208.8)">
     <path d="m0 0h-3.568c-0.985 0-1.784 0.797-1.784 1.784s0.799 1.784 1.784 1.784h3.568c0.985 0 1.784-0.797 1.784-1.784s-0.799-1.784-1.784-1.784" fill="#fff"/>
    </g>
    <g transform="translate(406.78 4242)">
     <path d="m0 0-1.046 11.513c2.714 1.813 3.444 5.484 1.631 8.197-1.095 1.64-2.935 2.624-4.905 2.627-1.023-6e-3 -2.025-0.28-2.908-0.796l-28.237 12.94c0.65 3.191-1.409 6.304-4.599 6.955-3.19 0.65-6.304-1.408-6.954-4.599-0.045-0.217-0.077-0.437-0.096-0.658l-21.655-7.643c-1.013 0.768-2.247 1.185-3.518 1.189-3.264-8e-3 -5.903-2.662-5.895-5.925 5e-3 -1.981 1.003-3.828 2.656-4.919l-3.57-26.186c-3.222-0.466-5.456-3.457-4.989-6.679 0.467-3.223 3.458-5.456 6.68-4.99 0.1 0.015 0.199 0.032 0.298 0.051l6.51-15.193c-2.288-2.32-2.262-6.054 0.057-8.342 2.319-2.287 6.053-2.262 8.341 0.057 0.315 0.319 0.593 0.674 0.828 1.057l15.829-1.131c0.698-3.177 3.84-5.188 7.018-4.489 2.573 0.565 4.458 2.771 4.616 5.401l21.154 5.566c1.204-3.034 4.64-4.517 7.673-3.313 3.034 1.204 4.518 4.64 3.313 7.673-0.592 1.494-1.768 2.682-3.256 3.29l4.807 16.821c3.195 0.632 5.273 3.736 4.64 6.931-0.448 2.265-2.177 4.06-4.423 4.594z" fill="#2da868"/>
    </g>
    <g transform="translate(364.04 4237.8)">
     <path d="m0 0h4.433c0.816 0 1.477-0.661 1.477-1.478 0-0.815-0.661-1.477-1.477-1.477h-4.433zm0 5.91h4.433c0.816 0 1.477-0.661 1.477-1.477s-0.661-1.478-1.477-1.478h-4.433zm-1.478-11.82h2.956v-1.478h2.955v1.478c2.448 2e-3 4.431 1.988 4.429 4.436-1e-3 1.089-0.402 2.14-1.129 2.952 1.632 1.824 1.476 4.626-0.348 6.259-0.812 0.726-1.863 1.128-2.952 1.128v1.478h-2.955v-1.478h-2.956c-0.816 0-1.477-0.661-1.477-1.477v-11.821c0-0.816 0.661-1.477 1.477-1.477" fill="#fff"/>
    </g>
    <g transform="translate(405.41 4233.3)">
     <path d="m0 0c-1.632 0-2.955 1.323-2.955 2.955s1.323 2.955 2.955 2.955 2.955-1.323 2.955-2.955-1.323-2.955-2.955-2.955m-5.91-28.073c-1.632 0-2.955 1.323-2.955 2.955s1.323 2.955 2.955 2.955 2.955-1.323 2.955-2.955-1.323-2.955-2.955-2.955m-32.506-7.388c-1.632 0-2.955 1.323-2.955 2.955s1.323 2.955 2.955 2.955 2.955-1.323 2.955-2.955-1.323-2.955-2.955-2.955m-21.02 7.785 7.469 3.74 8.213-6.07c-0.119-0.266-0.218-0.541-0.296-0.823l-15.071 1.076c0 0.071 0.021 0.136 0.021 0.207-8e-3 0.637-0.122 1.27-0.336 1.87m-5.576-4.83c-1.632 0-2.955 1.323-2.955 2.955 0 1.633 1.323 2.955 2.955 2.955s2.955-1.322 2.955-2.955c0-1.632-1.323-2.955-2.955-2.955m-7.668 23.876 12.411-9.176-4.401-5.868c-0.117 0-0.226 0.033-0.345 0.033-0.562-7e-3 -1.12-0.097-1.656-0.265l-6.404 14.949c0.132 0.11 0.274 0.206 0.395 0.327m-7.107 4.197c0 1.633 1.323 2.955 2.955 2.955s2.955-1.322 2.955-2.955c0-1.631-1.323-2.955-2.955-2.955s-2.955 1.324-2.955 2.955m8.865 31.029c1.213 1e-3 2.395 0.378 3.385 1.078l7.937-6.173-15.091-19.685 3.385 24.823c0.13-0.012 0.253-0.043 0.384-0.043m0 8.865c1.632 0 2.955-1.323 2.955-2.955s-1.323-2.955-2.955-2.955-2.955 1.323-2.955 2.955 1.323 2.955 2.955 2.955m31.028 11.82c1.632 0 2.956-1.323 2.956-2.955s-1.324-2.955-2.956-2.955-2.955 1.323-2.955 2.955 1.323 2.955 2.955 2.955m30.655-18.753-28.273 2.631-0.591 7.568c1.046 0.335 1.977 0.957 2.686 1.794zm9.239-3.41c0-1.632-1.323-2.955-2.955-2.955s-2.955 1.323-2.955 2.955 1.323 2.955 2.955 2.955 2.955-1.323 2.955-2.955m-71.089-28.209 18.193 6.058c0.5-2.45 1.615-4.732 3.242-6.631l-8.84-11.787-12.686 9.385c0.163 0.529 0.25 1.079 0.258 1.633-4e-3 0.453-0.06 0.903-0.167 1.342m20.607 17.5c-1.747-2.461-2.694-5.401-2.709-8.419l-19.306-6.433c-0.038 0.041-0.068 0.089-0.106 0.129l15.337 20.004zm41.682 10.08-18.003-9.476c-2.425 3.102-5.989 5.105-9.899 5.565l-0.591 7.59 28.459-2.648c-0.011-0.134-0.042-0.264-0.042-0.402 0.014-0.211 0.038-0.421 0.074-0.629zm-14.923-17.03c-0.188 1.76-0.694 3.472-1.493 5.051l17.459 9.189c0.319-0.441 0.698-0.835 1.126-1.171l-8.548-13.753zm-26.513-1.549c0 6.528 5.292 11.82 11.82 11.82s11.82-5.292 11.82-11.82-5.292-11.82-11.82-11.82c-6.525 7e-3 -11.813 5.295-11.82 11.82m26.922-12.221-0.195-0.099-3.35 3.14c1.78 2.228 2.873 4.924 3.146 7.762l6.777-0.541zm17.459 8.73-12.412-6.206 4.644 7.471 7.722-0.618c0-0.038-0.012-0.074-0.012-0.112 3e-3 -0.182 0.041-0.356 0.058-0.535m-44.018 26.919 9.604-0.886 0.601-7.824c-3.324-0.281-6.454-1.685-8.875-3.981l-6.928 5.391zm-15.434 1.436 11.959-1.112-4.453-5.817-7.831 6.086c0.129 0.272 0.238 0.554 0.325 0.843m14.082 1.654-13.924 1.294c-0.076 0.359-0.185 0.709-0.327 1.048l20.204 7.135c0.155-0.345 0.344-0.675 0.563-0.983zm10.175 6.099 0.545-7.092-7.24 0.673 5.297 6.91c0.445-0.222 0.918-0.385 1.405-0.485zm-15.071-55.731 8.614 11.483c5.487-4.319 13.255-4.183 18.587 0.325l2.589-2.427-25.34-12.67zm-4.944-7.986c-0.202 0.192-0.418 0.37-0.646 0.531l3.821 5.097 3.251-2.407zm19.193-2.546-7.131 5.278 22.703 11.353-9.9-15.934c-1.882 0.777-4.033 0.514-5.672-0.694zm30.127 3.382-21.352-5.613c-0.198 0.407-0.442 0.79-0.728 1.142l11.013 17.716 11.809-11.072c-0.388-0.666-0.639-1.403-0.739-2.167zm2.807 4.285-12.274 11.499 16.348 8.174c0.731-1.05 1.784-1.834 2.999-2.235l-4.757-16.655c-0.819-0.095-1.608-0.362-2.316-0.783m7.348 28.688c-1.452-0.411-2.691-1.363-3.462-2.66l-6.807 0.545 7.954 12.794c0.314-0.055 0.631-0.085 0.95-0.09 0.134 0 0.26 0.031 0.393 0.04zm2.955 0.072-1.046 11.513c2.714 1.813 3.444 5.483 1.631 8.197-1.095 1.64-2.934 2.624-4.905 2.627-1.022-6e-3 -2.025-0.28-2.908-0.796l-28.237 12.94c0.65 3.191-1.408 6.304-4.599 6.955-3.19 0.65-6.304-1.408-6.954-4.599-0.044-0.217-0.076-0.437-0.096-0.658l-21.655-7.643c-1.012 0.768-2.247 1.185-3.518 1.189-3.264-8e-3 -5.903-2.662-5.895-5.925 6e-3 -1.981 1.003-3.828 2.656-4.919l-3.569-26.186c-3.223-0.467-5.456-3.457-4.99-6.679 0.467-3.223 3.458-5.457 6.68-4.99 0.1 0.014 0.199 0.032 0.298 0.051l6.51-15.193c-2.287-2.32-2.262-6.054 0.057-8.342 2.319-2.287 6.054-2.262 8.341 0.057 0.316 0.319 0.593 0.674 0.828 1.057l15.829-1.131c0.698-3.177 3.84-5.188 7.018-4.489 2.573 0.565 4.459 2.771 4.616 5.401l21.154 5.566c1.204-3.034 4.64-4.517 7.674-3.313s4.517 4.64 3.313 7.673c-0.593 1.494-1.769 2.682-3.256 3.29l4.806 16.821c3.196 0.632 5.273 3.736 4.641 6.931-0.449 2.265-2.177 4.06-4.424 4.593z" fill="#fff"/>
    </g>
    <g transform="translate(364.04 4237.8)">
     <path d="m0 0h4.433c0.816 0 1.477-0.661 1.477-1.478 0-0.815-0.661-1.477-1.477-1.477h-4.433zm0 5.91h4.433c0.816 0 1.477-0.661 1.477-1.477s-0.661-1.478-1.477-1.478h-4.433zm-1.478-11.82h2.956v-1.478h2.955v1.478c2.448 2e-3 4.431 1.988 4.429 4.436-1e-3 1.089-0.402 2.14-1.129 2.952 1.632 1.824 1.476 4.626-0.348 6.259-0.812 0.726-1.863 1.128-2.952 1.128v1.478h-2.955v-1.478h-2.956c-0.816 0-1.477-0.661-1.477-1.477v-11.821c0-0.816 0.661-1.477 1.477-1.477" fill="#fff"/>
    </g>
   </g>
  </g>
 </g>
</svg>
