<?xml version="1.0" encoding="UTF-8"?>
<!-- Created with Inkscape (http://www.inkscape.org/) -->
<svg width="21.717mm" height="26.024mm" version="1.1" viewBox="0 0 21.717 26.024" xmlns="http://www.w3.org/2000/svg" xmlns:cc="http://creativecommons.org/ns#" xmlns:dc="http://purl.org/dc/elements/1.1/" xmlns:rdf="http://www.w3.org/1999/02/22-rdf-syntax-ns#">
 <defs>
  <clipPath id="clipPath4694">
   <path d="m0 8681.9h1280v-8681.9h-1280z"/>
  </clipPath>
 </defs>
 <metadata>
  <rdf:RDF>
   <cc:Work rdf:about="">
    <dc:format>image/svg+xml</dc:format>
    <dc:type rdf:resource="http://purl.org/dc/dcmitype/StillImage"/>
    <dc:title/>
   </cc:Work>
  </rdf:RDF>
 </metadata>
 <g transform="translate(-62.28 -327.45)">
  <g transform="matrix(.35278 0 0 -.35278 -27.985 2600.3)">
   <g clip-path="url(#clipPath4694)">
    <g transform="translate(293.83 4234.3)">
     <path d="M 0,0 -5.755,4.18 0,8.359" fill="none" stroke="#fff" stroke-linecap="round" stroke-linejoin="round" stroke-miterlimit="10" stroke-width="2"/>
    </g>
    <g transform="translate(992.38 4234)">
     <path d="M 0,0 5.755,4.18 0,8.359" fill="none" stroke="#fff" stroke-linecap="round" stroke-linejoin="round" stroke-miterlimit="10" stroke-width="2"/>
    </g>
    <g transform="translate(1150 4396.8)">
     <path d="m0 0s0.918 0.097 0.918-1.16v-15.752h-1.208c-0.29 0-0.532 0.242-0.532 0.532v14.278c0 0.193-0.048 0.362-0.313 0.411-0.339 0.072-0.532 0.266-0.604 0.435-0.073 0.145-0.194 0.821-0.387 1.256z" fill="#fff"/>
    </g>
    <g transform="translate(405.1 8643.1)">
     <path d="m0 0h1.1l1.473-5.401 1.431 5.401h1.077l-2.034-6.963h-0.892c-0.52 1.584-1.055 3.413-1.605 5.488-0.55-2.075-1.086-3.904-1.607-5.488h-0.89l-2.035 6.963h1.078l1.429-5.401z" fill="#004f53"/>
    </g>
    <g transform="translate(413.17 8636.1)">
     <path d="m0 0h-1.012v6.963h1.012v-2.926h3.355v2.926h1.023v-6.963h-1.023v3.189h-3.355z" fill="#004f53"/>
    </g>
    <g transform="translate(419.52 8643.1)">
     <path d="m0 0h1.089l1.782-3.388 1.771 3.388h1.089l-2.354-4.225v-2.738h-1.012v2.738z" fill="#004f53"/>
    </g>
    <g transform="translate(431.81 8639.3)">
     <path d="m0 0c-0.154-0.125-0.285-0.305-0.391-0.539-0.106-0.235-0.16-0.455-0.16-0.66 0-0.374 0.107-0.675 0.32-0.903 0.212-0.227 0.491-0.34 0.835-0.34 0.448 0 0.792 0.157 1.035 0.472zm2.243 0.418h0.99v-0.43c0-0.836-0.154-1.488-0.462-1.958l1.1-1.231h-1.133l-0.483 0.527c-0.411-0.439-0.98-0.659-1.705-0.659-0.683 0-1.225 0.216-1.628 0.648-0.338 0.36-0.506 0.796-0.506 1.31 0 0.374 0.099 0.74 0.297 1.1 0.197 0.359 0.458 0.645 0.78 0.858l-0.132 0.143c-0.506 0.557-0.758 1.074-0.758 1.55 0 0.485 0.163 0.873 0.489 1.166s0.758 0.441 1.293 0.441c0.498 0 1.026-0.192 1.584-0.572l-0.43-0.605c-0.381 0.205-0.769 0.308-1.165 0.308-0.565 0-0.848-0.236-0.848-0.704 0-0.345 0.232-0.789 0.694-1.331l1.881-2.189c0.094 0.19 0.142 0.531 0.142 1.023z" fill="#004f53"/>
    </g>
    <g transform="translate(441.95 8636.1)">
     <path d="m0 0h-1.012v6.963h1.012v-2.926h3.355v2.926h1.023v-6.963h-1.023v3.189h-3.355z" fill="#004f53"/>
    </g>
    <g transform="translate(451.73 8636.9)">
     <path d="m0 0c0.683 0 1.195 0.282 1.54 0.847 0.286 0.469 0.43 1.085 0.43 1.847 0 0.888-0.188 1.581-0.562 2.079-0.345 0.462-0.813 0.694-1.408 0.694-0.675 0-1.187-0.297-1.54-0.891-0.285-0.484-0.429-1.111-0.429-1.882 0-0.88 0.188-1.557 0.562-2.034 0.344-0.44 0.813-0.66 1.407-0.66m0-0.88c-1.033 0-1.829 0.406-2.387 1.221-0.44 0.645-0.66 1.43-0.66 2.353 0 1.086 0.29 1.973 0.869 2.662 0.55 0.661 1.277 0.991 2.178 0.991 1.027 0 1.822-0.422 2.388-1.265 0.439-0.66 0.659-1.456 0.659-2.388 0-1.077-0.289-1.95-0.868-2.617-0.551-0.639-1.277-0.957-2.179-0.957" fill="#004f53"/>
    </g>
    <g transform="translate(460.24 8643.1)">
     <path d="m0 0h1.1l1.473-5.401 1.431 5.401h1.077l-2.034-6.963h-0.892c-0.52 1.584-1.055 3.413-1.605 5.488-0.55-2.075-1.086-3.904-1.607-5.488h-0.89l-2.035 6.963h1.078l1.429-5.401z" fill="#004f53"/>
    </g>
    <g transform="translate(470.89 8636.6)">
     <path d="m0 0c0 0.153 0.057 0.287 0.17 0.401 0.114 0.114 0.248 0.17 0.402 0.17 0.176 0 0.324-0.054 0.446-0.165 0.121-0.109 0.181-0.245 0.181-0.406 0-0.418-0.209-0.627-0.627-0.627-0.169 0-0.306 0.059-0.413 0.176-0.106 0.117-0.159 0.267-0.159 0.451m1.045 1.045h-0.946v1.045c0 0.301 0.042 0.526 0.127 0.677 0.084 0.149 0.28 0.345 0.587 0.587 0.602 0.485 0.903 0.972 0.903 1.463 0 0.301-0.096 0.541-0.286 0.721-0.191 0.18-0.448 0.27-0.77 0.27-0.308 0-0.66-0.118-1.056-0.352l-0.341 0.55c0.535 0.395 1.096 0.594 1.682 0.594 0.507 0 0.919-0.159 1.239-0.473 0.318-0.315 0.478-0.723 0.478-1.222 0-0.711-0.286-1.304-0.858-1.781-0.022-0.016-0.055-0.041-0.099-0.077l-0.066-0.067c-0.264-0.212-0.429-0.377-0.495-0.495-0.066-0.117-0.099-0.307-0.099-0.571z" fill="#004f53"/>
    </g>
    <g transform="translate(520.74 8642.3)">
     <path d="m0 0v-2.574c0.295-0.052 0.568-0.077 0.826-0.077 0.924 0 1.385 0.468 1.385 1.408 0 0.88-0.465 1.319-1.397 1.319-0.337 0-0.609-0.025-0.814-0.076m-1.021-6.204v6.952c0.644 0.095 1.238 0.143 1.781 0.143 1.687 0 2.529-0.711 2.529-2.134 0-0.924-0.381-1.577-1.143-1.958l1.385-3.003h-1.033l-1.254 2.75c-0.096-0.015-0.234-0.023-0.418-0.023-0.258 0-0.531 0.026-0.826 0.078v-2.805z" fill="#004f53"/>
    </g>
    <g transform="translate(528.97 8636.9)">
     <path d="m0 0c0.682 0 1.195 0.282 1.539 0.847 0.287 0.469 0.43 1.085 0.43 1.847 0 0.888-0.188 1.581-0.561 2.079-0.346 0.462-0.814 0.694-1.408 0.694-0.676 0-1.187-0.297-1.541-0.891-0.285-0.484-0.428-1.111-0.428-1.882 0-0.88 0.188-1.557 0.561-2.034 0.344-0.44 0.814-0.66 1.408-0.66m0-0.88c-1.033 0-1.83 0.406-2.387 1.221-0.441 0.645-0.66 1.43-0.66 2.353 0 1.086 0.289 1.973 0.869 2.662 0.549 0.661 1.276 0.991 2.178 0.991 1.027 0 1.822-0.422 2.387-1.265 0.439-0.66 0.66-1.456 0.66-2.388 0-1.077-0.289-1.95-0.869-2.617-0.551-0.639-1.276-0.957-2.178-0.957" fill="#004f53"/>
    </g>
    <g transform="translate(536.39 8641.8)">
     <path d="m0 0-1.133-3.311h2.266zm-0.484 1.232h0.968l2.52-6.962h-1.045l-0.529 1.572h-2.848l-0.539-1.572h-1.045z" fill="#004f53"/>
    </g>
    <g transform="translate(542.39 8636.9)">
     <path d="m0 0c0.234-0.052 0.498-0.077 0.791-0.077 0.83 0 1.457 0.264 1.881 0.792 0.389 0.484 0.584 1.162 0.584 2.035 0 0.938-0.272 1.657-0.815 2.156-0.439 0.41-1 0.615-1.681 0.615-0.301 0-0.555-0.025-0.76-0.076zm-1.023 6.193c0.55 0.095 1.132 0.143 1.75 0.143 1.209 0 2.136-0.363 2.783-1.089 0.549-0.616 0.824-1.434 0.824-2.453 0-1.239-0.346-2.182-1.033-2.827-0.61-0.572-1.446-0.858-2.51-0.858-0.66 0-1.264 0.048-1.814 0.143z" fill="#004f53"/>
    </g>
    <g transform="translate(550.09 8641.8)">
     <path d="m0 0v-5.73h-1.012v6.962h1.299c0.565-1.173 1.158-2.779 1.781-4.818 0.139-0.454 0.246-0.803 0.319-1.045 0.066 0.213 0.14 0.447 0.22 0.704 0.69 2.2 1.321 3.92 1.893 5.159h1.309v-6.962h-1.024v5.752c-0.285-1.019-0.945-2.937-1.98-5.752h-0.813c-0.33 0.769-0.707 1.765-1.129 2.986s-0.709 2.136-0.863 2.744" fill="#004f53"/>
    </g>
    <g transform="translate(560.88 8641.8)">
     <path d="m0 0-1.133-3.311h2.266zm-0.484 1.232h0.968l2.52-6.962h-1.045l-0.529 1.572h-2.848l-0.539-1.572h-1.045z" fill="#004f53"/>
    </g>
    <g transform="translate(566.89 8642.3)">
     <path d="m0 0v-2.574c0.295-0.052 0.598-0.077 0.914-0.077 0.865 0 1.297 0.468 1.297 1.408 0 0.88-0.465 1.319-1.397 1.319-0.337 0-0.609-0.025-0.814-0.076m-1.021-6.204v6.952c0.644 0.095 1.238 0.143 1.781 0.143 1.687 0 2.529-0.711 2.529-2.134 0-0.771-0.256-1.354-0.769-1.749-0.418-0.323-0.954-0.485-1.606-0.485-0.316 0-0.619 0.026-0.914 0.078v-2.805z" fill="#004f53"/>
    </g>
    <g transform="translate(640.64 8642.2)">
     <path d="m0 0h-2.09v0.847h5.367v-0.847h-2.254v-6.116h-1.023z" fill="#004f53"/>
    </g>
    <g transform="translate(645.92 8643.1)">
     <path d="m0 0h4.246v-0.847h-3.225v-2.079h2.708v-0.847h-2.708v-2.343h3.368v-0.847h-4.389z" fill="#004f53"/>
    </g>
    <g transform="translate(654.78 8641.8)">
     <path d="m0 0-1.133-3.311h2.266zm-0.484 1.232h0.968l2.518-6.962h-1.045l-0.527 1.572h-2.85l-0.539-1.572h-1.045z" fill="#004f53"/>
    </g>
    <g transform="translate(660.78 8641.8)">
     <path d="m0 0v-5.73h-1.012v6.962h1.299c0.565-1.173 1.158-2.779 1.781-4.818 0.139-0.454 0.246-0.803 0.319-1.045 0.066 0.213 0.14 0.447 0.22 0.704 0.69 2.2 1.321 3.92 1.893 5.159h1.309v-6.962h-1.024v5.752c-0.285-1.019-0.945-2.937-1.98-5.752h-0.813c-0.33 0.769-0.707 1.765-1.129 2.986s-0.709 2.136-0.863 2.744" fill="#004f53"/>
    </g>
    <g transform="translate(315.01 8641.8)">
     <path d="m0 0-1.133-3.311h2.266zm-0.484 1.232h0.968l2.52-6.962h-1.045l-0.529 1.572h-2.848l-0.539-1.572h-1.045z" fill="#004f53"/>
    </g>
    <g transform="translate(321.02 8639.4)">
     <path d="m0 0v-2.508c0.258-0.052 0.584-0.077 0.98-0.077 0.946 0 1.418 0.399 1.418 1.199 0 0.44-0.121 0.782-0.363 1.023-0.242 0.242-0.582 0.363-1.021 0.363zm0 2.938v-2.102h1.035c0.367 0 0.658 0.086 0.875 0.259 0.215 0.172 0.324 0.405 0.324 0.698 0 0.814-0.466 1.221-1.398 1.221-0.336 0-0.615-0.026-0.836-0.076m-1.021-6.194v6.942c0.63 0.094 1.253 0.142 1.869 0.142 0.873 0 1.513-0.205 1.925-0.616 0.331-0.33 0.495-0.767 0.495-1.309 0-0.359-0.123-0.678-0.37-0.957-0.244-0.279-0.546-0.444-0.906-0.495v-0.011c0.455-0.066 0.815-0.262 1.084-0.588 0.268-0.327 0.401-0.743 0.401-1.248 0-0.661-0.268-1.17-0.803-1.53-0.463-0.315-1.07-0.472-1.826-0.472-0.674 0-1.299 0.047-1.869 0.142" fill="#004f53"/>
    </g>
    <g transform="translate(329.46 8636.9)">
     <path d="m0 0c0.682 0 1.195 0.282 1.539 0.847 0.287 0.469 0.43 1.085 0.43 1.847 0 0.888-0.188 1.581-0.561 2.079-0.346 0.462-0.814 0.694-1.408 0.694-0.676 0-1.187-0.297-1.541-0.891-0.285-0.484-0.428-1.111-0.428-1.882 0-0.88 0.188-1.557 0.561-2.034 0.344-0.44 0.814-0.66 1.408-0.66m0-0.88c-1.033 0-1.83 0.406-2.387 1.221-0.441 0.645-0.66 1.43-0.66 2.353 0 1.086 0.289 1.973 0.869 2.662 0.549 0.661 1.276 0.991 2.178 0.991 1.027 0 1.822-0.422 2.387-1.265 0.439-0.66 0.66-1.456 0.66-2.388 0-1.077-0.289-1.95-0.869-2.617-0.551-0.639-1.276-0.957-2.178-0.957" fill="#004f53"/>
    </g>
    <g transform="translate(339.97 8639)">
     <path d="m0 0c0-2.031-0.85-3.047-2.551-3.047s-2.553 1.016-2.553 3.047v4.048h1.036v-4.279c0-1.291 0.505-1.936 1.517-1.936s1.518 0.645 1.518 1.936v4.279h1.033z" fill="#004f53"/>
    </g>
    <g transform="translate(344.14 8642.2)">
     <path d="m0 0h-2.09v0.847h5.367v-0.847h-2.256v-6.116h-1.021z" fill="#004f53"/>
    </g>
    <g transform="translate(1055 8636.8)">
     <path d="m0 0c-0.616-0.535-1.287-0.803-2.014-0.803-1.055 0-1.873 0.407-2.452 1.221-0.455 0.645-0.682 1.419-0.682 2.321 0 1.027 0.282 1.904 0.847 2.629 0.557 0.704 1.265 1.057 2.122 1.057 0.763 0 1.46-0.254 2.091-0.76l-0.407-0.615c-0.499 0.329-0.994 0.494-1.485 0.494-0.667 0-1.192-0.274-1.574-0.824-0.344-0.499-0.516-1.159-0.516-1.981 0-0.813 0.216-1.467 0.649-1.958 0.396-0.455 0.909-0.681 1.54-0.681 0.477 0 0.968 0.171 1.474 0.516z" fill="#004f53"/>
    </g>
    <g transform="translate(1060 8636.9)">
     <path d="m0 0c0.683 0 1.195 0.282 1.54 0.848 0.286 0.468 0.43 1.085 0.43 1.847 0 0.887-0.188 1.58-0.562 2.079-0.345 0.462-0.813 0.693-1.408 0.693-0.675 0-1.187-0.297-1.54-0.891-0.285-0.484-0.429-1.111-0.429-1.881 0-0.88 0.188-1.558 0.562-2.035 0.344-0.44 0.813-0.66 1.407-0.66m0-0.88c-1.033 0-1.829 0.407-2.387 1.221-0.44 0.645-0.66 1.43-0.66 2.354 0 1.085 0.29 1.973 0.869 2.662 0.55 0.661 1.277 0.991 2.178 0.991 1.027 0 1.822-0.422 2.388-1.266 0.439-0.66 0.659-1.456 0.659-2.387 0-1.078-0.289-1.951-0.868-2.618-0.551-0.638-1.277-0.957-2.179-0.957" fill="#004f53"/>
    </g>
    <g transform="translate(1066.4 8641.8)">
     <path d="m0 0v-5.731h-1.012v6.962h1.298c0.565-1.172 1.158-2.779 1.782-4.817 0.139-0.455 0.245-0.804 0.319-1.045 0.066 0.212 0.139 0.447 0.22 0.704 0.689 2.199 1.32 3.919 1.892 5.158h1.309v-6.962h-1.023v5.752c-0.286-1.019-0.946-2.936-1.98-5.752h-0.814c-0.33 0.77-0.706 1.765-1.128 2.986-0.422 1.222-0.709 2.136-0.863 2.745" fill="#004f53"/>
    </g>
    <g transform="translate(1076 8641.8)">
     <path d="m0 0v-5.731h-1.012v6.962h1.298c0.565-1.172 1.158-2.779 1.782-4.817 0.139-0.455 0.245-0.804 0.319-1.045 0.066 0.212 0.139 0.447 0.22 0.704 0.689 2.199 1.32 3.919 1.892 5.158h1.309v-6.962h-1.023v5.752c-0.286-1.019-0.946-2.936-1.98-5.752h-0.814c-0.33 0.77-0.706 1.765-1.128 2.986-0.422 1.222-0.709 2.136-0.863 2.745" fill="#004f53"/>
    </g>
    <g transform="translate(1089.7 8639)">
     <path d="m0 0c0-2.031-0.851-3.047-2.552-3.047s-2.552 1.016-2.552 3.047v4.048h1.035v-4.278c0-1.291 0.506-1.937 1.517-1.937 1.012 0 1.518 0.646 1.518 1.937v4.278h1.034z" fill="#004f53"/>
    </g>
    <g transform="translate(1093.5 8641.4)">
     <path d="m0 0v-5.27h-1.012v6.963h0.891c1.467-2.126 2.643-3.922 3.531-5.389v5.389h1.023v-6.963h-0.912c-0.749 1.035-1.922 2.791-3.521 5.27" fill="#004f53"/>
    </g>
    <path d="m1101.8 8636.1h-1.012v6.963h1.012z" fill="#004f53"/>
    <g transform="translate(1106 8642.2)">
     <path d="m0 0h-2.09v0.847h5.367v-0.847h-2.255v-6.116h-1.022z" fill="#004f53"/>
    </g>
    <g transform="translate(1110.5 8643.1)">
     <path d="m0 0h1.089l1.782-3.388 1.771 3.388h1.089l-2.354-4.224v-2.739h-1.012v2.739z" fill="#004f53"/>
    </g>
    <g transform="translate(750.83 8636.1)">
     <path d="m0 0v6.963h4.246v-0.847h-3.224v-2.091h2.707v-0.846h-2.707v-3.179z" fill="#004f53"/>
    </g>
    <g transform="translate(759.12 8641.8)">
     <path d="m0 0-1.133-3.311h2.266zm-0.484 1.232h0.968l2.519-6.962h-1.045l-0.528 1.572h-2.849l-0.539-1.572h-1.045z" fill="#004f53"/>
    </g>
    <g transform="translate(764.52 8639.5)">
     <path d="m0 0c0-0.88 0.187-1.559 0.562-2.035 0.343-0.433 0.813-0.649 1.407-0.649 0.682 0 1.195 0.279 1.54 0.836 0.286 0.469 0.429 1.085 0.429 1.848 0 0.888-0.187 1.584-0.561 2.09-0.345 0.462-0.814 0.693-1.408 0.693-0.675 0-1.188-0.297-1.54-0.89-0.285-0.493-0.429-1.122-0.429-1.893m2.651-3.487c-0.242-0.051-0.469-0.076-0.682-0.076-1.033 0-1.829 0.402-2.387 1.209-0.44 0.645-0.66 1.43-0.66 2.354 0 1.101 0.293 1.995 0.88 2.685 0.557 0.652 1.28 0.978 2.167 0.978 1.027 0 1.822-0.422 2.387-1.265 0.44-0.668 0.66-1.466 0.66-2.398 0-0.704-0.134-1.336-0.402-1.897-0.267-0.561-0.635-0.985-1.105-1.271l1.364-1.441h-1.187z" fill="#004f53"/>
    </g>
    <g transform="translate(848.24 8641)">
     <path d="m0 0-1.133-3.311h2.266zm-0.484 1.232h0.968l2.52-6.962h-1.045l-0.529 1.572h-2.848l-0.539-1.572h-1.045z" fill="#004f53"/>
    </g>
    <path d="m854.24 8635.3h-1.012v6.963h1.012z" fill="#004f53"/>
    <g transform="translate(858.06 8641.5)">
     <path d="m0 0v-2.574c0.293-0.052 0.568-0.077 0.824-0.077 0.924 0 1.387 0.468 1.387 1.408 0 0.88-0.467 1.319-1.397 1.319-0.337 0-0.609-0.025-0.814-0.076m-1.023-6.204v6.952c0.644 0.095 1.24 0.143 1.783 0.143 1.685 0 2.529-0.711 2.529-2.134 0-0.924-0.381-1.577-1.144-1.958l1.386-3.003h-1.035l-1.254 2.75c-0.096-0.015-0.234-0.023-0.418-0.023-0.256 0-0.531 0.026-0.824 0.078v-2.805z" fill="#004f53"/>
    </g>
    <g transform="translate(864.7 8636)">
     <path d="m0 0c0.236-0.052 0.5-0.077 0.793-0.077 0.828 0 1.455 0.264 1.881 0.792 0.389 0.484 0.582 1.162 0.582 2.035 0 0.938-0.27 1.657-0.813 2.156-0.441 0.41-1.002 0.615-1.683 0.615-0.301 0-0.555-0.025-0.76-0.076zm-1.021 6.193c0.548 0.095 1.132 0.143 1.748 0.143 1.21 0 2.138-0.363 2.783-1.089 0.551-0.616 0.824-1.434 0.824-2.453 0-1.239-0.344-2.182-1.033-2.827-0.61-0.572-1.446-0.858-2.508-0.858-0.66 0-1.266 0.048-1.814 0.143z" fill="#004f53"/>
    </g>
    <g transform="translate(872.41 8641.5)">
     <path d="m0 0v-2.574c0.295-0.052 0.568-0.077 0.826-0.077 0.924 0 1.385 0.468 1.385 1.408 0 0.88-0.465 1.319-1.397 1.319-0.337 0-0.609-0.025-0.814-0.076m-1.021-6.204v6.952c0.644 0.095 1.238 0.143 1.781 0.143 1.687 0 2.529-0.711 2.529-2.134 0-0.924-0.381-1.577-1.143-1.958l1.385-3.003h-1.033l-1.254 2.75c-0.096-0.015-0.234-0.023-0.418-0.023-0.258 0-0.531 0.026-0.826 0.078v-2.805z" fill="#004f53"/>
    </g>
    <g transform="translate(880.64 8636)">
     <path d="m0 0c0.684 0 1.195 0.282 1.541 0.847 0.285 0.469 0.43 1.085 0.43 1.847 0 0.888-0.188 1.581-0.563 2.079-0.344 0.462-0.812 0.694-1.408 0.694-0.674 0-1.187-0.297-1.539-0.891-0.285-0.484-0.43-1.111-0.43-1.882 0-0.88 0.188-1.557 0.563-2.034 0.344-0.44 0.812-0.66 1.406-0.66m0-0.88c-1.033 0-1.828 0.406-2.387 1.221-0.439 0.645-0.66 1.43-0.66 2.353 0 1.086 0.291 1.973 0.869 2.662 0.551 0.661 1.278 0.991 2.178 0.991 1.027 0 1.822-0.422 2.389-1.265 0.439-0.66 0.658-1.456 0.658-2.388 0-1.077-0.289-1.95-0.867-2.617-0.551-0.639-1.278-0.957-2.18-0.957" fill="#004f53"/>
    </g>
    <g transform="translate(887.07 8641.5)">
     <path d="m0 0v-2.574c0.293-0.052 0.598-0.077 0.912-0.077 0.865 0 1.299 0.468 1.299 1.408 0 0.88-0.467 1.319-1.397 1.319-0.337 0-0.609-0.025-0.814-0.076m-1.023-6.204v6.952c0.644 0.095 1.24 0.143 1.783 0.143 1.685 0 2.529-0.711 2.529-2.134 0-0.771-0.258-1.354-0.769-1.749-0.418-0.323-0.956-0.485-1.608-0.485-0.314 0-0.619 0.026-0.912 0.078v-2.805z" fill="#004f53"/>
    </g>
    <g transform="translate(956.96 8641.4)">
     <path d="m0 0h-2.09v0.847h5.367v-0.847h-2.255v-6.116h-1.022z" fill="#004f53"/>
    </g>
    <g transform="translate(964.72 8636)">
     <path d="m0 0c0.683 0 1.195 0.282 1.54 0.847 0.286 0.469 0.43 1.085 0.43 1.847 0 0.888-0.188 1.581-0.562 2.079-0.345 0.462-0.813 0.694-1.408 0.694-0.675 0-1.187-0.297-1.54-0.891-0.285-0.484-0.429-1.111-0.429-1.882 0-0.88 0.188-1.557 0.562-2.034 0.344-0.44 0.813-0.66 1.407-0.66m0-0.88c-1.033 0-1.829 0.406-2.387 1.221-0.44 0.645-0.66 1.43-0.66 2.353 0 1.086 0.29 1.973 0.869 2.662 0.55 0.661 1.277 0.991 2.178 0.991 1.027 0 1.822-0.422 2.388-1.265 0.439-0.66 0.659-1.456 0.659-2.388 0-1.077-0.289-1.95-0.868-2.617-0.551-0.639-1.277-0.957-2.179-0.957" fill="#004f53"/>
    </g>
    <g transform="translate(971.11 8638.7)">
     <path d="m0 0v-3.388h-0.99v6.963h0.99v-3.003h0.011l2.409 3.003h1.242l-2.683-3.278 2.925-3.685h-1.331l-2.562 3.388z" fill="#004f53"/>
    </g>
    <g transform="translate(976.9 8642.3)">
     <path d="m0 0h4.246v-0.847h-3.224v-2.079h2.707v-0.847h-2.707v-2.343h3.367v-0.847h-4.389z" fill="#004f53"/>
    </g>
    <g transform="translate(984.61 8640.6)">
     <path d="m0 0v-5.269h-1.012v6.963h0.891c1.467-2.127 2.643-3.923 3.531-5.39v5.39h1.023v-6.963h-0.912c-0.749 1.035-1.922 2.79-3.521 5.269" fill="#004f53"/>
    </g>
    <g transform="translate(995.28 8641.1)">
     <path d="m0 0c-0.499 0.249-1.001 0.374-1.507 0.374-0.359 0-0.652-0.082-0.88-0.247-0.227-0.165-0.341-0.376-0.341-0.633 0-0.462 0.304-0.806 0.914-1.034 0.909-0.337 1.553-0.691 1.935-1.062 0.381-0.37 0.572-0.826 0.572-1.369 0-0.66-0.253-1.176-0.758-1.55-0.412-0.309-0.921-0.462-1.53-0.462-0.726 0-1.481 0.249-2.266 0.748l0.44 0.627c0.491-0.301 1.064-0.452 1.716-0.452 0.894 0 1.342 0.377 1.342 1.133 0 0.587-0.377 1.008-1.133 1.265-0.792 0.271-1.365 0.572-1.722 0.902-0.355 0.33-0.533 0.73-0.533 1.199 0 0.557 0.217 1.004 0.649 1.342 0.396 0.308 0.916 0.462 1.562 0.462 0.727 0 1.386-0.205 1.98-0.616z" fill="#004f53"/>
    </g>
   </g>
  </g>
  <path d="m83.904 349.9-0.5655-1.295c-0.10301-0.23636-0.27199-0.42404-0.47625-0.54998 0.14464-0.35807 0.15205-0.77047-0.01411-1.1508l-1.584-3.6326c-0.15769-0.36159-0.44803-0.64135-0.81774-0.78634s-0.77258-0.13794-1.1345 0.0198l-2.7386 1.1691-0.18239-0.28539v-13.514c0-1.3356-0.97084-2.2885-2.3065-2.2885h-9.3479c-1.3356 0-2.4567 0.95285-2.4567 2.2885v21.156c0 1.3356 1.1211 2.3082 2.4567 2.3082h6.1062l0.5013 0.11818 3.2551-0.0367-0.02328-0.0533c1.0915-0.25541 1.815-1.204 1.815-2.3364v-0.39123c0 0.0183 0.12453 0.0356 0.1591 0.0519-0.07796 0.2734-0.03034 0.56127 0.08396 0.82373l0.57926 1.2958c0.248 0.56867 0.91828 0.8135 1.4658 0.57255l4.6482-2.0249c0.27164-0.11783 0.48225-0.33479 0.59055-0.61066 0.1083-0.27552 0.10407-0.57644-0.01376-0.84808" fill="#2da868"/>
  <g fill="#fff">
   <path d="m82.95 350.49-4.644 2.0249c-0.07902 0.0339-0.17074-2e-3 -0.20532-0.0808l-0.5648-1.2961c-0.05927-0.13547 0.0046-0.2981 0.14041-0.35701 3.6311-1.5836 4.3173-1.8824 4.3462-1.8951-0.01341 6e-3 -0.15381 0.067-0.16651 0.0723 0.0074-3e-3 0.07161-0.031 0.25224-0.10971 0.03387-0.0148 0.0702-0.0222 0.10548-0.0222 0.10548 0 0.20814 0.0621 0.25224 0.16263l0.5648 1.2958c0.03422 0.0787-0.0011 0.17039-0.08079 0.20532m-5.4998-0.64946-0.0046 2e-3c-0.26882 0.11359-0.57961-0.0131-0.69391-0.27658l-0.24481-0.56054-0.12277-0.28081c-0.09207-0.21237-0.27376-0.37148-0.49671-0.43462l-0.2734-0.078-2.6434-0.75283c-0.17004-0.0487-0.31785-0.16722-0.40393-0.32491-0.27446-0.50094 0.2032-1.0555 0.72672-0.90311 0.01976 5e-3 0.0085 2e-3 0.0035 3.4e-4 0.01587 4e-3 0.1337 0.0367 0.71473 0.19368 0.63888 0.17215 1.2192-0.49319 0.87101-1.1486-0.01482-0.0293-0.08184-0.18591-2.0923-4.7957-0.07267-0.16616-0.07126-0.34995 0.0025-0.51788 0.2279-0.52069 0.95885-0.50694 1.1899 0.0229l1.6312 3.7412 0.33443 0.76729c0.10019 0.22966 0.37006 0.35455 0.62689 0.2466l3.1171-1.3596c0.12912-0.0561 0.27305-0.0582 0.40605-6e-3 0.13264 0.0519 0.23671 0.15169 0.29281 0.28081l1.5836 3.6322c0.11748 0.26847-6e-3 0.58208-0.27411 0.6985l-3.44e-4 3.5e-4 -0.0028 1e-3s-0.0025 1e-3 -0.0042 2e-3h3.44e-4l-0.0011 3.4e-4 -0.0035 1e-3c-0.0014 7.1e-4 -0.0021 1e-3 -0.0021 1e-3 -0.08855 0.0388-0.71014 0.30974-4.2369 1.8475m-14.243-1.1505v-16.467h1.7403c0.24624 0 0.44626-0.20003 0.44626-0.44627 0-0.24659-0.20002-0.44661-0.44626-0.44661h-1.7403v-1.4517c0-0.84349 0.68615-1.5296 1.5296-1.5296h9.3476c0.84349 0 1.5296 0.68615 1.5296 1.5296v1.4517h-8.8808c-0.2473 0-0.44662 0.20002-0.44662 0.44661 0 0.24624 0.19932 0.44627 0.44662 0.44627h8.8808v9.1214l-0.75812-1.7392c-0.33584-0.76941-1.21-1.1624-1.9911-0.89394-0.88935 0.30445-1.3159 1.3056-0.94756 2.1498l1.9826 4.547-0.3489-0.0942c-1.337-0.37676-2.497 1.0421-1.8193 2.2779 0.20743 0.37994 0.56409 0.66534 0.9779 0.78317l1.1053 0.31503h3.44e-4zm20.697 1.2136-0.5655-1.295c-0.10301-0.23636-0.27199-0.42369-0.47625-0.54998 0.14464-0.35772 0.15169-0.77012-0.01446-1.1504l-1.5836-3.6329c-0.15769-0.3616-0.44838-0.64135-0.81774-0.78599-0.36971-0.14534-0.77258-0.13829-1.1345 0.0194l-2.6808 1.1691-0.12453-0.28504v-13.514c0-1.3356-1.0869-2.4225-2.4225-2.4225h-9.3476c-1.3356 0-2.4225 1.0869-2.4225 2.4225v21.156c0 1.3356 1.0869 2.4225 2.4225 2.4225h7.9047c0.24659 0 0.44662-0.20002 0.44662-0.44626 0-0.24659-0.20002-0.44662-0.44662-0.44662h-7.9047c-0.84349 0-1.5296-0.68615-1.5296-1.5296v-1.4517h12.407v1.4517c0 0.74401-0.5327 1.378-1.2658 1.5064-0.24306 0.043-0.40499 0.27446-0.36266 0.51717 0.04304 0.24306 0.27446 0.40534 0.51717 0.36266 1.1613-0.20426 2.0041-1.2076 2.0041-2.3862v-0.39088c0.03281 0.0183 0.06668 0.0356 0.10125 0.0515-0.07796 0.27305-0.05962 0.56127 0.05468 0.82374l0.5648 1.2958c0.24836 0.56868 0.91122 0.8135 1.4591 0.57256l4.6443-2.0246c0.27129-0.11783 0.48013-0.3355 0.58843-0.61066 0.1083-0.27588 0.10266-0.57715-0.01517-0.84843"/>
   <path d="m67.262 330.22h2.0983c0.26282 0 0.4759-0.21308 0.4759-0.47625 0-0.26282-0.21308-0.47625-0.4759-0.47625h-2.0983c-0.26282 0-0.47625 0.21343-0.47625 0.47625 0 0.26317 0.21308 0.47625 0.47625 0.47625"/>
   <path d="m71.137 329.32c0.23354 0 0.42298 0.18945 0.42298 0.42299 0 0.23353-0.18944 0.42298-0.42298 0.42298s-0.42298-0.18945-0.42298-0.42298c0-0.23354 0.18944-0.42299 0.42298-0.42299"/>
   <path d="m67.862 350.62c-0.24659 0-0.44626 0.19968-0.44626 0.44662 0 0.24624 0.19967 0.44626 0.44626 0.44626h3.0963c0.24659 0 0.44662-0.20002 0.44662-0.44626 0-0.24694-0.20002-0.44662-0.44662-0.44662z"/>
   <path d="m68.117 338.09c0-0.87771 0.70661-1.1853 1.5501-1.1853 0.99166 0 1.3222 0.43321 1.5843 0.43321s0.41028-0.34219 0.41028-0.52458c0-0.46813-0.98813-0.70837-1.7762-0.74647v-1.4062c0-0.24659-0.19967-0.44626-0.44626-0.44626s-0.44626 0.19967-0.44626 0.44626v1.457c-0.93804 0.16333-1.8334 0.71367-1.8334 2.0638 0 2.7696 3.75 1.7325 3.75 4.0234 0 0.94615-0.62689 1.4132-1.5843 1.4132-1.3451 0-1.6073-0.92322-1.9491-0.92322-0.2166 0-0.42192 0.29669-0.42192 0.52458 0 0.44662 0.78634 1.1486 2.0387 1.2696v1.4206c0 0.24624 0.19967 0.44626 0.44626 0.44626s0.44626-0.20002 0.44626-0.44626v-1.4376c1.1748-0.16581 1.9816-0.92887 1.9816-2.3583 0-3.1006-3.75-2.0976-3.75-4.0238"/>
  </g>
 </g>
</svg>
