<?xml version="1.0" encoding="UTF-8"?>
<!-- Created with Inkscape (http://www.inkscape.org/) -->
<svg width="23.479mm" height="25.054mm" version="1.1" viewBox="0 0 23.479 25.054" xmlns="http://www.w3.org/2000/svg" xmlns:cc="http://creativecommons.org/ns#" xmlns:dc="http://purl.org/dc/elements/1.1/" xmlns:rdf="http://www.w3.org/1999/02/22-rdf-syntax-ns#">
 <defs>
  <clipPath id="clipPath4694">
   <path d="m0 8681.9h1280v-8681.9h-1280z"/>
  </clipPath>
 </defs>
 <metadata>
  <rdf:RDF>
   <cc:Work rdf:about="">
    <dc:format>image/svg+xml</dc:format>
    <dc:type rdf:resource="http://purl.org/dc/dcmitype/StillImage"/>
    <dc:title/>
   </cc:Work>
  </rdf:RDF>
 </metadata>
 <g transform="translate(58.042 -210.2)">
  <g transform="matrix(.35278 0 0 -.35278 -27.985 2600.3)">
   <g clip-path="url(#clipPath4694)">
    <g transform="translate(293.83 4234.3)">
     <path d="M 0,0 -5.755,4.18 0,8.359" fill="none" stroke="#fff" stroke-linecap="round" stroke-linejoin="round" stroke-miterlimit="10" stroke-width="2"/>
    </g>
    <g transform="translate(992.38 4234)">
     <path d="M 0,0 5.755,4.18 0,8.359" fill="none" stroke="#fff" stroke-linecap="round" stroke-linejoin="round" stroke-miterlimit="10" stroke-width="2"/>
    </g>
    <g transform="translate(470.89 8636.6)">
     <path d="m0 0c0 0.153 0.057 0.287 0.17 0.401 0.114 0.114 0.248 0.17 0.402 0.17 0.176 0 0.324-0.054 0.446-0.165 0.121-0.109 0.181-0.245 0.181-0.406 0-0.418-0.209-0.627-0.627-0.627-0.169 0-0.306 0.059-0.413 0.176-0.106 0.117-0.159 0.267-0.159 0.451m1.045 1.045h-0.946v1.045c0 0.301 0.042 0.526 0.127 0.677 0.084 0.149 0.28 0.345 0.587 0.587 0.602 0.485 0.903 0.972 0.903 1.463 0 0.301-0.096 0.541-0.286 0.721-0.191 0.18-0.448 0.27-0.77 0.27-0.308 0-0.66-0.118-1.056-0.352l-0.341 0.55c0.535 0.395 1.096 0.594 1.682 0.594 0.507 0 0.919-0.159 1.239-0.473 0.318-0.315 0.478-0.723 0.478-1.222 0-0.711-0.286-1.304-0.858-1.781-0.022-0.016-0.055-0.041-0.099-0.077l-0.066-0.067c-0.264-0.212-0.429-0.377-0.495-0.495-0.066-0.117-0.099-0.307-0.099-0.571z" fill="#004f53"/>
    </g>
    <g transform="translate(520.74 8642.3)">
     <path d="m0 0v-2.574c0.295-0.052 0.568-0.077 0.826-0.077 0.924 0 1.385 0.468 1.385 1.408 0 0.88-0.465 1.319-1.397 1.319-0.337 0-0.609-0.025-0.814-0.076m-1.021-6.204v6.952c0.644 0.095 1.238 0.143 1.781 0.143 1.687 0 2.529-0.711 2.529-2.134 0-0.924-0.381-1.577-1.143-1.958l1.385-3.003h-1.033l-1.254 2.75c-0.096-0.015-0.234-0.023-0.418-0.023-0.258 0-0.531 0.026-0.826 0.078v-2.805z" fill="#004f53"/>
    </g>
    <g transform="translate(528.97 8636.9)">
     <path d="m0 0c0.682 0 1.195 0.282 1.539 0.847 0.287 0.469 0.43 1.085 0.43 1.847 0 0.888-0.188 1.581-0.561 2.079-0.346 0.462-0.814 0.694-1.408 0.694-0.676 0-1.187-0.297-1.541-0.891-0.285-0.484-0.428-1.111-0.428-1.882 0-0.88 0.188-1.557 0.561-2.034 0.344-0.44 0.814-0.66 1.408-0.66m0-0.88c-1.033 0-1.83 0.406-2.387 1.221-0.441 0.645-0.66 1.43-0.66 2.353 0 1.086 0.289 1.973 0.869 2.662 0.549 0.661 1.276 0.991 2.178 0.991 1.027 0 1.822-0.422 2.387-1.265 0.439-0.66 0.66-1.456 0.66-2.388 0-1.077-0.289-1.95-0.869-2.617-0.551-0.639-1.276-0.957-2.178-0.957" fill="#004f53"/>
    </g>
    <g transform="translate(536.39 8641.8)">
     <path d="m0 0-1.133-3.311h2.266zm-0.484 1.232h0.968l2.52-6.962h-1.045l-0.529 1.572h-2.848l-0.539-1.572h-1.045z" fill="#004f53"/>
    </g>
    <g transform="translate(542.39 8636.9)">
     <path d="m0 0c0.234-0.052 0.498-0.077 0.791-0.077 0.83 0 1.457 0.264 1.881 0.792 0.389 0.484 0.584 1.162 0.584 2.035 0 0.938-0.272 1.657-0.815 2.156-0.439 0.41-1 0.615-1.681 0.615-0.301 0-0.555-0.025-0.76-0.076zm-1.023 6.193c0.55 0.095 1.132 0.143 1.75 0.143 1.209 0 2.136-0.363 2.783-1.089 0.549-0.616 0.824-1.434 0.824-2.453 0-1.239-0.346-2.182-1.033-2.827-0.61-0.572-1.446-0.858-2.51-0.858-0.66 0-1.264 0.048-1.814 0.143z" fill="#004f53"/>
    </g>
    <g transform="translate(550.09 8641.8)">
     <path d="m0 0v-5.73h-1.012v6.962h1.299c0.565-1.173 1.158-2.779 1.781-4.818 0.139-0.454 0.246-0.803 0.319-1.045 0.066 0.213 0.14 0.447 0.22 0.704 0.69 2.2 1.321 3.92 1.893 5.159h1.309v-6.962h-1.024v5.752c-0.285-1.019-0.945-2.937-1.98-5.752h-0.813c-0.33 0.769-0.707 1.765-1.129 2.986s-0.709 2.136-0.863 2.744" fill="#004f53"/>
    </g>
    <g transform="translate(560.88 8641.8)">
     <path d="m0 0-1.133-3.311h2.266zm-0.484 1.232h0.968l2.52-6.962h-1.045l-0.529 1.572h-2.848l-0.539-1.572h-1.045z" fill="#004f53"/>
    </g>
    <g transform="translate(566.89 8642.3)">
     <path d="m0 0v-2.574c0.295-0.052 0.598-0.077 0.914-0.077 0.865 0 1.297 0.468 1.297 1.408 0 0.88-0.465 1.319-1.397 1.319-0.337 0-0.609-0.025-0.814-0.076m-1.021-6.204v6.952c0.644 0.095 1.238 0.143 1.781 0.143 1.687 0 2.529-0.711 2.529-2.134 0-0.771-0.256-1.354-0.769-1.749-0.418-0.323-0.954-0.485-1.606-0.485-0.316 0-0.619 0.026-0.914 0.078v-2.805z" fill="#004f53"/>
    </g>
    <g transform="translate(640.64 8642.2)">
     <path d="m0 0h-2.09v0.847h5.367v-0.847h-2.254v-6.116h-1.023z" fill="#004f53"/>
    </g>
    <g transform="translate(645.92 8643.1)">
     <path d="m0 0h4.246v-0.847h-3.225v-2.079h2.708v-0.847h-2.708v-2.343h3.368v-0.847h-4.389z" fill="#004f53"/>
    </g>
    <g transform="translate(654.78 8641.8)">
     <path d="m0 0-1.133-3.311h2.266zm-0.484 1.232h0.968l2.518-6.962h-1.045l-0.527 1.572h-2.85l-0.539-1.572h-1.045z" fill="#004f53"/>
    </g>
    <g transform="translate(660.78 8641.8)">
     <path d="m0 0v-5.73h-1.012v6.962h1.299c0.565-1.173 1.158-2.779 1.781-4.818 0.139-0.454 0.246-0.803 0.319-1.045 0.066 0.213 0.14 0.447 0.22 0.704 0.69 2.2 1.321 3.92 1.893 5.159h1.309v-6.962h-1.024v5.752c-0.285-1.019-0.945-2.937-1.98-5.752h-0.813c-0.33 0.769-0.707 1.765-1.129 2.986s-0.709 2.136-0.863 2.744" fill="#004f53"/>
    </g>
    <g transform="translate(315.01 8641.8)">
     <path d="m0 0-1.133-3.311h2.266zm-0.484 1.232h0.968l2.52-6.962h-1.045l-0.529 1.572h-2.848l-0.539-1.572h-1.045z" fill="#004f53"/>
    </g>
    <g transform="translate(321.02 8639.4)">
     <path d="m0 0v-2.508c0.258-0.052 0.584-0.077 0.98-0.077 0.946 0 1.418 0.399 1.418 1.199 0 0.44-0.121 0.782-0.363 1.023-0.242 0.242-0.582 0.363-1.021 0.363zm0 2.938v-2.102h1.035c0.367 0 0.658 0.086 0.875 0.259 0.215 0.172 0.324 0.405 0.324 0.698 0 0.814-0.466 1.221-1.398 1.221-0.336 0-0.615-0.026-0.836-0.076m-1.021-6.194v6.942c0.63 0.094 1.253 0.142 1.869 0.142 0.873 0 1.513-0.205 1.925-0.616 0.331-0.33 0.495-0.767 0.495-1.309 0-0.359-0.123-0.678-0.37-0.957-0.244-0.279-0.546-0.444-0.906-0.495v-0.011c0.455-0.066 0.815-0.262 1.084-0.588 0.268-0.327 0.401-0.743 0.401-1.248 0-0.661-0.268-1.17-0.803-1.53-0.463-0.315-1.07-0.472-1.826-0.472-0.674 0-1.299 0.047-1.869 0.142" fill="#004f53"/>
    </g>
    <g transform="translate(329.46 8636.9)">
     <path d="m0 0c0.682 0 1.195 0.282 1.539 0.847 0.287 0.469 0.43 1.085 0.43 1.847 0 0.888-0.188 1.581-0.561 2.079-0.346 0.462-0.814 0.694-1.408 0.694-0.676 0-1.187-0.297-1.541-0.891-0.285-0.484-0.428-1.111-0.428-1.882 0-0.88 0.188-1.557 0.561-2.034 0.344-0.44 0.814-0.66 1.408-0.66m0-0.88c-1.033 0-1.83 0.406-2.387 1.221-0.441 0.645-0.66 1.43-0.66 2.353 0 1.086 0.289 1.973 0.869 2.662 0.549 0.661 1.276 0.991 2.178 0.991 1.027 0 1.822-0.422 2.387-1.265 0.439-0.66 0.66-1.456 0.66-2.388 0-1.077-0.289-1.95-0.869-2.617-0.551-0.639-1.276-0.957-2.178-0.957" fill="#004f53"/>
    </g>
    <g transform="translate(339.97 8639)">
     <path d="m0 0c0-2.031-0.85-3.047-2.551-3.047s-2.553 1.016-2.553 3.047v4.048h1.036v-4.279c0-1.291 0.505-1.936 1.517-1.936s1.518 0.645 1.518 1.936v4.279h1.033z" fill="#004f53"/>
    </g>
    <g transform="translate(344.14 8642.2)">
     <path d="m0 0h-2.09v0.847h5.367v-0.847h-2.256v-6.116h-1.021z" fill="#004f53"/>
    </g>
    <g transform="translate(1055 8636.8)">
     <path d="m0 0c-0.616-0.535-1.287-0.803-2.014-0.803-1.055 0-1.873 0.407-2.452 1.221-0.455 0.645-0.682 1.419-0.682 2.321 0 1.027 0.282 1.904 0.847 2.629 0.557 0.704 1.265 1.057 2.122 1.057 0.763 0 1.46-0.254 2.091-0.76l-0.407-0.615c-0.499 0.329-0.994 0.494-1.485 0.494-0.667 0-1.192-0.274-1.574-0.824-0.344-0.499-0.516-1.159-0.516-1.981 0-0.813 0.216-1.467 0.649-1.958 0.396-0.455 0.909-0.681 1.54-0.681 0.477 0 0.968 0.171 1.474 0.516z" fill="#004f53"/>
    </g>
    <g transform="translate(1060 8636.9)">
     <path d="m0 0c0.683 0 1.195 0.282 1.54 0.848 0.286 0.468 0.43 1.085 0.43 1.847 0 0.887-0.188 1.58-0.562 2.079-0.345 0.462-0.813 0.693-1.408 0.693-0.675 0-1.187-0.297-1.54-0.891-0.285-0.484-0.429-1.111-0.429-1.881 0-0.88 0.188-1.558 0.562-2.035 0.344-0.44 0.813-0.66 1.407-0.66m0-0.88c-1.033 0-1.829 0.407-2.387 1.221-0.44 0.645-0.66 1.43-0.66 2.354 0 1.085 0.29 1.973 0.869 2.662 0.55 0.661 1.277 0.991 2.178 0.991 1.027 0 1.822-0.422 2.388-1.266 0.439-0.66 0.659-1.456 0.659-2.387 0-1.078-0.289-1.951-0.868-2.618-0.551-0.638-1.277-0.957-2.179-0.957" fill="#004f53"/>
    </g>
    <g transform="translate(1066.4 8641.8)">
     <path d="m0 0v-5.731h-1.012v6.962h1.298c0.565-1.172 1.158-2.779 1.782-4.817 0.139-0.455 0.245-0.804 0.319-1.045 0.066 0.212 0.139 0.447 0.22 0.704 0.689 2.199 1.32 3.919 1.892 5.158h1.309v-6.962h-1.023v5.752c-0.286-1.019-0.946-2.936-1.98-5.752h-0.814c-0.33 0.77-0.706 1.765-1.128 2.986-0.422 1.222-0.709 2.136-0.863 2.745" fill="#004f53"/>
    </g>
    <g transform="translate(1076 8641.8)">
     <path d="m0 0v-5.731h-1.012v6.962h1.298c0.565-1.172 1.158-2.779 1.782-4.817 0.139-0.455 0.245-0.804 0.319-1.045 0.066 0.212 0.139 0.447 0.22 0.704 0.689 2.199 1.32 3.919 1.892 5.158h1.309v-6.962h-1.023v5.752c-0.286-1.019-0.946-2.936-1.98-5.752h-0.814c-0.33 0.77-0.706 1.765-1.128 2.986-0.422 1.222-0.709 2.136-0.863 2.745" fill="#004f53"/>
    </g>
    <g transform="translate(1089.7 8639)">
     <path d="m0 0c0-2.031-0.851-3.047-2.552-3.047s-2.552 1.016-2.552 3.047v4.048h1.035v-4.278c0-1.291 0.506-1.937 1.517-1.937 1.012 0 1.518 0.646 1.518 1.937v4.278h1.034z" fill="#004f53"/>
    </g>
    <g transform="translate(1093.5 8641.4)">
     <path d="m0 0v-5.27h-1.012v6.963h0.891c1.467-2.126 2.643-3.922 3.531-5.389v5.389h1.023v-6.963h-0.912c-0.749 1.035-1.922 2.791-3.521 5.27" fill="#004f53"/>
    </g>
    <path d="m1101.8 8636.1h-1.012v6.963h1.012z" fill="#004f53"/>
    <g transform="translate(1106 8642.2)">
     <path d="m0 0h-2.09v0.847h5.367v-0.847h-2.255v-6.116h-1.022z" fill="#004f53"/>
    </g>
    <g transform="translate(1110.5 8643.1)">
     <path d="m0 0h1.089l1.782-3.388 1.771 3.388h1.089l-2.354-4.224v-2.739h-1.012v2.739z" fill="#004f53"/>
    </g>
    <g transform="translate(750.83 8636.1)">
     <path d="m0 0v6.963h4.246v-0.847h-3.224v-2.091h2.707v-0.846h-2.707v-3.179z" fill="#004f53"/>
    </g>
    <g transform="translate(759.12 8641.8)">
     <path d="m0 0-1.133-3.311h2.266zm-0.484 1.232h0.968l2.519-6.962h-1.045l-0.528 1.572h-2.849l-0.539-1.572h-1.045z" fill="#004f53"/>
    </g>
    <g transform="translate(764.52 8639.5)">
     <path d="m0 0c0-0.88 0.187-1.559 0.562-2.035 0.343-0.433 0.813-0.649 1.407-0.649 0.682 0 1.195 0.279 1.54 0.836 0.286 0.469 0.429 1.085 0.429 1.848 0 0.888-0.187 1.584-0.561 2.09-0.345 0.462-0.814 0.693-1.408 0.693-0.675 0-1.188-0.297-1.54-0.89-0.285-0.493-0.429-1.122-0.429-1.893m2.651-3.487c-0.242-0.051-0.469-0.076-0.682-0.076-1.033 0-1.829 0.402-2.387 1.209-0.44 0.645-0.66 1.43-0.66 2.354 0 1.101 0.293 1.995 0.88 2.685 0.557 0.652 1.28 0.978 2.167 0.978 1.027 0 1.822-0.422 2.387-1.265 0.44-0.668 0.66-1.466 0.66-2.398 0-0.704-0.134-1.336-0.402-1.897-0.267-0.561-0.635-0.985-1.105-1.271l1.364-1.441h-1.187z" fill="#004f53"/>
    </g>
    <g transform="translate(848.24 8641)">
     <path d="m0 0-1.133-3.311h2.266zm-0.484 1.232h0.968l2.52-6.962h-1.045l-0.529 1.572h-2.848l-0.539-1.572h-1.045z" fill="#004f53"/>
    </g>
    <path d="m854.24 8635.3h-1.012v6.963h1.012z" fill="#004f53"/>
    <g transform="translate(858.06 8641.5)">
     <path d="m0 0v-2.574c0.293-0.052 0.568-0.077 0.824-0.077 0.924 0 1.387 0.468 1.387 1.408 0 0.88-0.467 1.319-1.397 1.319-0.337 0-0.609-0.025-0.814-0.076m-1.023-6.204v6.952c0.644 0.095 1.24 0.143 1.783 0.143 1.685 0 2.529-0.711 2.529-2.134 0-0.924-0.381-1.577-1.144-1.958l1.386-3.003h-1.035l-1.254 2.75c-0.096-0.015-0.234-0.023-0.418-0.023-0.256 0-0.531 0.026-0.824 0.078v-2.805z" fill="#004f53"/>
    </g>
    <g transform="translate(864.7 8636)">
     <path d="m0 0c0.236-0.052 0.5-0.077 0.793-0.077 0.828 0 1.455 0.264 1.881 0.792 0.389 0.484 0.582 1.162 0.582 2.035 0 0.938-0.27 1.657-0.813 2.156-0.441 0.41-1.002 0.615-1.683 0.615-0.301 0-0.555-0.025-0.76-0.076zm-1.021 6.193c0.548 0.095 1.132 0.143 1.748 0.143 1.21 0 2.138-0.363 2.783-1.089 0.551-0.616 0.824-1.434 0.824-2.453 0-1.239-0.344-2.182-1.033-2.827-0.61-0.572-1.446-0.858-2.508-0.858-0.66 0-1.266 0.048-1.814 0.143z" fill="#004f53"/>
    </g>
    <g transform="translate(872.41 8641.5)">
     <path d="m0 0v-2.574c0.295-0.052 0.568-0.077 0.826-0.077 0.924 0 1.385 0.468 1.385 1.408 0 0.88-0.465 1.319-1.397 1.319-0.337 0-0.609-0.025-0.814-0.076m-1.021-6.204v6.952c0.644 0.095 1.238 0.143 1.781 0.143 1.687 0 2.529-0.711 2.529-2.134 0-0.924-0.381-1.577-1.143-1.958l1.385-3.003h-1.033l-1.254 2.75c-0.096-0.015-0.234-0.023-0.418-0.023-0.258 0-0.531 0.026-0.826 0.078v-2.805z" fill="#004f53"/>
    </g>
    <g transform="translate(880.64 8636)">
     <path d="m0 0c0.684 0 1.195 0.282 1.541 0.847 0.285 0.469 0.43 1.085 0.43 1.847 0 0.888-0.188 1.581-0.563 2.079-0.344 0.462-0.812 0.694-1.408 0.694-0.674 0-1.187-0.297-1.539-0.891-0.285-0.484-0.43-1.111-0.43-1.882 0-0.88 0.188-1.557 0.563-2.034 0.344-0.44 0.812-0.66 1.406-0.66m0-0.88c-1.033 0-1.828 0.406-2.387 1.221-0.439 0.645-0.66 1.43-0.66 2.353 0 1.086 0.291 1.973 0.869 2.662 0.551 0.661 1.278 0.991 2.178 0.991 1.027 0 1.822-0.422 2.389-1.265 0.439-0.66 0.658-1.456 0.658-2.388 0-1.077-0.289-1.95-0.867-2.617-0.551-0.639-1.278-0.957-2.18-0.957" fill="#004f53"/>
    </g>
    <g transform="translate(887.07 8641.5)">
     <path d="m0 0v-2.574c0.293-0.052 0.598-0.077 0.912-0.077 0.865 0 1.299 0.468 1.299 1.408 0 0.88-0.467 1.319-1.397 1.319-0.337 0-0.609-0.025-0.814-0.076m-1.023-6.204v6.952c0.644 0.095 1.24 0.143 1.783 0.143 1.685 0 2.529-0.711 2.529-2.134 0-0.771-0.258-1.354-0.769-1.749-0.418-0.323-0.956-0.485-1.608-0.485-0.314 0-0.619 0.026-0.912 0.078v-2.805z" fill="#004f53"/>
    </g>
    <g transform="translate(956.96 8641.4)">
     <path d="m0 0h-2.09v0.847h5.367v-0.847h-2.255v-6.116h-1.022z" fill="#004f53"/>
    </g>
    <g transform="translate(964.72 8636)">
     <path d="m0 0c0.683 0 1.195 0.282 1.54 0.847 0.286 0.469 0.43 1.085 0.43 1.847 0 0.888-0.188 1.581-0.562 2.079-0.345 0.462-0.813 0.694-1.408 0.694-0.675 0-1.187-0.297-1.54-0.891-0.285-0.484-0.429-1.111-0.429-1.882 0-0.88 0.188-1.557 0.562-2.034 0.344-0.44 0.813-0.66 1.407-0.66m0-0.88c-1.033 0-1.829 0.406-2.387 1.221-0.44 0.645-0.66 1.43-0.66 2.353 0 1.086 0.29 1.973 0.869 2.662 0.55 0.661 1.277 0.991 2.178 0.991 1.027 0 1.822-0.422 2.388-1.265 0.439-0.66 0.659-1.456 0.659-2.388 0-1.077-0.289-1.95-0.868-2.617-0.551-0.639-1.277-0.957-2.179-0.957" fill="#004f53"/>
    </g>
    <g transform="translate(971.11 8638.7)">
     <path d="m0 0v-3.388h-0.99v6.963h0.99v-3.003h0.011l2.409 3.003h1.242l-2.683-3.278 2.925-3.685h-1.331l-2.562 3.388z" fill="#004f53"/>
    </g>
    <g transform="translate(976.9 8642.3)">
     <path d="m0 0h4.246v-0.847h-3.224v-2.079h2.707v-0.847h-2.707v-2.343h3.367v-0.847h-4.389z" fill="#004f53"/>
    </g>
    <g transform="translate(984.61 8640.6)">
     <path d="m0 0v-5.269h-1.012v6.963h0.891c1.467-2.127 2.643-3.923 3.531-5.39v5.39h1.023v-6.963h-0.912c-0.749 1.035-1.922 2.79-3.521 5.269" fill="#004f53"/>
    </g>
    <g transform="translate(995.28 8641.1)">
     <path d="m0 0c-0.499 0.249-1.001 0.374-1.507 0.374-0.359 0-0.652-0.082-0.88-0.247-0.227-0.165-0.341-0.376-0.341-0.633 0-0.462 0.304-0.806 0.914-1.034 0.909-0.337 1.553-0.691 1.935-1.062 0.381-0.37 0.572-0.826 0.572-1.369 0-0.66-0.253-1.176-0.758-1.55-0.412-0.309-0.921-0.462-1.53-0.462-0.726 0-1.481 0.249-2.266 0.748l0.44 0.627c0.491-0.301 1.064-0.452 1.716-0.452 0.894 0 1.342 0.377 1.342 1.133 0 0.587-0.377 1.008-1.133 1.265-0.792 0.271-1.365 0.572-1.722 0.902-0.355 0.33-0.533 0.73-0.533 1.199 0 0.557 0.217 1.004 0.649 1.342 0.396 0.308 0.916 0.462 1.562 0.462 0.727 0 1.386-0.205 1.98-0.616z" fill="#004f53"/>
    </g>
   </g>
  </g>
  <g fill="#004f53">
   <path d="m-41.598 224.45c-0.58208 4e-3 -1.0982 0.0219-1.6242 0.0882l-1.2598 2.521h-9.7384c-0.0949 0.34184 0.08819 0.54751 0.32667 0.74401h9.6432c0.1397 0 0.26917-0.0801 0.33267-0.20532l1.1575-2.3149v8.8646h0.74401v-8.8646l1.1578 2.3149c0.06385 0.12523 0.19297 0.20532 0.33514 0.20532h1.3847c0.01235-0.23954 0.01764-0.48649 0.02011-0.74401h-1.1758z"/>
   <path d="m-39.119 227.06c-0.0025 0.25717-0.0078 0.50447-0.02011 0.74401h0.10548v5.5905c0 0.61666-0.50236 1.1194-1.1194 1.1194h-1.8637v-0.36583h-0.74401v0.36583h-10.064c-0.61666 0-1.1172-0.50271-1.1172-1.1194v-5.5905h0.04763c-0.23848-0.1965-0.42157-0.40217-0.32667-0.74401h-1.355l1.4919-2.9831h11.092l-0.23072 0.46214c0.52599-0.0663 1.0421-0.085 1.6242-0.0882l-0.18662-0.37395h2.8928l1.4908 2.9831zm-0.4819-3.0953h-4.3646zm3.1365 3.3006-1.8634-3.7267c-0.0635-0.12735-0.19297-0.20532-0.33267-0.20532h-15.654c-0.14217 0-0.26952 0.078-0.33338 0.20532l-1.8634 3.7267c-0.05821 0.11466-0.05256 0.25295 0.01623 0.36195 0.06773 0.10972 0.18768 0.17675 0.3168 0.17675h1.4905v5.5905c0 1.0284 0.83714 1.8634 1.8634 1.8634h12.671c1.028 0 1.8634-0.83503 1.8634-1.8634v-5.5905h1.4926c0.12912 0 0.24765-0.067 0.31644-0.17675 0.06738-0.109 0.07444-0.24729 0.01623-0.36195"/>
   <path d="m-47.756 232.15c-0.06385 0.0275-0.11642 0.0713-0.15452 0.12559h-0.06738v-1.1194h0.37112v-0.74401h-1.4905v0.74401h0.37324v1.1194h-0.06914c-0.0381-0.0543-0.09102-0.0981-0.15452-0.12559-0.54292-0.23813-0.89359-0.77506-0.89359-1.3646 0-0.82268 0.66746-1.4926 1.4905-1.4926 0.82197 0 1.4901 0.66992 1.4901 1.4926 0 0.58949-0.35137 1.1264-0.89535 1.3646m-0.59478-3.6012c-1.2344 0-2.237 1.0026-2.237 2.2366 0 0.8061 0.43533 1.543 1.1268 1.9378 0.03422 0.16933 0.18344 0.29633 0.36371 0.29633h1.4905c0.18027 0 0.33126-0.127 0.36618-0.29633 0.69109-0.39476 1.1264-1.1317 1.1264-1.9378 0-1.234-1.0051-2.2366-2.2366-2.2366"/>
   <path d="m-49.097 233.39h1.4905v0.74648h-1.4905z"/>
   <path d="m-52.078 230.41h0.74436v0.74436h-0.74436z"/>
   <path d="m-45.37 230.41h0.74648v0.74436h-0.74648z"/>
   <path d="m-51.25 228.41 0.52599-0.52599 0.52776 0.52599-0.52776 0.52811z"/>
   <path d="m-46.508 233.15 0.52776-0.52741 0.5274 0.52741-0.5274 0.52775z"/>
   <path d="m-51.25 233.15 0.52599-0.52741 0.52776 0.52741-0.52776 0.52775z"/>
   <path d="m-46.508 228.41 0.52776-0.52599 0.5274 0.52599-0.5274 0.52811z"/>
   <path d="m-52.078 218.4c0.61666 0 1.1172 0.50024 1.1172 1.1172 0 0.61665-0.50059 1.1169-1.1172 1.1169-0.61666 0-1.1194-0.50024-1.1194-1.1169 0-0.61701 0.50271-1.1172 1.1194-1.1172m0 2.9806c1.0262 0 1.8634-0.83538 1.8634-1.8634 0-1.0284-0.83714-1.8637-1.8634-1.8637-1.0283 0-1.8634 0.83538-1.8634 1.8637 0 1.028 0.83502 1.8634 1.8634 1.8634"/>
   <path d="m-41.27 218.4c0.61666 0 1.1172 0.50024 1.1172 1.1172 0 0.61665-0.50059 1.1169-1.1172 1.1169-0.61666 0-1.1172-0.50024-1.1172-1.1169 0-0.61701 0.50059-1.1172 1.1172-1.1172m0 2.9806c1.028 0 1.8634-0.83538 1.8634-1.8634 0-1.0284-0.83538-1.8637-1.8634-1.8637-1.028 0-1.8634 0.83538-1.8634 1.8637 0 1.028 0.83538 1.8634 1.8634 1.8634"/>
   <path d="m-52.451 216.91h0.74648c0-2.4659-2.0077-4.4711-4.4736-4.4711v0.74401c2.0546 0 3.7271 1.6725 3.7271 3.7271"/>
   <path d="m-41.644 216.91h0.74648c0-2.6712 2.1728-4.844 4.844-4.844v-0.74648c-3.0826 0-5.5905 2.5079-5.5905 5.5905"/>
   <path d="m-46.861 215.04h0.74648c0-2.6712-2.1749-4.844-4.8465-4.844v0.74612c2.2602 0 4.1 1.838 4.1 4.0979"/>
   <path d="m-43.507 214.67c0-1.6457 1.3374-2.9831 2.9831-2.9831v-0.74401c-2.0563 0-3.7271 1.67-3.7271 3.7271z"/>
   <path d="m-56.178 215.79c1.0283 0 1.8634 0.83538 1.8634 1.8634h0.74648c0-1.4393-1.1702-2.6098-2.6098-2.6098z"/>
   <path d="m-49.842 216.16h0.74401c0-3.2886-2.6751-5.9637-5.9637-5.9637v0.74648c2.8773 0 5.2197 2.34 5.2197 5.2172"/>
   <path d="m-57.669 212.44h0.74436v0.74436h-0.74436z"/>
   <path d="m-57.669 215.04h0.74436v0.74647h-0.74436z"/>
   <path d="m-56.551 210.2h0.74648v0.74648h-0.74648z"/>
   <path d="m-58.042 210.2h0.74648v0.74648h-0.74648z"/>
   <path d="m-49.842 216.91h0.74436v0.74613h-0.74436z"/>
   <path d="m-44.251 215.42h0.74436v0.74613h-0.74436z"/>
   <path d="m-35.307 211.32h0.74436v0.74648h-0.74436z"/>
   <path d="m-43.88 210.95v-0.74648c-1.2319 0-2.2345 1.003-2.2345 2.237h0.74401c0-0.82267 0.66992-1.4905 1.4905-1.4905"/>
   <path d="m-43.507 216.91h0.74648v0.74613h-0.74648z"/>
   <path d="m-46.861 215.79h0.74648v0.74648h-0.74648z"/>
   <path d="m-45.371 219.52c0 0.61701-0.50024 1.1172-1.1172 1.1172-0.61666 0-1.1194-0.50024-1.1194-1.1172 0-0.61665 0.50271-1.1172 1.1194-1.1172 0.61701 0 1.1172 0.50059 1.1172 1.1172m-1.4901-1.8253c-0.84984 0.17286-1.4905 0.92428-1.4905 1.8253 0 1.0284 0.83538 1.8637 1.8634 1.8637 1.0262 0 1.8637-0.83538 1.8637-1.8637 0-0.89888-0.64276-1.6524-1.4905-1.8253v-0.41134h-0.74612z"/>
  </g>
 </g>
</svg>
