<?xml version="1.0" encoding="UTF-8"?>
<!-- Created with Inkscape (http://www.inkscape.org/) -->
<svg width="24.861mm" height="15.538mm" version="1.1" viewBox="0 0 24.861 15.538" xmlns="http://www.w3.org/2000/svg" xmlns:cc="http://creativecommons.org/ns#" xmlns:dc="http://purl.org/dc/elements/1.1/" xmlns:rdf="http://www.w3.org/1999/02/22-rdf-syntax-ns#">
 <defs>
  <clipPath id="clipPath4694">
   <path d="m0 8681.9h1280v-8681.9h-1280z"/>
  </clipPath>
 </defs>
 <metadata>
  <rdf:RDF>
   <cc:Work rdf:about="">
    <dc:format>image/svg+xml</dc:format>
    <dc:type rdf:resource="http://purl.org/dc/dcmitype/StillImage"/>
    <dc:title/>
   </cc:Work>
  </rdf:RDF>
 </metadata>
 <g transform="translate(-100.4 -256.35)">
  <g transform="matrix(.35278 0 0 -.35278 -27.985 2600.3)">
   <g clip-path="url(#clipPath4694)">
    <g transform="translate(293.83 4234.3)">
     <path d="M 0,0 -5.755,4.18 0,8.359" fill="none" stroke="#fff" stroke-linecap="round" stroke-linejoin="round" stroke-miterlimit="10" stroke-width="2"/>
    </g>
    <g transform="translate(992.38 4234)">
     <path d="M 0,0 5.755,4.18 0,8.359" fill="none" stroke="#fff" stroke-linecap="round" stroke-linejoin="round" stroke-miterlimit="10" stroke-width="2"/>
    </g>
    <g transform="translate(536.39 8641.8)">
     <path d="m0 0-1.133-3.311h2.266zm-0.484 1.232h0.968l2.52-6.962h-1.045l-0.529 1.572h-2.848l-0.539-1.572h-1.045z" fill="#004f53"/>
    </g>
    <g transform="translate(542.39 8636.9)">
     <path d="m0 0c0.234-0.052 0.498-0.077 0.791-0.077 0.83 0 1.457 0.264 1.881 0.792 0.389 0.484 0.584 1.162 0.584 2.035 0 0.938-0.272 1.657-0.815 2.156-0.439 0.41-1 0.615-1.681 0.615-0.301 0-0.555-0.025-0.76-0.076zm-1.023 6.193c0.55 0.095 1.132 0.143 1.75 0.143 1.209 0 2.136-0.363 2.783-1.089 0.549-0.616 0.824-1.434 0.824-2.453 0-1.239-0.346-2.182-1.033-2.827-0.61-0.572-1.446-0.858-2.51-0.858-0.66 0-1.264 0.048-1.814 0.143z" fill="#004f53"/>
    </g>
    <g transform="translate(550.09 8641.8)">
     <path d="m0 0v-5.73h-1.012v6.962h1.299c0.565-1.173 1.158-2.779 1.781-4.818 0.139-0.454 0.246-0.803 0.319-1.045 0.066 0.213 0.14 0.447 0.22 0.704 0.69 2.2 1.321 3.92 1.893 5.159h1.309v-6.962h-1.024v5.752c-0.285-1.019-0.945-2.937-1.98-5.752h-0.813c-0.33 0.769-0.707 1.765-1.129 2.986s-0.709 2.136-0.863 2.744" fill="#004f53"/>
    </g>
    <g transform="translate(560.88 8641.8)">
     <path d="m0 0-1.133-3.311h2.266zm-0.484 1.232h0.968l2.52-6.962h-1.045l-0.529 1.572h-2.848l-0.539-1.572h-1.045z" fill="#004f53"/>
    </g>
    <g transform="translate(566.89 8642.3)">
     <path d="m0 0v-2.574c0.295-0.052 0.598-0.077 0.914-0.077 0.865 0 1.297 0.468 1.297 1.408 0 0.88-0.465 1.319-1.397 1.319-0.337 0-0.609-0.025-0.814-0.076m-1.021-6.204v6.952c0.644 0.095 1.238 0.143 1.781 0.143 1.687 0 2.529-0.711 2.529-2.134 0-0.771-0.256-1.354-0.769-1.749-0.418-0.323-0.954-0.485-1.606-0.485-0.316 0-0.619 0.026-0.914 0.078v-2.805z" fill="#004f53"/>
    </g>
    <g transform="translate(640.64 8642.2)">
     <path d="m0 0h-2.09v0.847h5.367v-0.847h-2.254v-6.116h-1.023z" fill="#004f53"/>
    </g>
    <g transform="translate(645.92 8643.1)">
     <path d="m0 0h4.246v-0.847h-3.225v-2.079h2.708v-0.847h-2.708v-2.343h3.368v-0.847h-4.389z" fill="#004f53"/>
    </g>
    <g transform="translate(654.78 8641.8)">
     <path d="m0 0-1.133-3.311h2.266zm-0.484 1.232h0.968l2.518-6.962h-1.045l-0.527 1.572h-2.85l-0.539-1.572h-1.045z" fill="#004f53"/>
    </g>
    <g transform="translate(660.78 8641.8)">
     <path d="m0 0v-5.73h-1.012v6.962h1.299c0.565-1.173 1.158-2.779 1.781-4.818 0.139-0.454 0.246-0.803 0.319-1.045 0.066 0.213 0.14 0.447 0.22 0.704 0.69 2.2 1.321 3.92 1.893 5.159h1.309v-6.962h-1.024v5.752c-0.285-1.019-0.945-2.937-1.98-5.752h-0.813c-0.33 0.769-0.707 1.765-1.129 2.986s-0.709 2.136-0.863 2.744" fill="#004f53"/>
    </g>
    <g transform="translate(315.01 8641.8)">
     <path d="m0 0-1.133-3.311h2.266zm-0.484 1.232h0.968l2.52-6.962h-1.045l-0.529 1.572h-2.848l-0.539-1.572h-1.045z" fill="#004f53"/>
    </g>
    <g transform="translate(321.02 8639.4)">
     <path d="m0 0v-2.508c0.258-0.052 0.584-0.077 0.98-0.077 0.946 0 1.418 0.399 1.418 1.199 0 0.44-0.121 0.782-0.363 1.023-0.242 0.242-0.582 0.363-1.021 0.363zm0 2.938v-2.102h1.035c0.367 0 0.658 0.086 0.875 0.259 0.215 0.172 0.324 0.405 0.324 0.698 0 0.814-0.466 1.221-1.398 1.221-0.336 0-0.615-0.026-0.836-0.076m-1.021-6.194v6.942c0.63 0.094 1.253 0.142 1.869 0.142 0.873 0 1.513-0.205 1.925-0.616 0.331-0.33 0.495-0.767 0.495-1.309 0-0.359-0.123-0.678-0.37-0.957-0.244-0.279-0.546-0.444-0.906-0.495v-0.011c0.455-0.066 0.815-0.262 1.084-0.588 0.268-0.327 0.401-0.743 0.401-1.248 0-0.661-0.268-1.17-0.803-1.53-0.463-0.315-1.07-0.472-1.826-0.472-0.674 0-1.299 0.047-1.869 0.142" fill="#004f53"/>
    </g>
    <g transform="translate(329.46 8636.9)">
     <path d="m0 0c0.682 0 1.195 0.282 1.539 0.847 0.287 0.469 0.43 1.085 0.43 1.847 0 0.888-0.188 1.581-0.561 2.079-0.346 0.462-0.814 0.694-1.408 0.694-0.676 0-1.187-0.297-1.541-0.891-0.285-0.484-0.428-1.111-0.428-1.882 0-0.88 0.188-1.557 0.561-2.034 0.344-0.44 0.814-0.66 1.408-0.66m0-0.88c-1.033 0-1.83 0.406-2.387 1.221-0.441 0.645-0.66 1.43-0.66 2.353 0 1.086 0.289 1.973 0.869 2.662 0.549 0.661 1.276 0.991 2.178 0.991 1.027 0 1.822-0.422 2.387-1.265 0.439-0.66 0.66-1.456 0.66-2.388 0-1.077-0.289-1.95-0.869-2.617-0.551-0.639-1.276-0.957-2.178-0.957" fill="#004f53"/>
    </g>
    <g transform="translate(339.97 8639)">
     <path d="m0 0c0-2.031-0.85-3.047-2.551-3.047s-2.553 1.016-2.553 3.047v4.048h1.036v-4.279c0-1.291 0.505-1.936 1.517-1.936s1.518 0.645 1.518 1.936v4.279h1.033z" fill="#004f53"/>
    </g>
    <g transform="translate(344.14 8642.2)">
     <path d="m0 0h-2.09v0.847h5.367v-0.847h-2.256v-6.116h-1.021z" fill="#004f53"/>
    </g>
    <g transform="translate(1055 8636.8)">
     <path d="m0 0c-0.616-0.535-1.287-0.803-2.014-0.803-1.055 0-1.873 0.407-2.452 1.221-0.455 0.645-0.682 1.419-0.682 2.321 0 1.027 0.282 1.904 0.847 2.629 0.557 0.704 1.265 1.057 2.122 1.057 0.763 0 1.46-0.254 2.091-0.76l-0.407-0.615c-0.499 0.329-0.994 0.494-1.485 0.494-0.667 0-1.192-0.274-1.574-0.824-0.344-0.499-0.516-1.159-0.516-1.981 0-0.813 0.216-1.467 0.649-1.958 0.396-0.455 0.909-0.681 1.54-0.681 0.477 0 0.968 0.171 1.474 0.516z" fill="#004f53"/>
    </g>
    <g transform="translate(1060 8636.9)">
     <path d="m0 0c0.683 0 1.195 0.282 1.54 0.848 0.286 0.468 0.43 1.085 0.43 1.847 0 0.887-0.188 1.58-0.562 2.079-0.345 0.462-0.813 0.693-1.408 0.693-0.675 0-1.187-0.297-1.54-0.891-0.285-0.484-0.429-1.111-0.429-1.881 0-0.88 0.188-1.558 0.562-2.035 0.344-0.44 0.813-0.66 1.407-0.66m0-0.88c-1.033 0-1.829 0.407-2.387 1.221-0.44 0.645-0.66 1.43-0.66 2.354 0 1.085 0.29 1.973 0.869 2.662 0.55 0.661 1.277 0.991 2.178 0.991 1.027 0 1.822-0.422 2.388-1.266 0.439-0.66 0.659-1.456 0.659-2.387 0-1.078-0.289-1.951-0.868-2.618-0.551-0.638-1.277-0.957-2.179-0.957" fill="#004f53"/>
    </g>
    <g transform="translate(1066.4 8641.8)">
     <path d="m0 0v-5.731h-1.012v6.962h1.298c0.565-1.172 1.158-2.779 1.782-4.817 0.139-0.455 0.245-0.804 0.319-1.045 0.066 0.212 0.139 0.447 0.22 0.704 0.689 2.199 1.32 3.919 1.892 5.158h1.309v-6.962h-1.023v5.752c-0.286-1.019-0.946-2.936-1.98-5.752h-0.814c-0.33 0.77-0.706 1.765-1.128 2.986-0.422 1.222-0.709 2.136-0.863 2.745" fill="#004f53"/>
    </g>
    <g transform="translate(1076 8641.8)">
     <path d="m0 0v-5.731h-1.012v6.962h1.298c0.565-1.172 1.158-2.779 1.782-4.817 0.139-0.455 0.245-0.804 0.319-1.045 0.066 0.212 0.139 0.447 0.22 0.704 0.689 2.199 1.32 3.919 1.892 5.158h1.309v-6.962h-1.023v5.752c-0.286-1.019-0.946-2.936-1.98-5.752h-0.814c-0.33 0.77-0.706 1.765-1.128 2.986-0.422 1.222-0.709 2.136-0.863 2.745" fill="#004f53"/>
    </g>
    <g transform="translate(1089.7 8639)">
     <path d="m0 0c0-2.031-0.851-3.047-2.552-3.047s-2.552 1.016-2.552 3.047v4.048h1.035v-4.278c0-1.291 0.506-1.937 1.517-1.937 1.012 0 1.518 0.646 1.518 1.937v4.278h1.034z" fill="#004f53"/>
    </g>
    <g transform="translate(1093.5 8641.4)">
     <path d="m0 0v-5.27h-1.012v6.963h0.891c1.467-2.126 2.643-3.922 3.531-5.389v5.389h1.023v-6.963h-0.912c-0.749 1.035-1.922 2.791-3.521 5.27" fill="#004f53"/>
    </g>
    <path d="m1101.8 8636.1h-1.012v6.963h1.012z" fill="#004f53"/>
    <g transform="translate(1106 8642.2)">
     <path d="m0 0h-2.09v0.847h5.367v-0.847h-2.255v-6.116h-1.022z" fill="#004f53"/>
    </g>
    <g transform="translate(1110.5 8643.1)">
     <path d="m0 0h1.089l1.782-3.388 1.771 3.388h1.089l-2.354-4.224v-2.739h-1.012v2.739z" fill="#004f53"/>
    </g>
    <g transform="translate(750.83 8636.1)">
     <path d="m0 0v6.963h4.246v-0.847h-3.224v-2.091h2.707v-0.846h-2.707v-3.179z" fill="#004f53"/>
    </g>
    <g transform="translate(759.12 8641.8)">
     <path d="m0 0-1.133-3.311h2.266zm-0.484 1.232h0.968l2.519-6.962h-1.045l-0.528 1.572h-2.849l-0.539-1.572h-1.045z" fill="#004f53"/>
    </g>
    <g transform="translate(764.52 8639.5)">
     <path d="m0 0c0-0.88 0.187-1.559 0.562-2.035 0.343-0.433 0.813-0.649 1.407-0.649 0.682 0 1.195 0.279 1.54 0.836 0.286 0.469 0.429 1.085 0.429 1.848 0 0.888-0.187 1.584-0.561 2.09-0.345 0.462-0.814 0.693-1.408 0.693-0.675 0-1.188-0.297-1.54-0.89-0.285-0.493-0.429-1.122-0.429-1.893m2.651-3.487c-0.242-0.051-0.469-0.076-0.682-0.076-1.033 0-1.829 0.402-2.387 1.209-0.44 0.645-0.66 1.43-0.66 2.354 0 1.101 0.293 1.995 0.88 2.685 0.557 0.652 1.28 0.978 2.167 0.978 1.027 0 1.822-0.422 2.387-1.265 0.44-0.668 0.66-1.466 0.66-2.398 0-0.704-0.134-1.336-0.402-1.897-0.267-0.561-0.635-0.985-1.105-1.271l1.364-1.441h-1.187z" fill="#004f53"/>
    </g>
    <g transform="translate(848.24 8641)">
     <path d="m0 0-1.133-3.311h2.266zm-0.484 1.232h0.968l2.52-6.962h-1.045l-0.529 1.572h-2.848l-0.539-1.572h-1.045z" fill="#004f53"/>
    </g>
    <path d="m854.24 8635.3h-1.012v6.963h1.012z" fill="#004f53"/>
    <g transform="translate(858.06 8641.5)">
     <path d="m0 0v-2.574c0.293-0.052 0.568-0.077 0.824-0.077 0.924 0 1.387 0.468 1.387 1.408 0 0.88-0.467 1.319-1.397 1.319-0.337 0-0.609-0.025-0.814-0.076m-1.023-6.204v6.952c0.644 0.095 1.24 0.143 1.783 0.143 1.685 0 2.529-0.711 2.529-2.134 0-0.924-0.381-1.577-1.144-1.958l1.386-3.003h-1.035l-1.254 2.75c-0.096-0.015-0.234-0.023-0.418-0.023-0.256 0-0.531 0.026-0.824 0.078v-2.805z" fill="#004f53"/>
    </g>
    <g transform="translate(864.7 8636)">
     <path d="m0 0c0.236-0.052 0.5-0.077 0.793-0.077 0.828 0 1.455 0.264 1.881 0.792 0.389 0.484 0.582 1.162 0.582 2.035 0 0.938-0.27 1.657-0.813 2.156-0.441 0.41-1.002 0.615-1.683 0.615-0.301 0-0.555-0.025-0.76-0.076zm-1.021 6.193c0.548 0.095 1.132 0.143 1.748 0.143 1.21 0 2.138-0.363 2.783-1.089 0.551-0.616 0.824-1.434 0.824-2.453 0-1.239-0.344-2.182-1.033-2.827-0.61-0.572-1.446-0.858-2.508-0.858-0.66 0-1.266 0.048-1.814 0.143z" fill="#004f53"/>
    </g>
    <g transform="translate(872.41 8641.5)">
     <path d="m0 0v-2.574c0.295-0.052 0.568-0.077 0.826-0.077 0.924 0 1.385 0.468 1.385 1.408 0 0.88-0.465 1.319-1.397 1.319-0.337 0-0.609-0.025-0.814-0.076m-1.021-6.204v6.952c0.644 0.095 1.238 0.143 1.781 0.143 1.687 0 2.529-0.711 2.529-2.134 0-0.924-0.381-1.577-1.143-1.958l1.385-3.003h-1.033l-1.254 2.75c-0.096-0.015-0.234-0.023-0.418-0.023-0.258 0-0.531 0.026-0.826 0.078v-2.805z" fill="#004f53"/>
    </g>
    <g transform="translate(880.64 8636)">
     <path d="m0 0c0.684 0 1.195 0.282 1.541 0.847 0.285 0.469 0.43 1.085 0.43 1.847 0 0.888-0.188 1.581-0.563 2.079-0.344 0.462-0.812 0.694-1.408 0.694-0.674 0-1.187-0.297-1.539-0.891-0.285-0.484-0.43-1.111-0.43-1.882 0-0.88 0.188-1.557 0.563-2.034 0.344-0.44 0.812-0.66 1.406-0.66m0-0.88c-1.033 0-1.828 0.406-2.387 1.221-0.439 0.645-0.66 1.43-0.66 2.353 0 1.086 0.291 1.973 0.869 2.662 0.551 0.661 1.278 0.991 2.178 0.991 1.027 0 1.822-0.422 2.389-1.265 0.439-0.66 0.658-1.456 0.658-2.388 0-1.077-0.289-1.95-0.867-2.617-0.551-0.639-1.278-0.957-2.18-0.957" fill="#004f53"/>
    </g>
    <g transform="translate(887.07 8641.5)">
     <path d="m0 0v-2.574c0.293-0.052 0.598-0.077 0.912-0.077 0.865 0 1.299 0.468 1.299 1.408 0 0.88-0.467 1.319-1.397 1.319-0.337 0-0.609-0.025-0.814-0.076m-1.023-6.204v6.952c0.644 0.095 1.24 0.143 1.783 0.143 1.685 0 2.529-0.711 2.529-2.134 0-0.771-0.258-1.354-0.769-1.749-0.418-0.323-0.956-0.485-1.608-0.485-0.314 0-0.619 0.026-0.912 0.078v-2.805z" fill="#004f53"/>
    </g>
    <g transform="translate(956.96 8641.4)">
     <path d="m0 0h-2.09v0.847h5.367v-0.847h-2.255v-6.116h-1.022z" fill="#004f53"/>
    </g>
    <g transform="translate(964.72 8636)">
     <path d="m0 0c0.683 0 1.195 0.282 1.54 0.847 0.286 0.469 0.43 1.085 0.43 1.847 0 0.888-0.188 1.581-0.562 2.079-0.345 0.462-0.813 0.694-1.408 0.694-0.675 0-1.187-0.297-1.54-0.891-0.285-0.484-0.429-1.111-0.429-1.882 0-0.88 0.188-1.557 0.562-2.034 0.344-0.44 0.813-0.66 1.407-0.66m0-0.88c-1.033 0-1.829 0.406-2.387 1.221-0.44 0.645-0.66 1.43-0.66 2.353 0 1.086 0.29 1.973 0.869 2.662 0.55 0.661 1.277 0.991 2.178 0.991 1.027 0 1.822-0.422 2.388-1.265 0.439-0.66 0.659-1.456 0.659-2.388 0-1.077-0.289-1.95-0.868-2.617-0.551-0.639-1.277-0.957-2.179-0.957" fill="#004f53"/>
    </g>
    <g transform="translate(971.11 8638.7)">
     <path d="m0 0v-3.388h-0.99v6.963h0.99v-3.003h0.011l2.409 3.003h1.242l-2.683-3.278 2.925-3.685h-1.331l-2.562 3.388z" fill="#004f53"/>
    </g>
    <g transform="translate(976.9 8642.3)">
     <path d="m0 0h4.246v-0.847h-3.224v-2.079h2.707v-0.847h-2.707v-2.343h3.367v-0.847h-4.389z" fill="#004f53"/>
    </g>
    <g transform="translate(984.61 8640.6)">
     <path d="m0 0v-5.269h-1.012v6.963h0.891c1.467-2.127 2.643-3.923 3.531-5.39v5.39h1.023v-6.963h-0.912c-0.749 1.035-1.922 2.79-3.521 5.269" fill="#004f53"/>
    </g>
    <g transform="translate(995.28 8641.1)">
     <path d="m0 0c-0.499 0.249-1.001 0.374-1.507 0.374-0.359 0-0.652-0.082-0.88-0.247-0.227-0.165-0.341-0.376-0.341-0.633 0-0.462 0.304-0.806 0.914-1.034 0.909-0.337 1.553-0.691 1.935-1.062 0.381-0.37 0.572-0.826 0.572-1.369 0-0.66-0.253-1.176-0.758-1.55-0.412-0.309-0.921-0.462-1.53-0.462-0.726 0-1.481 0.249-2.266 0.748l0.44 0.627c0.491-0.301 1.064-0.452 1.716-0.452 0.894 0 1.342 0.377 1.342 1.133 0 0.587-0.377 1.008-1.133 1.265-0.792 0.271-1.365 0.572-1.722 0.902-0.355 0.33-0.533 0.73-0.533 1.199 0 0.557 0.217 1.004 0.649 1.342 0.396 0.308 0.916 0.462 1.562 0.462 0.727 0 1.386-0.205 1.98-0.616z" fill="#004f53"/>
    </g>
   </g>
  </g>
  <g fill="#004f53">
   <path d="m112.83 271.89c-0.63606 0-1.4577-0.35243-1.8387-0.6029-0.46214-0.30339-2.7802-2.0468-4.7092-3.6618-0.32103-0.26953-0.79869-0.76871-1.2608-1.2513-0.3429-0.35736-0.65334-0.6858-0.81421-0.82162-0.21837-0.1845-0.24553-0.51188-0.061-0.73025 0.18345-0.21978 0.50977-0.24765 0.73025-0.061 0.17639 0.14888 0.51894 0.50448 0.89394 0.89606 0.42263 0.44133 0.90135 0.94051 1.1779 1.1737 1.9692 1.6489 4.2492 3.35 4.6129 3.5892 0.30339 0.20109 0.92392 0.43392 1.2689 0.43392 0.48472 0 0.52917-0.12418 0.54892-0.17604 0.0593-0.16227 0.19473-0.28469 0.36371-0.32596 0.16687-0.0406 0.34502 4e-3 0.47343 0.11994 0.20602 0.18874 0.43604 0.1524 0.59443 0.0921 0.32844-0.12735 0.58032-0.45367 0.61137-0.7934 0.0187-0.19685 0.1471-0.36653 0.33125-0.43603 0.18451-0.0684 0.39265-0.0289 0.53764 0.10583 0.12982 0.11995 0.47554 0.14888 0.80715-0.019 0.13053-0.0653 0.4318-0.25364 0.39688-0.58279-0.0219-0.20108 0.0755-0.39687 0.24941-0.50059 0.17322-0.10336 0.39159-0.0963 0.55951 0.0187 0.1524 0.10689 0.43286 0.0508 0.63817-0.12559 0.1397-0.11888 0.34573-0.37888 0.15417-0.77787-0.38841-0.80787-2.1153-2.2042-3.6378-3.4357-0.84243-0.68086-1.6422-1.3282-2.2345-1.8845-0.15134 0.061-0.26529 0.11183-0.36266 0.15558-0.26917 0.121-0.44838 0.19543-0.77787 0.24623-0.79763 1.0587-1.8687 1.4298-3.0424 1.0425-0.46849-0.15451-0.78316-0.48612-0.89006-0.93345-0.24835-1.0516 0.71367-2.4853 1.4224-3.1937 1.8616-1.8627 3.1648-2.5619 5.54-1.5 2.0387 0.91264 4.0813 1.6263 4.1021 1.6337 0.27022 0.0942 0.41239 0.38947 0.31891 0.65969-0.0942 0.27023-0.38735 0.41346-0.6597 0.31927-0.0208-7e-3 -2.105-0.73554-4.185-1.6658-1.8337-0.8195-2.7016-0.39793-4.385 1.2866-0.70732 0.70732-1.2534 1.766-1.1448 2.2207 0.0155 0.0663 0.0448 0.13582 0.20637 0.18979 0.50659 0.16969 1.2647 0.26317 1.9971-0.83185 0.0861-0.12841 0.22472-0.21131 0.37923-0.22684 0.3489-0.0353 0.43604-0.0744 0.69498-0.19085 0.17004-0.0755 0.38523-0.17286 0.73448-0.29915 0.18733-0.0674 0.3997-0.0219 0.54187 0.12135 0.56656 0.56621 1.4552 1.2855 2.3961 2.0458 1.6863 1.3642 3.4318 2.776 3.9197 3.7934 0.34396 0.71367 0.18027 1.505-0.41452 2.0136-0.35101 0.30163-0.77576 0.44768-1.1882 0.42581-0.14887 0.37394-0.44944 0.69426-0.86501 0.90346-0.4244 0.21308-0.89183 0.27446-1.3 0.18733-0.21943 0.44555-0.60678 0.81315-1.0781 0.99554-0.39899 0.15522-0.8135 0.15416-1.1779 0.0124-0.27235 0.22895-0.66499 0.34607-1.1758 0.34607"/>
   <path d="m110.75 259.45h-4.6616c-0.28575 0-0.51788-0.23212-0.51788-0.51787 0-0.28611 0.23213-0.51823 0.51788-0.51823h4.6616c0.28575 0 0.51787 0.23212 0.51787 0.51823 0 0.28575-0.23212 0.51787-0.51787 0.51787"/>
   <path d="m119.6 267.72c-0.16686 0-0.33055-0.0808-0.43109-0.22895-0.15946-0.23707-0.0963-0.5595 0.14111-0.71896l1.5145-1.0171c0.23707-0.16157 0.55845-0.0967 0.71896 0.14076 0.15946 0.23707 0.0963 0.55951-0.14111 0.71896l-1.5145 1.0171c-0.0889 0.06-0.18944 0.0882-0.28787 0.0882"/>
   <path d="m118.01 269.3c-0.11183 0-0.22578-0.0363-0.31997-0.11077-0.5461-0.43109-2.8945-2.879-3.1605-3.1567-0.19791-0.20602-0.19191-0.53445 0.0155-0.73201 0.20602-0.19897 0.53445-0.19191 0.73236 0.0155 1.0255 1.0689 2.6839 2.7668 3.0547 3.0586 0.22471 0.17744 0.26317 0.50376 0.0861 0.72742-0.10372 0.12947-0.25577 0.19791-0.40817 0.19791"/>
   <path d="m115.93 270.33c-0.11289 0-0.2279-0.037-0.32315-0.11289-0.7687-0.61524-2.6292-2.624-2.648-2.6434-0.19367-0.21061-0.17921-0.53869 0.0314-0.73272 0.21132-0.19262 0.53728-0.17992 0.73237 0.0314 0.35207 0.38312 1.911 2.0394 2.5315 2.5358 0.22261 0.17815 0.25894 0.50447 0.0808 0.72813-0.10265 0.12665-0.25364 0.19368-0.40498 0.19368"/>
   <path d="m113.86 271.37c-0.11819 0-0.23637-0.0402-0.33373-0.12206-0.76341-0.64453-2.2094-2.1777-2.6342-2.6324-0.19474-0.2092-0.18415-0.53658 0.0251-0.73237 0.20813-0.19579 0.53657-0.1845 0.73236 0.0251 0.29528 0.31574 1.8066 1.9248 2.5449 2.5471 0.21872 0.1845 0.24659 0.51082 0.0624 0.7306-0.10266 0.121-0.24977 0.18415-0.39687 0.18415"/>
   <path d="m101.43 265.67h2.2116c0.38559-1.2164 1.6274-5.2469 1.9018-7.5156-0.65263-0.31679-2.4486-0.60289-4.1134-0.73448zm2.5897 1.0358h-3.1076c-0.28611 0-0.51788-0.23213-0.51788-0.51788v-9.3229c0-0.14323 0.0589-0.27975 0.16263-0.37712 0.10336-0.0988 0.23918-0.14711 0.38629-0.14005 1.0668 0.0631 4.6168 0.33549 5.5048 1.1769 0.115 0.1076 0.17286 0.26318 0.15945 0.42052-0.23495 2.6934-2.02 8.171-2.0955 8.4032-0.0695 0.21343-0.26846 0.35737-0.49212 0.35737"/>
   <path d="m122.02 266.71h2.2024v-8.2811c-2.4645 0.0582-4.1624 0.51929-4.9526 0.7874 0.80892 1.724 2.2592 5.8942 2.7502 7.4937m2.7203 1.0361h-3.1076c-0.23318 0-0.43709-0.15557-0.49953-0.38029-0.38524-1.3966-2.3897-7.1208-3.03-8.1516-0.0776-0.12629-0.0981-0.27869-0.0568-0.42051s0.14182-0.25894 0.27658-0.32208c0.0942-0.0437 2.3506-1.0844 6.4174-1.0844 0.28575 0 0.51788 0.23107 0.51788 0.51787v9.3229c0 0.28611-0.23213 0.51823-0.51788 0.51823"/>
  </g>
 </g>
</svg>
