<?xml version="1.0" encoding="UTF-8"?>
<!-- Created with Inkscape (http://www.inkscape.org/) -->
<svg width="96.296mm" height="49.253mm" version="1.1" viewBox="0 0 96.296 49.253" xmlns="http://www.w3.org/2000/svg" xmlns:cc="http://creativecommons.org/ns#" xmlns:dc="http://purl.org/dc/elements/1.1/" xmlns:rdf="http://www.w3.org/1999/02/22-rdf-syntax-ns#">
 <defs>
  <clipPath id="clipPath5092">
   <path d="m0 8681.9h1280v-8681.9h-1280z"/>
  </clipPath>
  <clipPath id="clipPath5100">
   <path d="m632.71 2249.7h42.594v-113.12h-42.594z"/>
  </clipPath>
  <clipPath id="clipPath5116">
   <path d="m564.98 2251.8h42.594v-115.21h-42.594z"/>
  </clipPath>
  <clipPath id="clipPath5132">
   <path d="m698.34 2249.7h42.594v-113.12h-42.594z"/>
  </clipPath>
  <clipPath id="clipPath5148">
   <path d="m744.2 2272.3h30.601v-97.63h-30.601z"/>
  </clipPath>
  <clipPath id="clipPath5164">
   <path d="m529.77 2272.5h32.766v-89.8h-32.766z"/>
  </clipPath>
  <clipPath id="clipPath5184">
   <path d="m749.33 2214.2h8.583v-13.26h-8.583z"/>
  </clipPath>
  <clipPath id="clipPath5204">
   <path d="m541.94 2214.2h8.583v-13.26h-8.583z"/>
  </clipPath>
  <clipPath id="clipPath5224">
   <path d="m606.25 2271h26.197v-20.59h-26.197z"/>
  </clipPath>
  <clipPath id="clipPath5244">
   <path d="m663.16 2270.3h26.198v-30.75h-26.198z"/>
  </clipPath>
  <clipPath id="clipPath5288">
   <path d="m530.35 2270.7h30.325v-26.96h-30.325z"/>
  </clipPath>
  <clipPath id="clipPath5308">
   <path d="m744.18 2270.6h29.81v-56.29h-29.81z"/>
  </clipPath>
 </defs>
 <metadata>
  <rdf:RDF>
   <cc:Work rdf:about="">
    <dc:format>image/svg+xml</dc:format>
    <dc:type rdf:resource="http://purl.org/dc/dcmitype/StillImage"/>
    <dc:title/>
   </cc:Work>
  </rdf:RDF>
 </metadata>
 <g transform="translate(-86.556 -318.08)">
  <g transform="matrix(.35278 0 0 -.35278 -91.103 1120.3)">
   <g clip-path="url(#clipPath5092)">
    <g clip-path="url(#clipPath5100)" opacity=".39999">
     <g transform="translate(632.71 2249.7)">
      <path d="m0 0s9.988-24.197 14.664-56.908c2.369-16.577 5.252-31.555 3.491-55.861l23.477-0.351 0.962 41.197-6.983 6.286-3.491 1.397-4.539 6.633s5.936 26.185 5.586 27.232c-0.349 1.048 0.35 22.345 0.35 22.345l-8.03 7.332z" fill="#a5a7a8"/>
     </g>
    </g>
    <g clip-path="url(#clipPath5116)" opacity=".39999">
     <g transform="translate(564.98 2249.7)">
      <path d="m0 0s10.933-24.076 14.663-56.908c1.746-15.362 3.84-30.375 3.492-55.861l23.477-0.351 0.962 41.197-2.794 5.588-20.598 0.349v8.728s8.307 7.359 8.728 8.38c6.633 16.06 3.142 38.055 3.142 38.055l-12.219 12.918z" fill="#a5a7a8"/>
     </g>
    </g>
    <g clip-path="url(#clipPath5132)" opacity=".39999">
     <g transform="translate(698.34 2249.7)">
      <path d="m0 0s9.988-24.197 14.664-56.908c2.369-16.577 5.252-31.555 3.491-55.861l23.477-0.351 0.962 41.197-2.794 5.588-20.598 0.349v8.728s8.307 7.359 8.728 8.38c6.634 16.06 6.634 37.706 6.634 37.706l-7.332 9.775z" fill="#a5a7a8"/>
     </g>
    </g>
    <g clip-path="url(#clipPath5148)" opacity=".39999">
     <g transform="translate(768.87 2252.9)">
      <path d="m0 0 3.491-9.077 2.444-13.267s-9.775-16.588-9.775-18.155 4.189-4.888 4.189-4.888l1.746-25.487-3.142-5.935-2.586 0.052-4.397-1.448c-7.681 77.856-12.918 86.235-16.374 95.378-2.701 7.147 16.374-4.954 16.374-4.954s3.636-3.189 8.03-12.219" fill="#a5a7a8"/>
     </g>
    </g>
    <g clip-path="url(#clipPath5164)" opacity=".39999">
     <g transform="translate(561.6 2257)">
      <path d="m0 0-2.793-7.448-7.914-5.121s-2.327-19.551-2.327-20.947c0-1.397 5.12-20.483 5.12-20.483l8.845-12.103-1.566-7.081-12.05-1.182s-5.237 67.732-18.528 87.432c-3.808 5.645 11.137-0.562 11.137-0.562s16.16-4.458 20.076-12.505" fill="#a5a7a8"/>
     </g>
    </g>
    <g transform="translate(731.24 2213.7)">
     <path d="m0 0 8.709-1.633 4.627-2.449 9.161 4.547 4.718-1.826-0.272-7.076-3.81-4.354-8.437 0.272-10.614-0.816-7.076 6.531z" fill="#2da868"/>
    </g>
    <g clip-path="url(#clipPath5184)" opacity=".39999">
     <g transform="translate(757.64 2205.3)">
      <path d="m0 0 0.272 7.076-4.718 1.825-3.865-1.918c0.079-3.545 0.093-7.275 0.033-11.193l4.468-0.144z" fill="#a5a7a8"/>
     </g>
    </g>
    <g transform="translate(523.31 2213.7)">
     <path d="m0 0 8.709-1.633 4.627-2.449 9.161 4.547 4.718-1.826-0.272-7.076-3.81-4.354-8.437 0.272-10.614-0.816-7.076 6.531z" fill="#2da868"/>
    </g>
    <g clip-path="url(#clipPath5204)" opacity=".39999">
     <g transform="translate(550.25 2205.3)">
      <path d="m0 0 0.272 7.076-4.718 1.825-3.865-1.918c0.079-3.545 0.093-7.275 0.033-11.193l4.468-0.144z" fill="#a5a7a8"/>
     </g>
    </g>
    <g transform="translate(597.88 2269.5)">
     <path d="m0 0s-5.443-0.272-6.532-7.892c-1.088-7.621-0.544-13.064-0.544-13.064l7.076-5.987 2.449 10.614 16.33-1.361 7.076 1.905 2.449-3.266 6.259 3.266-1.088 8.437s0.272 7.892-11.703 8.709c-11.975 0.816-21.772-1.361-21.772-1.361" fill="#e9e9e9"/>
    </g>
    <g clip-path="url(#clipPath5224)" opacity=".39999">
     <g transform="translate(616.66 2251.8)">
      <path d="m0 0 7.076 1.905 2.449-3.266 6.26 3.266-1.089 8.437s0.272 7.892-11.702 8.709c-5.047 0.344-9.704 0.156-13.407-0.177 2.22-4.181 4.653-10.166 6.682-18.563z" fill="#a5a7a8"/>
     </g>
    </g>
    <g transform="translate(654.76 2269.5)">
     <path d="m0 0s-5.443-0.272-6.532-7.892c-1.088-7.621-0.544-13.064-0.544-13.064l7.076-5.987 2.449 10.614 16.33-1.361 7.076 1.905 1.632-14.152 6.532 7.62-0.544 14.969s0.272 7.892-11.703 8.709c-11.974 0.816-21.772-1.361-21.772-1.361" fill="#e9e9e9"/>
    </g>
    <g clip-path="url(#clipPath5244)" opacity=".39999">
     <g transform="translate(673.57 2251.1)">
      <path d="m0 0 7.076 1.905 0.941-13.427 7.768 13.427-1.089 8.437s0.273 7.892-11.702 8.709c-5.047 0.344-9.704 0.156-13.407-0.177 2.22-4.181 4.653-10.166 6.682-18.563z" fill="#a5a7a8"/>
     </g>
    </g>
    <g transform="translate(692.05 2229.5)">
     <path d="m0 0c10.342-2.994 20.684-2.721 31.026 0-1.988-7.287 0.683-14.574 5.251-20.262l5.363 5.294 4.626 3.81-7.314 6.063 1.369 9.264-3.036 11.888s-2.951 2.445-4.04 2.627c-1.088 0.181-19.05 3.265-19.05 3.265l-11.431-1.27-5.987-3.81-3.085-5.261-2.721-6.169-0.363-16.511 2.21-6.731c4.795 4.862 5.861 11.461 7.182 17.803" fill="#e9e9e9"/>
    </g>
    <g transform="translate(588.53 2229.5)">
     <path d="m0 0c-10.342-2.994-20.684-2.721-31.025 0 1.987-7.287-0.684-14.574-5.252-20.262l-0.96 3.566-7.028 1.456-1.633 5.715 6.752 5.746-1.175 7.948 0.683 11.616s5.304 2.717 6.393 2.899c1.088 0.181 19.05 3.265 19.05 3.265l11.431-1.27 5.987-3.81 3.085-5.261 2.721-6.169 0.363-16.511-2.21-6.731c-4.795 4.862-5.861 11.461-7.182 17.803" fill="#e9e9e9"/>
    </g>
    <g transform="translate(562.7 2184.5)">
     <path d="m0 0-0.248-0.511-1.488-0.086c1.987-2.276 4.753-3.771 7.523-5.263-2.993-8.164-2.177-17.962-3.538-26.671 3.811-1.905 6.532-5.171 8.981-8.437 2.994 3.266 8.981 5.716 8.981 10.07-0.265 9.283-4.92 19.342-0.874 27.908-0.73-0.651-1.515-1.255-2.391-1.781-6.43-3.811-12.444 0.09-16.946 4.771" fill="#2da868"/>
    </g>
    <g transform="translate(602.74 2216.4)">
     <path d="m0 0-0.214-0.442-1.285-0.074c1.716-1.965 4.105-3.256 6.497-4.544-2.585-7.051-1.88-15.512-3.055-23.033 3.29-1.646 5.64-4.466 7.756-7.286 2.585 2.82 7.756 4.935 7.756 8.696-0.229 8.017-4.25 16.703-0.756 24.101-0.63-0.563-1.308-1.084-2.065-1.538-5.553-3.291-10.746 0.077-14.634 4.12" fill="#2da868"/>
    </g>
    <g transform="translate(659.08 2218.1)">
     <path d="m0 0-0.214-0.442-1.285-0.074c1.716-1.965 4.105-3.256 6.497-4.545-2.585-7.05-1.88-15.512-3.055-23.033 3.29-1.645 5.64-4.465 7.756-7.285 2.585 2.82 7.756 4.935 7.756 8.696-0.23 8.017-4.25 16.703-0.756 24.101-0.63-0.563-1.308-1.085-2.065-1.538-5.553-3.291-10.746 0.077-14.634 4.12" fill="#2da868"/>
    </g>
    <g transform="translate(695.78 2184.5)">
     <path d="m0 0-0.248-0.511-1.487-0.086c1.986-2.276 4.752-3.771 7.522-5.263-2.993-8.164-2.177-17.962-3.538-26.671 3.811-1.905 6.532-5.171 8.981-8.437 2.994 3.266 8.982 5.716 8.982 10.07-0.266 9.283-4.921 19.342-0.875 27.908-0.73-0.651-1.515-1.255-2.391-1.781-6.43-3.811-12.444 0.09-16.946 4.771" fill="#2da868"/>
    </g>
    <g transform="translate(539.67 2270.8)">
     <path d="m0 0-14.48-0.965-7.4-5.792-6.114-9.01-5.148-14.48 0.643-10.94 5.47-11.262 2.896-3.539 11.584-0.644 2.574 5.792-6.435 5.149-3.862 7.4 2.575 14.802 4.826 1.609 12.549-5.149 21.881 6.114-0.644 5.47-6.757 11.262z" fill="#e9e9e9"/>
    </g>
    <g clip-path="url(#clipPath5288)" opacity=".39999">
     <g transform="translate(557.76 2248.9)">
      <path d="m0 0 1.048 0.678 1.871 4.988-0.091 0.774-4.562 7.604c-6.15 4.284-14.501 6.587-14.501 6.587s-1.223 0.551-2.873 1.186l-8.299-0.553c0.014-0.025 0.021-0.046 0.035-0.071 2.885-5.195 6.215-13.456 8.57-26.176l0.393-0.161z" fill="#a5a7a8"/>
     </g>
    </g>
    <g transform="translate(741.18 2270.8)">
     <path d="m0 0 14.48-0.965 7.4-5.792 6.114-9.01 5.148-14.48-0.643-10.94-5.47-11.262-2.896-3.539-11.584-0.644-2.574 5.792 6.435 5.149 3.862 7.4-2.575 14.802-4.826 1.609-12.549-5.149-21.881 6.114 0.644 5.47 6.757 11.262z" fill="#e9e9e9"/>
    </g>
    <g clip-path="url(#clipPath5308)" opacity=".39999">
     <g transform="translate(765.32 2214.8)">
      <path d="m0 0 1.934 2.364c0.958 1.797 2.111 3.868 3.226 5.837l3.206 6.6 0.311 5.285-1.635 8.876-3.491 9.078c-4.394 9.03-8.03 12.219-8.03 12.219s-5.168 2.992-9.777 5.071l-6.877 0.458c0.071-0.174 0.164-0.366 0.28-0.576 2.722-4.901 5.612-11.731 7.868-21.811l1.723 0.707 4.827-1.609 2.574-14.802-3.862-7.4-1.854-1.484c0.211-2.942 0.376-6.045 0.491-9.318z" fill="#a5a7a8"/>
     </g>
    </g>
    <g transform="translate(637.5 2181.4)">
     <path d="m0 0h-22.901l6.618 6.775c0.567 0.581 0.845 1.385 0.759 2.192l-2.347 21.887 1.999 1.247 2e-3 1e-3c0.011 7e-3 0.021 0.013 0.031 0.02h12.557c1.809 0 3.282-1.473 3.282-3.283zm-29.789 9.661 1.929 17.991 0.988-0.617c0.441-0.275 0.941-0.412 1.441-0.412 0.375 0 0.749 0.077 1.099 0.232 0.117 0.051 0.231 0.112 0.341 0.18l0.989 0.617 1.929-17.991-4.358-4.462zm1.375-9.661c-0.037 0.062-0.078 0.119-0.117 0.18-0.059 0.093-0.119 0.187-0.181 0.279-0.056 0.082-0.114 0.162-0.172 0.242-0.055 0.075-0.11 0.15-0.167 0.223-0.059 0.077-0.118 0.153-0.179 0.228-0.072 0.089-0.148 0.175-0.223 0.262-0.066 0.076-0.133 0.151-0.201 0.225-0.104 0.111-0.209 0.221-0.318 0.328-0.046 0.046-0.094 0.091-0.142 0.136-0.102 0.097-0.207 0.192-0.313 0.285-0.038 0.033-0.077 0.067-0.116 0.1-1.427 1.208-3.193 2.027-5.134 2.293-0.041 5e-3 -0.083 0.011-0.125 0.016-0.16 0.02-0.321 0.036-0.483 0.048-0.052 4e-3 -0.103 9e-3 -0.154 0.011-0.203 0.013-0.407 0.021-0.612 0.021h-13.811v5.318c2.475 1.659 4.63 3.773 6.358 6.261 2.223 3.198 3.609 6.84 4.087 10.668 0.058-1e-3 0.118-1e-3 0.177-1e-3 0.089 0 0.178 4e-3 0.266 0.012 0.116 0.012 0.23 0.033 0.341 0.059 0.264 0.06 0.514 0.159 0.743 0.29 0.769 0.441 1.307 1.246 1.366 2.192l0.152 2.445h2.349c0.01-6e-3 0.02-0.012 0.03-0.019l3e-3 -2e-3 1.999-1.247-2.347-21.887c-0.086-0.807 0.192-1.611 0.759-2.191l6.617-6.775zm-3.992-41.215h-17.95l6.032 40.649h7.273c0.143 0 0.284-9e-3 0.424-0.022 0.049-4e-3 0.098-0.011 0.147-0.017 0.09-0.011 0.179-0.025 0.267-0.041 0.057-0.01 0.114-0.021 0.17-0.034 0.081-0.018 0.161-0.039 0.241-0.062 0.054-0.015 0.11-0.028 0.163-0.045 0.118-0.038 0.234-0.081 0.348-0.128 0.06-0.025 0.119-0.053 0.178-0.081 0.064-0.029 0.128-0.059 0.191-0.092 0.057-0.029 0.114-0.061 0.17-0.093 0.066-0.038 0.131-0.077 0.195-0.118 0.047-0.031 0.096-0.06 0.142-0.093 0.107-0.073 0.21-0.15 0.31-0.231 8e-3 -7e-3 0.015-0.013 0.022-0.02 0.101-0.083 0.197-0.171 0.29-0.263 0.024-0.023 0.047-0.048 0.07-0.072 0.076-0.078 0.149-0.158 0.219-0.241 0.022-0.025 0.042-0.051 0.063-0.076 0.076-0.093 0.148-0.19 0.217-0.289 0.01-0.015 0.021-0.029 0.031-0.044 0.157-0.234 0.293-0.484 0.406-0.745 0.014-0.033 0.027-0.066 0.04-0.099 0.218-0.538 0.341-1.124 0.341-1.74zm-23.21 38.878 2.783 1.771h3.007l-3.472-23.392zm-0.243-38.878h-6.796c0.133 0.094 0.259 0.199 0.374 0.317l7.628 7.81zm-14.362 12.249 2.506 23.368 2.026-1.29c0.185-0.118 0.383-0.206 0.586-0.274 0.568-0.193 1.181-0.193 1.749 0 0.203 0.068 0.401 0.156 0.586 0.274l2.026 1.29 2.507-23.368-5.993-6.136zm-2.376-12.249-1.206 8.127 7.628-7.81c0.115-0.118 0.241-0.223 0.373-0.317zm-6.033 40.649h3.006l2.784-1.771-2.318-21.621zm-17.42-40.649v36.004h-1e-3c0 0.024 4e-3 0.046 4e-3 0.07 2e-3 0.144 9e-3 0.286 0.024 0.426 0 4e-3 1e-3 8e-3 2e-3 0.012 0.237 2.167 1.975 3.892 4.144 4.113 0.155 0.016 0.313 0.024 0.472 0.024h7.272l6.033-40.649zm-4.931 39.173c-2e-3 -7e-3 -5e-3 -0.014-5e-3 -0.014-0.04-0.122-0.075-0.238-0.109-0.355-4e-3 -0.013-8e-3 -0.025-0.012-0.038h-23.858v25.286c0 3.459 2.519 6.34 5.818 6.907 0.046 8e-3 0.091 0.017 0.137 0.024 0.052 8e-3 0.104 0.013 0.156 0.02 0.065 8e-3 0.13 0.018 0.195 0.024 0.034 4e-3 0.069 5e-3 0.104 8e-3 -0.093-0.512-0.143-1.047-0.143-1.604-1e-3 -3.967 2.287-8.088 5.694-10.256 4.232-2.69 9.116-1.046 11.716 0.11 1.563-0.696 3.95-1.567 6.526-1.567 1.709 0 3.501 0.383 5.189 1.457h1e-3c1.227 0.781 2.298 1.809 3.17 2.979 0.651-1.565 1.467-3.068 2.45-4.483 1.725-2.483 3.874-4.592 6.342-6.25v-5.329h-13.795c-0.16 0-0.319-5e-3 -0.477-0.012-0.054-2e-3 -0.108-7e-3 -0.162-0.01-0.103-7e-3 -0.206-0.014-0.308-0.024-0.065-6e-3 -0.13-0.013-0.195-0.02-0.089-0.01-0.178-0.022-0.267-0.034-0.07-0.01-0.14-0.02-0.21-0.031-0.08-0.014-0.159-0.028-0.239-0.043-0.075-0.015-0.15-0.028-0.225-0.044-0.056-0.011-0.111-0.025-0.166-0.038-0.193-0.044-0.384-0.093-0.573-0.148-0.028-9e-3 -0.056-0.016-0.083-0.024-0.108-0.032-0.214-0.068-0.32-0.104-0.03-0.01-0.06-0.019-0.09-0.03-0.11-0.038-0.22-0.079-0.329-0.121-0.017-7e-3 -0.035-0.014-0.052-0.021-2.767-1.094-4.938-3.376-5.88-6.215m-8.334 31.812c0.039-0.018 0.079-0.033 0.116-0.052 0.111-0.055 0.217-0.114 0.316-0.177l6.109-3.985c0.113-0.074 0.23-0.138 0.35-0.193 0.841-0.387 1.833-0.322 2.624 0.194l6.103 3.982 0.011 6e-3c0.096 0.062 0.199 0.119 0.306 0.173 0.039 0.019 0.08 0.035 0.12 0.053 0.059 0.027 0.121 0.052 0.183 0.077h2.133l0.013-0.194c8e-3 -0.112 0.025-0.222 0.046-0.33 6e-3 -0.03 0.013-0.059 0.02-0.089 0.02-0.087 0.044-0.173 0.072-0.256 7e-3 -0.021 0.012-0.042 0.02-0.063 0.036-0.1 0.078-0.197 0.126-0.292 0.011-0.022 0.024-0.044 0.036-0.066 0.04-0.075 0.083-0.147 0.13-0.217 0.016-0.023 0.031-0.047 0.047-0.07 0.061-0.085 0.125-0.168 0.195-0.246 8e-3 -9e-3 0.017-0.017 0.026-0.026 0.064-0.069 0.131-0.134 0.201-0.196 0.022-0.019 0.044-0.038 0.067-0.057 0.07-0.058 0.143-0.112 0.218-0.163 0.013-9e-3 0.025-0.018 0.038-0.027 0.088-0.056 0.18-0.107 0.275-0.154 9e-3 -4e-3 0.017-0.01 0.026-0.014-0.259-1.646-1.266-3.665-3.104-4.834-1.649-1.048-4.133-0.731-7.597 0.968-0.378 0.186-0.788 0.278-1.198 0.278s-0.82-0.092-1.198-0.278c-3.467-1.699-5.953-2.015-7.599-0.969-2.082 1.325-3.171 3.851-3.171 5.661 0 0.805 0.213 1.307 0.414 1.434 0.073 0.046 0.145 0.087 0.238 0.131 0.049 0.024 0.099 0.047 0.148 0.068h2.955c0.063-0.024 0.125-0.05 0.185-0.077m17.868 30.114c-0.043-0.187-0.084-0.375-0.124-0.565-0.016-0.073-0.032-0.145-0.047-0.218-0.048-0.236-0.092-0.474-0.135-0.714-0.022-0.125-0.042-0.252-0.063-0.378-0.021-0.131-0.042-0.261-0.062-0.393-0.02-0.136-0.04-0.273-0.059-0.411-0.017-0.129-0.033-0.258-0.05-0.387-0.016-0.135-0.034-0.27-0.049-0.406-0.026-0.242-0.051-0.485-0.072-0.729-0.01-0.109-0.017-0.219-0.025-0.329-0.014-0.168-0.026-0.336-0.036-0.504-7e-3 -0.111-0.013-0.223-0.019-0.334-9e-3 -0.181-0.017-0.361-0.023-0.542-3e-3 -0.094-7e-3 -0.188-0.01-0.283-7e-3 -0.275-0.012-0.551-0.012-0.826v-4.53c0-0.063 3e-3 -0.127 7e-3 -0.19l0.244-3.476c-0.065-0.058-0.129-0.118-0.194-0.176-0.063-0.055-0.125-0.11-0.188-0.163-0.137-0.116-0.277-0.229-0.418-0.339-0.047-0.037-0.092-0.075-0.14-0.111-0.189-0.144-0.381-0.284-0.577-0.418-0.045-0.031-0.091-0.059-0.136-0.089-0.153-0.102-0.307-0.202-0.464-0.298-0.07-0.043-0.141-0.084-0.212-0.126-0.137-0.081-0.275-0.159-0.415-0.235-0.075-0.041-0.15-0.081-0.226-0.12-0.146-0.076-0.293-0.148-0.441-0.219-0.067-0.032-0.134-0.065-0.202-0.096-0.216-0.098-0.433-0.192-0.653-0.278-1.223-0.48-1.928-1.765-1.677-3.054l0.981-5.027-4.344-2.834-4.345 2.834 0.884 4.531 0.096 0.496c0.032 0.161 0.048 0.322 0.051 0.482 0.014 0.957-0.479 1.854-1.294 2.356-0.136 0.084-0.281 0.156-0.434 0.216-5.325 2.09-8.765 7.135-8.765 12.853v9.761c3.87-2.137 10.04-4.634 17.755-4.634h5.915c-8e-3 -0.032-0.014-0.065-0.022-0.097m-0.728-21.982c0.026 0.014 0.051 0.029 0.076 0.043 0.19 0.103 0.379 0.209 0.565 0.319l0.208-2.974h-0.339zm-36.281 13.836v0.184c0 21.456 10.664 35.32 27.168 35.32 11.087 0 19.46-5.917 23.871-16.757-0.539-0.044-1.073-0.087-1.598-0.126-0.055-4e-3 -0.111-9e-3 -0.166-0.013-0.105-8e-3 -0.21-0.015-0.314-0.023-0.087-6e-3 -0.172-0.012-0.258-0.019-0.084-6e-3 -0.169-0.012-0.252-0.018-0.164-0.011-0.326-0.023-0.485-0.033-0.054-4e-3 -0.107-7e-3 -0.16-0.011-0.124-8e-3 -0.247-0.016-0.368-0.024-0.055-4e-3 -0.111-7e-3 -0.166-0.011-0.123-8e-3 -0.245-0.015-0.365-0.022-0.046-3e-3 -0.091-6e-3 -0.136-8e-3 -0.165-0.01-0.327-0.02-0.486-0.029-2.123-0.119-4.972-1.073-7.151-4.724h-8.018c-11.119 0-18.636 6.256-18.705 6.314-0.807 0.691-1.942 0.85-2.908 0.406s-1.584-1.41-1.584-2.472v-14.818c0-0.675 0.034-1.343 0.101-2.002 0.585-5.715 3.652-10.781 8.345-13.94 0.269-0.181 0.545-0.354 0.825-0.522 0.283-0.17 0.57-0.337 0.864-0.494l-0.509-2.605h-7.046c-0.227 0-0.453-7e-3 -0.677-0.019-0.056-3e-3 -0.112-9e-3 -0.168-0.013-0.17-0.011-0.34-0.024-0.508-0.043-0.017-2e-3 -0.033-3e-3 -0.049-5e-3 -5.641 3.377-9.105 9.627-9.097 16.527m69.361-42.093 1.703-6.66-6.836-4.351-6.836 4.35 1.703 6.661c0.34 1.33-0.364 2.706-1.642 3.208-0.851 0.334-1.666 0.724-2.442 1.165-0.027 0.017-0.051 0.036-0.078 0.052-5.359 3.108-8.813 8.715-9.221 14.837 4.876 3.598 5.738 11.489 5.834 15.675 0.044-0.012 0.089-0.021 0.134-0.033 8.278-2.14 17.031-2.185 25.331-0.125l0.944 0.234c0.073-0.657 0.138-1.364 0.205-2.087 0.023-0.25 0.046-0.504 0.07-0.758 7e-3 -0.076 0.015-0.152 0.022-0.229 9e-3 -0.097 0.019-0.195 0.028-0.292 8e-3 -0.083 0.016-0.166 0.025-0.249 9e-3 -0.095 0.019-0.191 0.029-0.287 0.016-0.16 0.033-0.321 0.05-0.482 9e-3 -0.082 0.019-0.163 0.028-0.245 0.011-0.099 0.022-0.197 0.034-0.296 0.01-0.085 0.02-0.17 0.03-0.256 0.013-0.1 0.025-0.2 0.038-0.3 0.01-0.082 0.02-0.163 0.031-0.244l0.054-0.393c8e-3 -0.055 0.015-0.11 0.023-0.165 0.025-0.172 0.051-0.344 0.079-0.516 9e-3 -0.056 0.018-0.11 0.027-0.166 0.022-0.135 0.045-0.269 0.068-0.403 0.01-0.053 0.019-0.106 0.029-0.158 0.029-0.161 0.059-0.32 0.091-0.48l0.012-0.063c0.596-2.979 1.656-5.779 3.821-7.578-2e-3 -0.035-3e-3 -0.07-5e-3 -0.105-1e-3 -0.015-3e-3 -0.031-4e-3 -0.047-0.422-6.11-3.878-11.698-9.231-14.797-0.026-0.015-0.048-0.033-0.072-0.049-0.774-0.439-1.586-0.827-2.433-1.16-1.278-0.502-1.983-1.877-1.643-3.208m0.594 57.35c4.017 0.385 8.055-0.833 11.192-3.351 0.012-0.01 0.022-0.022 0.034-0.031 1.737-1.405 3.159-3.187 4.118-5.159l2e-3 -5e-3c0.913-1.876 1.411-3.888 1.479-5.981 6e-3 -0.179 9e-3 -0.355 9e-3 -0.53v-1.125l-1.058-17.052c-0.215 0.278-0.408 0.608-0.583 0.985-0.02 0.044-0.04 0.089-0.059 0.134-0.035 0.078-0.068 0.159-0.101 0.241-0.017 0.043-0.035 0.085-0.052 0.129-0.656 1.719-1.027 4.278-1.346 7.716-3e-3 0.034-7e-3 0.07-0.01 0.105-0.196 2.133-0.382 4.148-0.846 5.706-0.045 0.15-0.103 0.292-0.171 0.428-0.555 1.127-1.833 1.749-3.093 1.437l-3.769-0.936c-7.493-1.859-15.399-1.802-22.863 0.164l-3.31 0.872c-0.204 0.054-0.412 0.083-0.618 0.089-0.62 0.017-1.235-0.178-1.737-0.565-0.668-0.515-1.06-1.311-1.06-2.155v-2.665c0-0.059-1e-3 -0.12-1e-3 -0.179 0-0.069-1e-3 -0.138-2e-3 -0.207-0.051-3.791-0.86-9.346-3.398-11.546l-1.045 14.915v4.434c0 0.192 3e-3 0.384 7e-3 0.575 1e-3 0.055 3e-3 0.11 5e-3 0.165 3e-3 0.14 8e-3 0.279 0.014 0.419 2e-3 0.057 6e-3 0.113 8e-3 0.169 7e-3 0.141 0.015 0.282 0.024 0.422 4e-3 0.05 7e-3 0.099 0.011 0.149 0.011 0.152 0.022 0.302 0.036 0.453 3e-3 0.037 6e-3 0.074 0.01 0.111 0.015 0.17 0.032 0.339 0.051 0.506 2e-3 0.019 4e-3 0.037 6e-3 0.055 0.109 0.962 0.269 1.895 0.473 2.77 0.015 0.064 0.031 0.127 0.047 0.19 0.022 0.095 0.046 0.189 0.07 0.281 0.028 0.11 0.058 0.219 0.087 0.326 0.011 0.039 0.022 0.078 0.033 0.117 0.783 2.74 2.063 4.794 3.734 5.104 0.01 2e-3 0.02 4e-3 0.029 6e-3 0.092 0.016 0.184 0.027 0.277 0.032 8.806 0.493 22.388 2.162 23.366 2.282m15.186 9.175c0 4.308 1.352 9.032 3.536 9.154 7.173 0.401 18.216 1.757 19.07 1.862 3.317 0.315 6.653-0.763 9.157-2.961 2.472-2.169 3.891-5.15 3.998-8.393 4e-3 -0.141 6e-3 -0.279 6e-3 -0.416v-0.902l-0.739-11.924c-9e-3 0.03-0.019 0.059-0.027 0.09-0.035 0.12-0.069 0.243-0.102 0.372-7e-3 0.031-0.015 0.063-0.023 0.094-0.311 1.277-0.524 2.966-0.719 5.085v4e-3c-0.163 1.764-0.316 3.43-0.709 4.748 0 0-1e-3 3e-3 -2e-3 5e-3 -0.024 0.079-0.051 0.156-0.081 0.231-0.011 0.026-0.022 0.051-0.033 0.075-0.022 0.051-0.045 0.102-0.07 0.15-0.015 0.028-0.03 0.056-0.045 0.083-0.025 0.045-0.05 0.088-0.077 0.131-0.017 0.027-0.034 0.053-0.052 0.08-0.029 0.042-0.059 0.083-0.09 0.123-0.018 0.024-0.036 0.047-0.055 0.071-0.037 0.045-0.076 0.088-0.115 0.13-0.015 0.016-0.029 0.033-0.044 0.048-0.054 0.056-0.111 0.109-0.17 0.159-0.019 0.016-0.038 0.031-0.057 0.046-0.043 0.035-0.085 0.068-0.129 0.1-0.025 0.018-0.051 0.035-0.077 0.053-0.04 0.026-0.08 0.052-0.122 0.076-0.028 0.017-0.056 0.033-0.084 0.049-0.042 0.022-0.084 0.044-0.127 0.064-0.029 0.014-0.057 0.028-0.086 0.041-0.048 0.021-0.096 0.04-0.144 0.057-0.026 0.01-0.05 0.02-0.076 0.029-0.074 0.025-0.149 0.048-0.225 0.066-0.012 3e-3 -0.025 5e-3 -0.037 8e-3 -0.065 0.015-0.131 0.028-0.197 0.038-0.028 5e-3 -0.055 7e-3 -0.083 0.01-0.052 7e-3 -0.105 0.012-0.158 0.016-0.03 2e-3 -0.061 3e-3 -0.092 4e-3 -0.026 0-0.052 3e-3 -0.079 3e-3 -0.017 0-0.034-3e-3 -0.051-3e-3 -0.07-2e-3 -0.139-6e-3 -0.209-0.013-0.032-3e-3 -0.063-5e-3 -0.095-9e-3 -0.101-0.014-0.201-0.031-0.302-0.056l-3.072-0.762c-6.024-1.495-12.381-1.45-18.383 0.132l-2.698 0.71c-0.816 0.215-1.686 0.039-2.355-0.476-0.668-0.515-1.06-1.311-1.06-2.156v-2.171c0-0.22-3e-3 -0.438-8e-3 -0.655-2e-3 -0.081-6e-3 -0.161-9e-3 -0.242-5e-3 -0.134-8e-3 -0.27-0.015-0.403-5e-3 -0.09-0.011-0.179-0.017-0.269-7e-3 -0.122-0.014-0.245-0.023-0.365-6e-3 -0.088-0.015-0.174-0.022-0.262-0.011-0.12-0.02-0.241-0.032-0.36-9e-3 -0.086-0.02-0.171-0.029-0.256-0.013-0.117-0.026-0.235-0.041-0.351-0.01-0.083-0.023-0.164-0.034-0.246-0.016-0.115-0.032-0.232-0.05-0.345-0.012-0.078-0.026-0.153-0.039-0.23-0.019-0.115-0.038-0.232-0.059-0.345-0.013-0.071-0.028-0.14-0.042-0.211-0.021-0.106-0.042-0.213-0.064-0.317-0.539 0.62-1.119 1.213-1.738 1.776-3e-3 3e-3 -5e-3 6e-3 -5e-3 6e-3l-0.389 5.523zm8.363-36.189-0.609-2.417h-1.474l0.221 3.561c0.599-0.414 1.22-0.797 1.862-1.144m14.859 4.049c-1.275-0.501-1.979-1.871-1.645-3.198l1.301-5.164-4.995-3.116-4.994 3.116 1.301 5.164c0.334 1.328-0.37 2.697-1.645 3.198-2.157 0.846-4.082 2.199-5.62 3.94l0.147 2.382 0.013 0.208c4e-3 0.056 6e-3 0.113 6e-3 0.169v1.21c0 0.233-4e-3 0.47-0.012 0.708-0.011 0.323-0.03 0.644-0.056 0.964-9e-3 0.118-0.022 0.234-0.034 0.351-0.019 0.197-0.039 0.393-0.064 0.588-0.019 0.151-0.04 0.302-0.063 0.453-0.022 0.146-0.045 0.291-0.07 0.436-0.032 0.187-0.065 0.373-0.102 0.557-0.013 0.065-0.027 0.128-0.041 0.192-0.224 1.072-0.534 2.118-0.926 3.13 0.06 0.107 0.116 0.217 0.174 0.326 0.035 0.066 0.072 0.13 0.105 0.197 0.107 0.209 0.208 0.421 0.304 0.636 0.011 0.025 0.021 0.051 0.032 0.077 0.084 0.191 0.165 0.385 0.241 0.58 0.03 0.074 0.056 0.149 0.084 0.224 0.056 0.148 0.11 0.297 0.162 0.447 0.029 0.084 0.056 0.169 0.084 0.253 0.046 0.143 0.091 0.286 0.134 0.429 0.026 0.086 0.052 0.173 0.076 0.259 0.042 0.147 0.081 0.292 0.12 0.439 0.021 0.081 0.043 0.163 0.063 0.244 0.04 0.162 0.077 0.325 0.114 0.487 0.014 0.064 0.03 0.128 0.043 0.192 0.098 0.454 0.18 0.905 0.25 1.349 0.01 0.068 0.02 0.135 0.03 0.202 0.022 0.154 0.044 0.306 0.064 0.456 0.011 0.08 0.02 0.158 0.03 0.237 0.017 0.138 0.033 0.275 0.048 0.412 8e-3 0.079 0.016 0.158 0.024 0.236 0.014 0.135 0.026 0.268 0.037 0.4 7e-3 0.074 0.013 0.148 0.019 0.221 0.011 0.14 0.021 0.277 0.03 0.414 3e-3 0.059 8e-3 0.12 0.011 0.179 0.012 0.192 0.022 0.381 0.029 0.564 6.68-1.64 13.715-1.634 20.393 0.024l0.207 0.051c0.036-0.362 0.071-0.737 0.106-1.119 0.065-0.705 0.133-1.437 0.218-2.179 4e-3 -0.043 9e-3 -0.086 0.014-0.129 0.026-0.225 0.054-0.45 0.084-0.676 7e-3 -0.052 0.014-0.105 0.022-0.158 0.022-0.167 0.046-0.334 0.072-0.501 0.012-0.084 0.025-0.167 0.038-0.25 0.03-0.19 0.062-0.379 0.096-0.568 0.021-0.113 0.043-0.226 0.065-0.34 0.017-0.087 0.035-0.175 0.053-0.262 0.093-0.453 0.201-0.9 0.324-1.339v-1e-3c0.416-1.486 1.026-2.866 1.951-3.991 0.037-0.045 0.074-0.089 0.11-0.133 0.082-0.095 0.165-0.189 0.252-0.281 0.136-0.145 0.275-0.282 0.416-0.41l9e-3 -9e-3c-0.423-5.58-3.955-10.403-9.239-12.477m16.811-6.466h-12.019l-0.608 2.413c5.615 3.01 9.417 8.45 10.328 14.729 1.3 0.143 2.333 1.201 2.416 2.535l1.055 17.021c4e-3 0.056 6e-3 0.112 6e-3 0.168v0.987c0 0.195-4e-3 0.393-0.01 0.593-0.156 4.763-2.233 9.134-5.847 12.307-3.64 3.193-8.491 4.755-13.31 4.284-0.024-3e-3 -0.047-5e-3 -0.07-8e-3 -0.116-0.015-11.62-1.436-18.742-1.834-1.795-0.101-5.107-0.997-7.119-5.875-0.989-2.397-1.556-5.573-1.556-8.714v-3.691c0-0.064 2e-3 -0.127 7e-3 -0.19l0.107-1.536c-3.249 1.415-6.842 2.006-10.42 1.657-0.024-3e-3 -0.047-5e-3 -0.071-8e-3 -0.092-0.012-6.073-0.75-12.655-1.402-5.037 13.813-15.68 21.685-29.498 21.685-9.921 0-18.258-4.04-24.111-11.682-5.561-7.262-8.5-17.318-8.5-29.081l-1e-3 -0.181c-8e-3 -7.443 3.175-14.313 8.543-18.897-3.062-2.271-5.051-5.911-5.051-10.007v-28.008c0-1.503 1.219-2.721 2.722-2.721h26.192v-33.323h-0.328c-0.019-1.838 0.044-3.646 0.17-5.443h75c-0.29 2.655-0.537 5.308-0.311 7.903v33.312h29.685c1.502 0 2.721 1.218 2.721 2.722v31.56c0 4.811-3.914 8.725-8.725 8.725" fill="#004f53"/>
    </g>
    <g transform="translate(642.66 2210)">
     <path d="m0 0c0 1.81 1.473 3.283 3.282 3.283h12.557c0.01-7e-3 0.02-0.013 0.031-0.02 1e-3 0 2e-3 -1e-3 2e-3 -1e-3l1.999-1.248-2.347-21.886c-0.086-0.807 0.192-1.611 0.76-2.192l6.617-6.775h-22.901zm25.431-23.64-4.358 4.463 1.929 17.99 0.989-0.616c0.11-0.069 0.224-0.13 0.341-0.181 0.35-0.155 0.724-0.232 1.099-0.232 0.5 0 1 0.137 1.441 0.413l0.988 0.616 1.929-17.991zm2.531-5.2 6.617 6.776c0.567 0.581 0.845 1.384 0.759 2.191l-2.347 21.887 1.999 1.247 2e-3 2e-3c0.011 7e-3 0.021 0.013 0.031 0.019h2.349l0.152-2.445c0.059-0.946 0.597-1.751 1.367-2.192 0.228-0.131 0.478-0.23 0.742-0.291 0.111-0.025 0.225-0.046 0.341-0.058 0.088-8e-3 0.177-0.012 0.266-0.012 0.059 0 0.119 0 0.178 1e-3 0.477-3.828 1.864-7.47 4.086-10.668 1.728-2.488 3.883-4.602 6.358-6.261v-5.318h-13.811c-0.205 0-0.409-8e-3 -0.611-0.02-0.052-3e-3 -0.103-8e-3 -0.155-0.012-0.162-0.012-0.323-0.028-0.483-0.048-0.042-5e-3 -0.084-0.011-0.125-0.016-1.941-0.266-3.707-1.085-5.134-2.293-0.039-0.033-0.078-0.067-0.116-0.1-0.106-0.093-0.211-0.188-0.313-0.285-0.048-0.045-0.095-0.09-0.142-0.136-0.109-0.107-0.214-0.216-0.318-0.328-0.068-0.074-0.135-0.149-0.201-0.225-0.075-0.087-0.15-0.173-0.223-0.262-0.061-0.075-0.12-0.151-0.179-0.228-0.057-0.073-0.112-0.148-0.167-0.223-0.058-0.08-0.116-0.16-0.172-0.242-0.062-0.092-0.122-0.185-0.181-0.279-0.039-0.06-0.08-0.119-0.117-0.18v-1e-3zm4.444-5.211c0 0.616 0.123 1.202 0.341 1.74 0.014 0.033 0.026 0.066 0.04 0.099 0.113 0.261 0.249 0.511 0.406 0.745 0.01 0.015 0.021 0.029 0.031 0.044 0.069 0.099 0.141 0.196 0.217 0.289 0.021 0.026 0.042 0.051 0.063 0.076 0.07 0.083 0.143 0.163 0.219 0.241 0.024 0.024 0.046 0.049 0.07 0.072 0.093 0.092 0.189 0.18 0.29 0.263 7e-3 7e-3 0.014 0.013 0.022 0.02 0.1 0.081 0.204 0.158 0.31 0.231 0.046 0.033 0.095 0.062 0.142 0.093 0.064 0.041 0.129 0.08 0.195 0.118 0.056 0.032 0.113 0.064 0.17 0.093 0.063 0.033 0.127 0.063 0.191 0.093 0.059 0.027 0.118 0.055 0.178 0.08 0.114 0.047 0.23 0.09 0.348 0.128 0.053 0.017 0.109 0.03 0.163 0.045 0.08 0.023 0.16 0.044 0.241 0.062 0.056 0.013 0.113 0.024 0.17 0.034 0.088 0.016 0.177 0.03 0.267 0.041 0.049 6e-3 0.098 0.013 0.147 0.017 0.14 0.013 0.281 0.022 0.424 0.022h7.273l6.032-40.649h-17.95zm20.892-18.746-3.472 23.392h3.007l2.783-1.771zm1.355-9.13 7.628-7.81c0.115-0.118 0.241-0.223 0.374-0.317h-6.796zm9.575-2.014-5.993 6.136 2.507 23.367 2.026-1.289c0.185-0.118 0.383-0.205 0.586-0.274 0.568-0.193 1.181-0.193 1.749 0 0.203 0.069 0.401 0.156 0.587 0.274l2.025 1.289 2.506-23.367zm1.574-6.113c0.132 0.095 0.258 0.199 0.373 0.317l7.628 7.81-1.206-8.127zm9.357 17.257-2.319 21.621 2.784 1.771h3.006zm2.941-17.257 6.033 40.649h7.272c0.159 0 0.317-8e-3 0.472-0.024 2.169-0.221 3.907-1.946 4.145-4.113 0 0 1e-3 -8e-3 1e-3 -0.011 0.015-0.141 0.022-0.283 0.024-0.427 0-0.024 4e-3 -0.047 4e-3 -0.071h-1e-3v-36.003zm17.001 45.388c-0.017 7e-3 -0.035 0.014-0.052 0.021-0.109 0.042-0.219 0.083-0.329 0.121-0.03 0.011-0.06 0.02-0.089 0.031-0.107 0.035-0.213 0.071-0.321 0.103-0.027 8e-3 -0.055 0.015-0.083 0.024-0.189 0.054-0.38 0.104-0.573 0.148-0.055 0.013-0.11 0.027-0.166 0.039-0.074 0.015-0.15 0.028-0.225 0.043-0.079 0.015-0.159 0.03-0.239 0.042-0.07 0.012-0.14 0.022-0.21 0.032-0.089 0.012-0.178 0.023-0.267 0.034-0.065 7e-3 -0.13 0.014-0.195 0.02-0.102 0.01-0.205 0.017-0.308 0.024-0.054 3e-3 -0.108 8e-3 -0.162 0.01-0.158 7e-3 -0.317 0.012-0.477 0.012h-13.795v5.329c2.468 1.658 4.617 3.768 6.342 6.25 0.983 1.415 1.8 2.918 2.45 4.484 0.872-1.171 1.943-2.199 3.17-2.98h1e-3c1.688-1.073 3.48-1.457 5.189-1.457 2.576 0 4.963 0.871 6.526 1.567 2.6-1.157 7.484-2.8 11.716-0.11 3.408 2.168 5.695 6.289 5.694 10.255 0 0.558-0.05 1.093-0.143 1.605 0.035-3e-3 0.07-4e-3 0.104-8e-3 0.065-6e-3 0.13-0.015 0.195-0.024 0.052-7e-3 0.104-0.012 0.156-0.02 0.046-7e-3 0.092-0.016 0.137-0.024 3.299-0.567 5.818-3.448 5.818-6.907v-25.286h-23.858c-4e-3 0.013-8e-3 0.026-0.012 0.038-0.033 0.117-0.069 0.233-0.107 0.348-2e-3 7e-3 -5e-3 0.014-5e-3 0.014-0.944 2.846-3.115 5.128-5.882 6.222m14.399 25.674h2.955c0.05-0.021 0.099-0.044 0.148-0.068 0.093-0.044 0.165-0.085 0.238-0.131 0.201-0.128 0.414-0.629 0.414-1.434 0-1.81-1.089-4.336-3.171-5.661-1.646-1.046-4.132-0.73-7.599 0.97-0.378 0.185-0.788 0.277-1.198 0.277s-0.82-0.092-1.198-0.278c-3.464-1.699-5.948-2.016-7.597-0.968-1.838 1.169-2.845 3.188-3.104 4.834 9e-3 4e-3 0.017 0.01 0.026 0.014 0.095 0.047 0.187 0.097 0.275 0.154 0.013 9e-3 0.025 0.019 0.038 0.027 0.076 0.051 0.148 0.105 0.218 0.163 0.023 0.019 0.045 0.038 0.067 0.057 0.07 0.062 0.138 0.127 0.201 0.196 9e-3 9e-3 0.018 0.017 0.026 0.026 0.07 0.078 0.135 0.161 0.195 0.246 0.016 0.023 0.032 0.047 0.047 0.07 0.047 0.07 0.09 0.142 0.13 0.217 0.012 0.022 0.025 0.044 0.036 0.066 0.048 0.095 0.09 0.192 0.126 0.292 8e-3 0.021 0.013 0.042 0.02 0.063 0.028 0.083 0.052 0.169 0.072 0.256 7e-3 0.03 0.014 0.059 0.02 0.089 0.021 0.108 0.038 0.218 0.046 0.33l0.013 0.194h2.133c0.062-0.025 0.124-0.05 0.183-0.077 0.04-0.018 0.081-0.034 0.12-0.053 0.107-0.054 0.21-0.111 0.306-0.173l0.011-6e-3 6.103-3.982c0.791-0.516 1.783-0.581 2.624-0.194 0.12 0.055 0.237 0.12 0.35 0.193l6.11 3.985c0.098 0.064 0.204 0.122 0.315 0.177 0.037 0.019 0.077 0.034 0.116 0.052 0.06 0.027 0.122 0.053 0.185 0.077m-18.075 30.134h5.915c7.715 0 13.885 2.496 17.755 4.634v-9.761c0-5.718-3.44-10.763-8.765-12.853-0.153-0.06-0.298-0.132-0.434-0.216-0.815-0.501-1.308-1.399-1.293-2.356 2e-3 -0.16 0.018-0.321 0.05-0.482l0.097-0.495 0.883-4.532-4.345-2.834-4.344 2.834 0.981 5.027c0.251 1.289-0.454 2.574-1.677 3.054-0.22 0.087-0.437 0.18-0.653 0.278-0.068 0.031-0.135 0.064-0.202 0.096-0.148 0.071-0.295 0.143-0.441 0.219-0.076 0.039-0.151 0.079-0.226 0.12-0.14 0.076-0.278 0.155-0.415 0.235-0.071 0.042-0.142 0.083-0.212 0.126-0.157 0.096-0.311 0.196-0.464 0.298-0.045 0.03-0.091 0.058-0.136 0.089-0.196 0.134-0.388 0.274-0.577 0.418-0.048 0.036-0.093 0.074-0.14 0.111-0.141 0.11-0.281 0.223-0.418 0.339-0.063 0.053-0.125 0.109-0.187 0.163-0.066 0.058-0.13 0.118-0.195 0.176l0.244 3.476c4e-3 0.063 7e-3 0.127 7e-3 0.19v4.529c0 0.276-5e-3 0.552-0.012 0.827-3e-3 0.095-7e-3 0.189-0.01 0.283-6e-3 0.181-0.014 0.362-0.023 0.542-6e-3 0.111-0.012 0.223-0.019 0.333-0.01 0.169-0.022 0.337-0.035 0.505-9e-3 0.11-0.016 0.22-0.026 0.329-0.021 0.245-0.045 0.487-0.072 0.729-0.015 0.136-0.033 0.271-0.049 0.406-0.016 0.129-0.033 0.258-0.05 0.387-0.019 0.137-0.039 0.275-0.059 0.411-0.02 0.132-0.041 0.262-0.062 0.393-0.021 0.126-0.041 0.253-0.063 0.378-0.043 0.24-0.087 0.478-0.135 0.714-0.015 0.073-0.031 0.145-0.047 0.218-0.04 0.19-0.081 0.378-0.124 0.565-8e-3 0.032-0.014 0.065-0.022 0.097m0.24-24.691h-0.339l0.208 2.974c0.186-0.11 0.375-0.216 0.565-0.319 0.025-0.014 0.05-0.029 0.076-0.043zm27.694-0.079c-0.016 2e-3 -0.032 3e-3 -0.049 5e-3 -0.168 0.019-0.338 0.032-0.508 0.043-0.056 4e-3 -0.112 0.01-0.168 0.013-0.224 0.012-0.45 0.019-0.677 0.019h-7.046l-0.509 2.606c0.294 0.156 0.581 0.323 0.864 0.493 0.28 0.168 0.556 0.341 0.825 0.522 4.693 3.159 7.76 8.225 8.345 13.94 0.067 0.659 0.101 1.327 0.101 2.002v14.818c0 1.062-0.618 2.028-1.584 2.472s-2.101 0.285-2.908-0.407c-0.069-0.057-7.586-6.313-18.705-6.313h-8.018c-2.179 3.651-5.028 4.605-7.151 4.724-0.159 9e-3 -0.321 0.019-0.486 0.028-0.045 3e-3 -0.09 6e-3 -0.136 9e-3 -0.12 7e-3 -0.242 0.015-0.365 0.022-0.055 4e-3 -0.111 7e-3 -0.166 0.011-0.121 8e-3 -0.244 0.016-0.368 0.024-0.053 3e-3 -0.106 7e-3 -0.159 0.011-0.16 0.01-0.322 0.022-0.486 0.033-0.083 6e-3 -0.168 0.012-0.252 0.018-0.086 7e-3 -0.171 0.013-0.258 0.019-0.104 8e-3 -0.209 0.015-0.314 0.023-0.055 4e-3 -0.111 9e-3 -0.166 0.013-0.525 0.04-1.058 0.082-1.598 0.126 4.411 10.84 12.785 16.757 23.872 16.757 16.503 0 27.167-13.864 27.167-35.32l1e-3 -0.184c7e-3 -6.899-3.457-13.149-9.098-16.527m-61.907-22.358c-0.847 0.333-1.659 0.721-2.433 1.161-0.024 0.015-0.046 0.033-0.072 0.048-5.353 3.099-8.809 8.687-9.231 14.797-1e-3 0.016-3e-3 0.032-4e-3 0.048-2e-3 0.034-3e-3 0.069-5e-3 0.104 2.165 1.799 3.225 4.599 3.821 7.578l0.012 0.063c0.032 0.159 0.062 0.32 0.091 0.48 0.01 0.052 0.019 0.105 0.029 0.158 0.023 0.134 0.046 0.268 0.068 0.403 9e-3 0.055 0.018 0.111 0.027 0.166 0.028 0.172 0.054 0.344 0.079 0.516 8e-3 0.055 0.015 0.11 0.023 0.165l0.054 0.393c0.011 0.081 0.021 0.162 0.031 0.243 0.013 0.101 0.025 0.201 0.038 0.301 0.01 0.086 0.02 0.171 0.03 0.256 0.012 0.099 0.023 0.197 0.034 0.296 9e-3 0.081 0.019 0.164 0.028 0.245 0.017 0.161 0.034 0.322 0.051 0.482 9e-3 0.096 0.019 0.191 0.028 0.287 9e-3 0.083 0.017 0.166 0.025 0.248 9e-3 0.098 0.019 0.196 0.028 0.293 7e-3 0.077 0.015 0.153 0.022 0.229 0.024 0.254 0.047 0.508 0.07 0.757 0.067 0.724 0.132 1.432 0.205 2.088l0.944-0.234c8.3-2.06 17.053-2.015 25.331 0.125 0.045 0.012 0.09 0.021 0.134 0.033 0.096-4.186 0.958-12.077 5.834-15.675-0.407-6.122-3.862-11.728-9.221-14.837-0.027-0.015-0.051-0.035-0.078-0.052-0.776-0.441-1.591-0.831-2.441-1.166-1.278-0.501-1.983-1.877-1.643-3.207l1.703-6.661-6.836-4.35-6.836 4.351 1.703 6.66c0.34 1.331-0.364 2.706-1.643 3.208m24.415 51.86c0.093-5e-3 0.185-0.016 0.277-0.032 9e-3 -1e-3 0.019-4e-3 0.029-6e-3 1.671-0.31 2.951-2.364 3.734-5.104 0.011-0.038 0.022-0.078 0.033-0.117 0.03-0.107 0.059-0.216 0.088-0.326 0.023-0.092 0.047-0.186 0.069-0.28 0.016-0.064 0.032-0.126 0.047-0.19 0.204-0.876 0.364-1.809 0.473-2.771 2e-3 -0.018 4e-3 -0.037 6e-3 -0.055 0.019-0.167 0.036-0.336 0.051-0.506 4e-3 -0.037 7e-3 -0.074 0.011-0.111 0.013-0.15 0.025-0.302 0.035-0.453 4e-3 -0.049 7e-3 -0.099 0.011-0.149 9e-3 -0.14 0.017-0.281 0.024-0.421 2e-3 -0.057 6e-3 -0.113 8e-3 -0.17 6e-3 -0.14 0.011-0.279 0.015-0.419 1e-3 -0.055 3e-3 -0.11 4e-3 -0.165 5e-3 -0.191 7e-3 -0.383 7e-3 -0.575v-4.433l-1.045-14.916c-2.538 2.2-3.347 7.755-3.398 11.546-1e-3 0.069-2e-3 0.138-2e-3 0.207 0 0.059-1e-3 0.12-1e-3 0.179v2.664c0 0.845-0.392 1.641-1.06 2.156-0.502 0.387-1.117 0.582-1.737 0.565-0.206-6e-3 -0.414-0.035-0.618-0.089l-3.31-0.872c-7.464-1.966-15.37-2.023-22.863-0.164l-3.769 0.935c-1.26 0.313-2.538-0.309-3.093-1.436-0.067-0.136-0.126-0.278-0.171-0.428-0.464-1.558-0.65-3.573-0.846-5.707-3e-3 -0.034-7e-3 -0.069-0.01-0.104-0.319-3.438-0.69-5.997-1.346-7.716-0.017-0.044-0.034-0.086-0.052-0.129-0.033-0.082-0.066-0.163-0.101-0.241-0.019-0.045-0.039-0.09-0.059-0.134-0.175-0.377-0.368-0.707-0.583-0.985l-1.058 17.052v1.126c0 0.174 3e-3 0.35 9e-3 0.529 0.068 2.093 0.566 4.105 1.479 5.981l2e-3 5e-3c0.959 1.971 2.381 3.755 4.118 5.159 0.012 9e-3 0.022 0.021 0.034 0.031 3.137 2.518 7.175 3.736 11.192 3.351 0.978-0.12 14.56-1.789 23.366-2.282m-38.552 7.861-0.386-5.522-8e-3 -7e-3c-0.619-0.564-1.199-1.157-1.738-1.777-0.022 0.104-0.043 0.211-0.064 0.318-0.014 0.07-0.029 0.139-0.042 0.211-0.021 0.112-0.04 0.229-0.059 0.344-0.013 0.077-0.027 0.152-0.039 0.23-0.018 0.113-0.033 0.23-0.049 0.345-0.012 0.082-0.025 0.163-0.035 0.246-0.015 0.116-0.028 0.234-0.041 0.351-9e-3 0.086-0.02 0.17-0.029 0.256-0.012 0.119-0.021 0.24-0.032 0.361-7e-3 0.087-0.016 0.173-0.022 0.261-9e-3 0.12-0.016 0.243-0.023 0.365-6e-3 0.09-0.012 0.179-0.017 0.269-6e-3 0.134-0.01 0.269-0.015 0.403-3e-3 0.081-7e-3 0.161-9e-3 0.242-5e-3 0.217-8e-3 0.435-8e-3 0.654v2.173c0 0.844-0.392 1.64-1.06 2.155-0.669 0.515-1.539 0.691-2.355 0.476l-2.698-0.71c-6.002-1.582-12.359-1.627-18.383-0.132l-3.072 0.762c-0.101 0.025-0.201 0.043-0.302 0.056-0.031 4e-3 -0.063 6e-3 -0.095 9e-3 -0.07 7e-3 -0.139 0.011-0.209 0.013-0.017 0-0.034 3e-3 -0.051 3e-3 -0.026 0-0.053-3e-3 -0.079-4e-3 -0.031 0-0.062-1e-3 -0.092-3e-3 -0.053-4e-3 -0.106-9e-3 -0.158-0.016-0.028-3e-3 -0.055-5e-3 -0.083-0.01-0.066-0.01-0.132-0.023-0.197-0.038-0.012-3e-3 -0.025-5e-3 -0.037-8e-3 -0.076-0.018-0.151-0.041-0.225-0.066-0.026-9e-3 -0.05-0.019-0.076-0.028-0.048-0.019-0.096-0.037-0.144-0.058-0.029-0.013-0.057-0.027-0.086-0.041-0.043-0.02-0.085-0.041-0.127-0.064l-0.084-0.048c-0.042-0.025-0.082-0.051-0.122-0.078-0.026-0.017-0.052-0.034-0.077-0.052-0.044-0.032-0.086-0.065-0.128-0.1-0.019-0.015-0.039-0.029-0.058-0.046-0.059-0.05-0.116-0.103-0.17-0.159-0.015-0.015-0.029-0.032-0.044-0.048-0.039-0.042-0.078-0.085-0.115-0.13-0.019-0.023-0.037-0.047-0.055-0.071-0.031-0.04-0.061-0.081-0.09-0.123-0.018-0.026-0.035-0.053-0.052-0.08-0.027-0.043-0.052-0.086-0.077-0.131-0.015-0.027-0.03-0.054-0.045-0.083-0.025-0.049-0.048-0.099-0.07-0.149-0.011-0.026-0.022-0.05-0.033-0.076-0.03-0.075-0.057-0.152-0.081-0.231l-2e-3 -5e-3c-0.392-1.318-0.546-2.984-0.709-4.748v-4e-3c-0.195-2.119-0.408-3.808-0.719-5.085-8e-3 -0.031-0.016-0.062-0.023-0.093-0.033-0.13-0.067-0.253-0.102-0.373-8e-3 -0.031-0.018-0.06-0.027-0.09l-0.739 11.924v0.902c0 0.137 2e-3 0.275 7e-3 0.415 0.106 3.244 1.525 6.225 3.997 8.394 2.505 2.198 5.84 3.276 9.157 2.961 0.854-0.105 11.897-1.461 19.07-1.862 2.184-0.122 3.536-4.847 3.536-9.154zm-6.5-31.449 0.22-3.56h-1.474l-0.609 2.417c0.642 0.346 1.263 0.73 1.863 1.143m-25.961 15.382c3e-3 2e-3 6e-3 6e-3 9e-3 9e-3 0.141 0.128 0.28 0.265 0.416 0.41 0.087 0.091 0.17 0.186 0.252 0.281 0.036 0.044 0.073 0.088 0.11 0.132 0.925 1.126 1.535 2.507 1.951 3.992 0.124 0.44 0.231 0.887 0.324 1.34 0.018 0.087 0.036 0.175 0.053 0.262 0.022 0.114 0.044 0.227 0.065 0.341 0.034 0.188 0.066 0.377 0.096 0.567 0.013 0.083 0.026 0.166 0.038 0.25 0.026 0.167 0.05 0.334 0.073 0.501 7e-3 0.053 0.014 0.105 0.021 0.158 0.03 0.226 0.058 0.451 0.084 0.676 5e-3 0.043 0.01 0.086 0.015 0.13 0.084 0.741 0.152 1.473 0.217 2.179 0.035 0.381 0.07 0.757 0.106 1.118l0.207-0.051c6.678-1.658 13.713-1.664 20.393-0.024 7e-3 -0.183 0.017-0.372 0.029-0.564 3e-3 -0.059 8e-3 -0.12 0.012-0.179 8e-3 -0.137 0.018-0.274 0.029-0.414 6e-3 -0.073 0.012-0.147 0.019-0.221 0.011-0.132 0.023-0.265 0.037-0.4 8e-3 -0.078 0.016-0.157 0.024-0.236 0.015-0.136 0.031-0.274 0.048-0.412 0.01-0.079 0.019-0.157 0.03-0.237 0.02-0.151 0.042-0.303 0.064-0.455 0.01-0.068 0.02-0.135 0.03-0.203 0.07-0.444 0.152-0.895 0.25-1.349 0.013-0.064 0.029-0.128 0.043-0.192 0.037-0.162 0.074-0.325 0.114-0.487 0.02-0.081 0.042-0.163 0.063-0.244 0.039-0.147 0.078-0.293 0.12-0.439 0.024-0.086 0.05-0.172 0.076-0.259 0.043-0.143 0.088-0.286 0.134-0.429 0.028-0.084 0.056-0.169 0.084-0.253 0.052-0.15 0.106-0.299 0.162-0.447 0.028-0.075 0.054-0.15 0.084-0.224 0.076-0.195 0.157-0.389 0.241-0.58 0.011-0.026 0.021-0.051 0.032-0.077 0.096-0.215 0.197-0.427 0.304-0.636 0.033-0.066 0.07-0.131 0.105-0.198 0.058-0.108 0.114-0.218 0.174-0.325-0.392-1.012-0.702-2.057-0.926-3.129-0.014-0.065-0.028-0.128-0.041-0.193-0.037-0.184-0.07-0.37-0.102-0.556-0.025-0.146-0.048-0.291-0.07-0.437-0.022-0.151-0.044-0.301-0.063-0.453-0.025-0.195-0.045-0.391-0.064-0.588-0.012-0.117-0.025-0.233-0.034-0.351-0.026-0.32-0.045-0.641-0.056-0.964-8e-3 -0.238-0.012-0.475-0.012-0.708v-1.21c0-0.056 2e-3 -0.112 6e-3 -0.169l0.013-0.208 0.147-2.382c-1.538-1.741-3.463-3.093-5.62-3.94-1.275-0.501-1.979-1.87-1.645-3.199l1.301-5.163-4.994-3.116-4.995 3.116 1.301 5.163c0.335 1.328-0.37 2.698-1.645 3.199-5.284 2.074-8.816 6.896-9.239 12.477m-16.297-27.668v-31.561c0-1.503 1.219-2.721 2.722-2.721h29.684v-33.312c0.226-2.594-0.021-5.248-0.311-7.903h75c0.126 1.797 0.189 3.605 0.17 5.443h-0.328v33.323h26.192c1.503 0 2.722 1.218 2.722 2.721v28.008c0 4.096-1.989 7.736-5.051 10.008 5.368 4.584 8.551 11.453 8.543 18.896l-1e-3 0.181c0 11.763-2.939 21.819-8.5 29.081-5.853 7.642-14.19 11.682-24.11 11.682-13.819 0-24.462-7.872-29.499-21.685-6.582 0.652-12.563 1.391-12.655 1.402-0.024 3e-3 -0.047 6e-3 -0.071 8e-3 -3.578 0.349-7.171-0.242-10.42-1.657l0.107 1.536c5e-3 0.063 7e-3 0.126 7e-3 0.19v3.691c0 3.141-0.567 6.317-1.556 8.714-2.012 4.878-5.324 5.774-7.119 5.875-7.122 0.398-18.626 1.82-18.742 1.834-0.023 3e-3 -0.046 5e-3 -0.069 7e-3 -4.82 0.472-9.671-1.09-13.311-4.283-3.614-3.173-5.691-7.543-5.847-12.307-6e-3 -0.2-0.01-0.398-0.01-0.594v-0.986c0-0.056 2e-3 -0.112 6e-3 -0.168l1.055-17.021c0.083-1.334 1.117-2.392 2.416-2.535 0.911-6.28 4.713-11.719 10.328-14.729l-0.608-2.412h-12.019c-4.811 0-8.725-3.915-8.725-8.726" fill="#004f53"/>
    </g>
    <g transform="translate(626.18 2229.5)">
     <path d="m0 0c10.342-2.994 20.684-2.721 31.026 0-1.988-7.287 0.683-14.574 5.251-20.262l0.96 3.566 3.084 20.865-4.173 11.067s-1.814 3.266-2.903 3.448c-1.088 0.181-19.05 3.265-19.05 3.265l-11.431-1.27-5.987-3.81-3.085-5.261-2.721-6.169-0.363-16.511 2.21-6.731c4.795 4.862 5.861 11.461 7.182 17.803" fill="#e9e9e9"/>
    </g>
    <g transform="translate(651.63 2183.9)">
     <path d="m0 0-1.08-0.102c-0.346-0.543-0.668-1.102-0.958-1.681-0.117-0.221-0.225-0.444-0.33-0.667 0.852 0.76 1.627 1.589 2.368 2.45" fill="#fff"/>
    </g>
    <g transform="translate(673.04 2182.3)">
     <path d="m0 0c-1.633 0.726-13.426 2.359-13.426 2.359l-7.984-0.754c-0.741-0.861-1.516-1.689-2.368-2.45-4.046-8.567 0.609-18.625 0.874-27.908 0-4.355-5.987-6.804-8.981-10.07-2.449 3.266-5.171 6.532-8.981 8.437 1.361 8.709 0.545 18.506 3.538 26.671-2.77 1.491-5.536 2.987-7.523 5.262l-17.382-1.003-3.81-7.257 0.182-38.102 67.312-0.907 2.178 41.912s-1.996 3.084-3.629 3.81" fill="#fff"/>
    </g>
    <g transform="translate(629.92 2184.5)">
     <path d="m0 0-0.248-0.511-1.488-0.086c1.987-2.276 4.753-3.771 7.523-5.263-2.993-8.164-2.177-17.962-3.538-26.671 3.811-1.905 6.532-5.171 8.981-8.437 2.994 3.266 8.982 5.716 8.982 10.07-0.266 9.283-4.921 19.342-0.875 27.908-0.73-0.651-1.515-1.255-2.391-1.781-6.43-3.811-12.444 0.09-16.946 4.771" fill="#2da868"/>
    </g>
    <g transform="translate(650.55 2183.8)">
     <path d="m0 0-0.552-0.052 2.903 10.16 7.983 9.435 1.58 5.869c-4.568 5.688-7.239 12.975-5.252 20.262-10.341-2.722-20.683-2.994-31.025 0-1.321-6.342-2.387-12.941-7.182-17.803l1.782-5.425 11.793-16.329-2.655-5.476c4.502-4.681 10.515-8.582 16.946-4.771 0.876 0.526 1.661 1.13 2.391 1.781 0.105 0.224 0.213 0.447 0.33 0.668 0.29 0.579 0.612 1.138 0.958 1.681" fill="#fff"/>
    </g>
    <g transform="translate(672.97 2176.2)">
     <path d="m0 0v-36.003h-17.95l6.032 40.649h7.273c0.159 0 0.316-9e-3 0.472-0.024 2.168-0.221 3.907-1.947 4.144-4.113 0-4e-3 1e-3 -8e-3 1e-3 -8e-3 0.016-0.144 0.023-0.287 0.025-0.43 0-0.024 3e-3 -0.047 3e-3 -0.071zm-23.21 2.874 2.783 1.772h3.006l-3.471-23.393zm-0.243-38.877h-6.796c0.133 0.094 0.259 0.199 0.374 0.316l7.628 7.81zm-14.362 12.248 2.506 23.368 2.026-1.289c0.186-0.118 0.384-0.206 0.587-0.275 0.567-0.193 1.181-0.193 1.749 0 0.202 0.069 0.4 0.157 0.586 0.275l2.026 1.289 2.506-23.368-5.993-6.135zm-2.376-12.248-1.207 8.126 7.629-7.81c0.115-0.118 0.241-0.222 0.373-0.316zm-6.033 40.649h3.006l2.784-1.772-2.318-21.621zm-17.42-40.649v36.003c0 0.615 0.123 1.202 0.341 1.739 0.013 0.033 0.026 0.067 0.04 0.099 0.113 0.262 0.249 0.511 0.406 0.745 0.01 0.015 0.021 0.03 0.031 0.044 0.068 0.1 0.141 0.196 0.217 0.29 0.02 0.025 0.041 0.05 0.062 0.075 0.071 0.083 0.144 0.164 0.22 0.241 0.023 0.025 0.046 0.049 0.07 0.073 0.093 0.091 0.189 0.179 0.289 0.263 8e-3 6e-3 0.015 0.013 0.023 0.019 0.099 0.082 0.203 0.158 0.309 0.232 0.047 0.032 0.095 0.062 0.143 0.092 0.064 0.041 0.129 0.081 0.194 0.119 0.057 0.032 0.113 0.063 0.171 0.093 0.063 0.032 0.126 0.062 0.191 0.092 0.059 0.027 0.117 0.056 0.178 0.081 0.114 0.046 0.229 0.089 0.347 0.127 0.054 0.017 0.109 0.031 0.164 0.046 0.079 0.022 0.159 0.044 0.241 0.062 0.056 0.013 0.113 0.023 0.17 0.034 0.088 0.016 0.177 0.029 0.267 0.04 0.049 7e-3 0.097 0.013 0.146 0.018 0.14 0.013 0.281 0.022 0.425 0.022h7.272l6.033-40.649zm13.309 70.074c-1e-3 0.015-2e-3 0.031-3e-3 0.047-3e-3 0.035-3e-3 0.07-6e-3 0.105 2.165 1.799 3.225 4.598 3.822 7.578l0.012 0.063c0.032 0.159 0.062 0.319 0.091 0.479 0.01 0.053 0.019 0.106 0.028 0.158 0.024 0.135 0.047 0.269 0.069 0.404 9e-3 0.055 0.018 0.11 0.027 0.166 0.027 0.171 0.053 0.344 0.078 0.516 8e-3 0.055 0.016 0.11 0.024 0.164 0.018 0.131 0.036 0.262 0.053 0.393 0.011 0.082 0.022 0.163 0.032 0.244 0.013 0.1 0.025 0.2 0.037 0.3 0.011 0.086 0.021 0.171 0.031 0.257 0.011 0.099 0.023 0.197 0.034 0.295l0.027 0.246c0.018 0.161 0.035 0.322 0.051 0.482 0.01 0.096 0.019 0.191 0.029 0.286l0.024 0.249c0.01 0.098 0.02 0.195 0.029 0.293 7e-3 0.076 0.014 0.152 0.021 0.228 0.024 0.255 0.048 0.508 0.071 0.758 0.066 0.723 0.132 1.431 0.205 2.087l0.943-0.234c8.3-2.06 17.054-2.014 25.332 0.126 0.044 0.011 0.089 0.021 0.134 0.032 0.095-4.186 0.957-12.076 5.834-15.674-0.408-6.122-3.863-11.729-9.222-14.837-0.027-0.016-0.05-0.036-0.077-0.053-0.776-0.441-1.591-0.831-2.442-1.165-1.278-0.502-1.982-1.877-1.642-3.207l1.703-6.661-6.836-4.35-6.837 4.35 1.703 6.661c0.34 1.33-0.364 2.705-1.642 3.207-0.848 0.333-1.66 0.722-2.433 1.161-0.025 0.015-0.047 0.034-0.072 0.048-5.353 3.099-8.809 8.687-9.232 14.798m-0.849 14.106c-0.32-3.437-0.691-5.997-1.347-7.716-0.016-0.043-0.034-0.086-0.051-0.129-0.033-0.082-0.067-0.162-0.101-0.24-0.02-0.045-0.039-0.09-0.06-0.134-0.175-0.378-0.367-0.708-0.583-0.986l-1.057 17.052v1.126c0 0.174 3e-3 0.351 8e-3 0.529 0.069 2.093 0.566 4.105 1.479 5.982 0 0 2e-3 3e-3 2e-3 5e-3 0.959 1.971 2.381 3.754 4.118 5.158 0.012 0.01 0.023 0.021 0.035 0.031 3.136 2.518 7.174 3.737 11.192 3.352 0.978-0.121 14.56-1.79 23.366-2.282 0.093-6e-3 0.185-0.017 0.276-0.032 0.01-2e-3 0.02-5e-3 0.03-6e-3 1.671-0.31 2.95-2.365 3.734-5.104 0.011-0.039 0.021-0.078 0.032-0.117 0.03-0.108 0.06-0.217 0.088-0.326 0.024-0.093 0.047-0.187 0.07-0.281 0.016-0.063 0.031-0.126 0.046-0.19 0.205-0.875 0.364-1.808 0.474-2.77 2e-3 -0.018 4e-3 -0.037 6e-3 -0.055 0.018-0.168 0.036-0.337 0.051-0.506 4e-3 -0.037 7e-3 -0.074 0.01-0.111 0.013-0.151 0.025-0.302 0.036-0.453 4e-3 -0.05 7e-3 -0.1 0.01-0.15 0.01-0.14 0.017-0.28 0.024-0.421 3e-3 -0.057 6e-3 -0.113 9e-3 -0.17 6e-3 -0.139 0.01-0.279 0.014-0.419 2e-3 -0.055 4e-3 -0.109 5e-3 -0.164 4e-3 -0.192 7e-3 -0.383 7e-3 -0.575v-4.434l-1.045-14.916c-2.538 2.201-3.347 7.756-3.399 11.546 0 0.069-1e-3 0.138-1e-3 0.207 0 0.06-1e-3 0.121-1e-3 0.179v2.665c0 0.844-0.392 1.64-1.06 2.156-0.502 0.386-1.117 0.582-1.737 0.564-0.207-5e-3 -0.414-0.035-0.618-0.088l-3.31-0.872c-7.465-1.967-15.37-2.023-22.863-0.164l-3.769 0.935c-1.26 0.313-2.538-0.309-3.094-1.437-0.067-0.136-0.126-0.278-0.17-0.428-0.464-1.558-0.65-3.573-0.847-5.706-3e-3 -0.035-6e-3 -0.07-9e-3 -0.105m56.627-84.18s9e-3 35.429-0.116 36.483c-0.094 0.786-0.199 1.573-0.294 2.36-0.03 0.103-0.062 0.206-0.095 0.308-3e-3 8e-3 -5e-3 0.014-7e-3 0.021-0.942 2.84-3.113 5.122-5.88 6.216-0.018 7e-3 -0.035 0.014-0.053 0.021-0.109 0.042-0.218 0.082-0.329 0.121-0.029 0.01-0.059 0.02-0.089 0.03-0.106 0.036-0.212 0.071-0.32 0.103-0.028 9e-3 -0.056 0.016-0.083 0.024-0.189 0.055-0.38 0.105-0.573 0.149-0.056 0.012-0.111 0.026-0.167 0.038-0.074 0.016-0.149 0.029-0.224 0.043-0.08 0.015-0.159 0.03-0.24 0.043-0.069 0.011-0.139 0.021-0.209 0.031-0.089 0.013-0.178 0.024-0.268 0.034-0.064 8e-3 -0.129 0.015-0.194 0.021-0.103 9e-3 -0.206 0.017-0.309 0.023-0.053 4e-3 -0.107 8e-3 -0.161 0.011-0.159 7e-3 -0.318 0.012-0.478 0.012h-13.795v5.328c2.469 1.658 4.618 3.768 6.343 6.251 0.983 1.415 1.895 2.675 2.466 4.462 0.57 1.787 0.67 3.238 1.418 4.531 0.403 0.696 1.764 2.05 1.853 2.107 0.013 8e-3 0.025 0.018 0.037 0.026 0.076 0.051 0.149 0.106 0.219 0.164 0.023 0.019 0.045 0.037 0.067 0.057 0.07 0.061 0.137 0.127 0.201 0.195 8e-3 9e-3 0.017 0.018 0.026 0.027 0.07 0.077 0.134 0.16 0.195 0.246 0.016 0.022 0.031 0.046 0.047 0.069 0.046 0.071 0.089 0.143 0.129 0.217 0.013 0.023 0.026 0.044 0.037 0.067 0.047 0.094 0.089 0.191 0.126 0.292 7e-3 0.02 0.013 0.041 0.02 0.062 0.028 0.084 0.052 0.169 0.072 0.257 7e-3 0.029 0.014 0.058 0.019 0.088 0.015 0.078 0.024 0.158 0.033 0.237-0.075 2.465 1.309 18.585 1.309 18.585 4e-3 0.063 6e-3 0.126 6e-3 0.19v4.529c0 0.275-5e-3 0.551-0.012 0.827-2e-3 0.094-6e-3 0.188-9e-3 0.283-7e-3 0.18-0.014 0.361-0.023 0.541-6e-3 0.112-0.012 0.223-0.019 0.334-0.01 0.169-0.023 0.337-0.036 0.505-8e-3 0.109-0.016 0.22-0.025 0.329-0.022 0.244-0.046 0.487-0.073 0.729-0.015 0.136-0.032 0.27-0.049 0.406-0.016 0.129-0.032 0.258-0.05 0.386-0.018 0.138-0.038 0.275-0.059 0.412-0.02 0.131-0.041 0.262-0.062 0.392-0.02 0.127-0.041 0.253-0.063 0.379-0.042 0.24-0.087 0.478-0.134 0.713-0.015 0.073-0.028 0.146-0.047 0.218-1.195 4.622-2.249 6.106-2.249 6.106-0.155 0.259-0.313 0.505-0.474 0.737-2.106 3.045-4.705 3.876-6.677 3.987-0.159 9e-3 -0.322 0.018-0.486 0.028-0.045 3e-3 -0.091 5e-3 -0.136 8e-3 -0.12 8e-3 -0.242 0.015-0.365 0.023-0.055 3e-3 -0.111 7e-3 -0.167 0.01-0.121 8e-3 -0.244 0.016-0.368 0.025-0.053 3e-3 -0.106 7e-3 -0.159 0.01-0.159 0.011-0.321 0.022-0.485 0.034-0.084 6e-3 -0.168 0.012-0.253 0.018s-0.171 0.012-0.257 0.019c-0.104 7e-3 -0.209 0.015-0.314 0.023-0.055 4e-3 -0.111 8e-3 -0.166 0.012-0.525 0.04-1.059 0.082-1.599 0.127 0.033 0.08-5.608 0.565-5.626 0.514-6.583 0.652-12.564 1.391-12.656 1.402-0.023 3e-3 -0.047 6e-3 -0.07 8e-3 -3.579 0.35-7.171-0.241-10.42-1.656 0 0-3.751-2.793-5.301-4.623-1.347-1.591-2.604-3.246-3.743-5.018-1.361-1.905-2.45-4.354-2.722-6.803-0.272-0.545-0.272-1.906-0.272-2.178 0-3.854 0.429-14.567 0.429-14.567l0.337-5.443 0.152-2.446c0.058-0.945 0.596-1.75 1.366-2.191 0.229-0.132 0.478-0.23 0.742-0.291 0.112-0.026 0.225-0.047 0.342-0.058 0.087-9e-3 0.176-0.013 0.266-0.013 0.059 0 0.118 1e-3 0.177 2e-3 0.478-3.828 1.864-7.47 4.086-10.669 1.729-2.488 3.884-4.601 6.359-6.26v-5.319h-13.811c-0.206 0-0.409-8e-3 -0.612-0.02-0.051-3e-3 -0.103-8e-3 -0.154-0.012-0.162-0.012-0.324-0.028-0.484-0.048-0.041-5e-3 -0.083-0.01-0.125-0.016-1.94-0.265-3.706-1.084-5.133-2.292-0.04-0.033-0.078-0.067-0.117-0.101-0.106-0.093-0.21-0.187-0.312-0.285-0.048-0.045-0.096-0.089-0.143-0.135-0.108-0.107-0.214-0.217-0.317-0.329-0.069-0.074-0.135-0.149-0.201-0.225-0.076-0.086-0.151-0.173-0.223-0.262-0.061-0.074-0.121-0.151-0.179-0.227-0.057-0.074-0.112-0.148-0.167-0.224-0.058-0.08-0.117-0.16-0.172-0.242-0.063-0.091-0.122-0.185-0.182-0.279-0.014-0.022-0.028-0.044-0.043-0.066-0.437-0.804-0.784-1.971-1.035-3.029-0.323-1.354-0.489-2.527-0.489-2.527v-33.313c-0.039-2.838-0.039-7.902-0.039-7.902l74.527-0.201z" fill="#004f53"/>
    </g>
    <g transform="translate(562.09 2196.8)">
     <path d="m0 0s9.416-8.16 22.388-0.209l2.16-4.919s-13.497-9.219-26.748 0.011z" fill="#004f53"/>
    </g>
    <g transform="translate(694.08 2197.8)">
     <path d="m0 0s10.213-8.546 24.284-1.127l2.342-5.008s-14.639-8.666-29.012 1.108z" fill="#004f53"/>
    </g>
    <g transform="translate(629.02 2197.6)">
     <path d="m0 0s10.798-8.231 24.495 0.164l1.424-5.579s-14.25-9.734-28.242 0.012z" fill="#004f53"/>
    </g>
    <g transform="translate(526.78 2226.1)">
     <path d="m0 0s7.734-7.332 18.049-1.01l1.073-4.201s-10.732-7.331-21.269 9e-3z" fill="#004f53"/>
    </g>
    <g transform="translate(734.88 2225.6)">
     <path d="m0 0s7.572-6.623 17.888-0.3l1.465-5.435s-10.963-6.807-21.5 0.533z" fill="#004f53"/>
    </g>
    <g transform="translate(602.66 2227.9)">
     <path d="M 0,0 -2.147,-5.202 C 4.214,-9.633 10.645,-8.717 14.744,-7.295 14.52,-5.804 14.327,-4.312 14.187,-2.821 5.863,-5.556 0,0 0,0" fill="#004f53"/>
    </g>
    <g transform="translate(678.44 2228.2)">
     <path d="m 0,0 2.147,-5.202 c -6.361,-4.431 -12.792,-3.515 -16.891,-2.093 0.224,1.491 0.417,2.982 0.557,4.473 C -5.863,-5.556 0,0 0,0" fill="#004f53"/>
    </g>
   </g>
  </g>
 </g>
</svg>
