<?xml version="1.0" encoding="UTF-8"?>
<!-- Created with Inkscape (http://www.inkscape.org/) -->
<svg width="16.291mm" height="20.921mm" version="1.1" viewBox="0 0 16.291 21.72" xmlns="http://www.w3.org/2000/svg" xmlns:cc="http://creativecommons.org/ns#" xmlns:dc="http://purl.org/dc/elements/1.1/" xmlns:rdf="http://www.w3.org/1999/02/22-rdf-syntax-ns#">
 <defs>
  <clipPath id="clipPath3814">
   <path d="m0 8681.9h1280v-8681.9h-1280z"/>
  </clipPath>
 </defs>
 <metadata>
  <rdf:RDF>
   <cc:Work rdf:about="">
    <dc:format>image/svg+xml</dc:format>
    <dc:type rdf:resource="http://purl.org/dc/dcmitype/StillImage"/>
    <dc:title/>
   </cc:Work>
  </rdf:RDF>
 </metadata>
 <g transform="translate(-28.352 -242.17)">
  <g transform="matrix(.35278 0 0 -.35278 -76.005 1250.6)" clip-path="url(#clipPath3814)">
   <g transform="translate(333.03 2820.3)">
    <path d="m0 0c0.118 0.277 0.244 0.521 0.39 0.667 0.346 0.344 1.16 0.59 1.947 0.829 1.308 0.397 2.794 0.846 3.54 2.137 0.737 1.272 0.388 2.77 0.082 4.092-0.189 0.81-0.384 1.649-0.251 2.139 0.116 0.449 0.713 1.083 1.239 1.642 0.947 1.008 2.019 2.15 2.019 3.674s-1.072 2.665-2.019 3.673c-0.526 0.56-1.121 1.193-1.239 1.64-0.131 0.49 0.064 1.331 0.251 2.142 0.306 1.321 0.655 2.819-0.082 4.094-0.746 1.291-2.229 1.74-3.54 2.135-0.787 0.238-1.598 0.484-1.944 0.828-0.347 0.344-0.591 1.157-0.829 1.945-0.395 1.308-0.844 2.791-2.135 3.538-1.28 0.741-2.773 0.392-4.097 0.084-0.81-0.187-1.647-0.382-2.139-0.251-0.449 0.12-1.083 0.716-1.642 1.242-1.008 0.946-2.15 2.018-3.674 2.018-1.521 0-2.663-1.072-3.671-2.018-0.562-0.526-1.195-1.122-1.644-1.242-0.493-0.134-1.332 0.064-2.14 0.251-1.326 0.308-2.822 0.654-4.097-0.082-1.288-0.746-1.736-2.229-2.132-3.54-0.238-0.788-0.484-1.601-0.828-1.945-0.347-0.344-1.16-0.59-1.947-0.828-1.309-0.398-2.794-0.847-3.541-2.137-0.736-1.273-0.387-2.771-0.082-4.092 0.19-0.811 0.385-1.65 0.252-2.14-0.116-0.449-0.713-1.082-1.239-1.642-0.947-1.008-2.019-2.152-2.019-3.673 0-1.522 1.072-2.666 2.019-3.674 0.526-0.559 1.121-1.193 1.239-1.639 0.131-0.49-0.064-1.332-0.252-2.142-0.305-1.322-0.654-2.82 0.082-4.095 0.747-1.29 2.23-1.739 3.541-2.134 0.787-0.239 1.598-0.485 1.944-0.829 0.146-0.146 0.272-0.387 0.39-0.664l-8.866-21.532c-0.205-0.495-0.079-1.065 0.311-1.429 0.243-0.226 0.556-0.344 0.874-0.344 0.195 0 0.39 0.044 0.575 0.139l9.595 4.797 7.078-4.717c0.325-0.216 0.733-0.27 1.105-0.155 0.372 0.121 0.67 0.403 0.806 0.77l2.801 7.471 2.476-7.427c0.128-0.38 0.426-0.678 0.803-0.808 0.377-0.129 0.793-0.077 1.126 0.146l7.078 4.718 9.595-4.798c0.184-0.092 0.379-0.136 0.574-0.136 0.319 0 0.632 0.118 0.873 0.342 0.39 0.364 0.515 0.933 0.31 1.429z" fill="#2da868"/>
   </g>
   <g transform="translate(318.9 2822.7)">
    <path d="m0 0c-7.073 0-12.827 5.754-12.827 12.827s5.754 12.827 12.827 12.827 12.827-5.754 12.827-12.827-5.754-12.827-12.827-12.827m15.393 12.827c0 8.489-6.904 15.393-15.393 15.393s-15.392-6.904-15.392-15.393 6.903-15.392 15.392-15.392 15.393 6.903 15.393 15.392m-3.277-30.921c-0.41 0.208-0.903 0.177-1.285-0.079l-6.298-4.2-4.064 12.191c1.283 0.195 2.304 1.095 3.202 1.939 0.562 0.526 1.196 1.121 1.645 1.242 0.495 0.131 1.331-0.064 2.139-0.251 1.326-0.308 2.822-0.654 4.097 0.082 0.554 0.32 0.934 0.795 1.242 1.318l6.521-15.841zm-12.119 10.398c-0.505 0-1.254 0.703-1.916 1.323-0.816 0.77-1.662 1.563-2.735 1.85-0.346 0.093-0.695 0.131-1.046 0.131-0.778 0-1.565-0.185-2.332-0.362-0.821-0.192-1.837-0.428-2.232-0.195-0.413 0.239-0.706 1.206-0.965 2.06-0.328 1.091-0.667 2.217-1.47 3.017-0.8 0.801-1.926 1.142-3.017 1.47-0.854 0.257-1.821 0.549-2.062 0.962-0.229 0.398 7e-3 1.414 0.197 2.232 0.259 1.119 0.526 2.273 0.231 3.384-0.29 1.072-1.082 1.916-1.85 2.735-0.623 0.662-1.326 1.411-1.326 1.916 0 0.506 0.706 1.255 1.326 1.916 0.768 0.816 1.563 1.663 1.85 2.735 0.295 1.108 0.028 2.263-0.231 3.381-0.19 0.819-0.426 1.835-0.197 2.23 0.241 0.413 1.208 0.705 2.065 0.964 1.09 0.329 2.214 0.67 3.017 1.47 0.798 0.798 1.139 1.927 1.47 3.015 0.259 0.854 0.551 1.824 0.962 2.062 0.403 0.226 1.416-7e-3 2.229-0.197 1.114-0.259 2.265-0.529 3.381-0.231 1.073 0.287 1.919 1.082 2.738 1.849 0.659 0.621 1.408 1.324 1.913 1.324 0.506 0 1.255-0.703 1.917-1.324 0.816-0.769 1.662-1.562 2.735-1.849 1.113-0.298 2.267-0.028 3.378 0.231 0.819 0.192 1.837 0.426 2.232 0.195 0.413-0.239 0.706-1.206 0.965-2.06 0.328-1.09 0.667-2.217 1.47-3.017 0.8-0.801 1.926-1.142 3.017-1.47 0.854-0.257 1.821-0.549 2.062-0.962 0.229-0.398-7e-3 -1.414-0.197-2.232-0.259-1.119-0.526-2.273-0.231-3.384 0.29-1.072 1.082-1.916 1.849-2.735 0.624-0.662 1.327-1.411 1.327-1.916s-0.706-1.255-1.327-1.916c-0.767-0.816-1.562-1.663-1.849-2.735-0.295-1.108-0.028-2.263 0.231-3.381 0.19-0.819 0.426-1.835 0.197-2.23-0.241-0.413-1.208-0.705-2.065-0.964-1.09-0.329-2.214-0.67-3.017-1.47-0.798-0.798-1.139-1.927-1.47-3.015-0.259-0.854-0.551-1.824-0.962-2.062-0.395-0.228-1.413 7e-3 -2.229 0.197-1.114 0.259-2.266 0.529-3.381 0.231-1.073-0.287-1.919-1.082-2.738-1.85-0.659-0.62-1.408-1.323-1.914-1.323m-1.198-5.96-3.281-8.748-6.352 4.233c-0.387 0.254-0.877 0.287-1.285 0.08l-7.199-3.6 6.522 15.842c0.308-0.524 0.687-0.995 1.244-1.319 1.28-0.741 2.776-0.392 4.097-0.084 0.808 0.187 1.644 0.387 2.139 0.251 0.449-0.121 1.083-0.716 1.642-1.242 0.362-0.338 0.749-0.679 1.155-0.995 0.01-0.049 2e-3 -0.097 0.018-0.146l1.38-4.143c-0.023-0.046-0.062-0.08-0.08-0.129m15.324 11.303c0.118 0.278 0.243 0.521 0.39 0.667 0.346 0.344 1.159 0.591 1.947 0.829 1.308 0.398 2.793 0.847 3.54 2.137 0.736 1.273 0.387 2.771 0.082 4.092-0.19 0.811-0.385 1.649-0.251 2.139 0.115 0.449 0.713 1.083 1.239 1.643 0.946 1.008 2.019 2.149 2.019 3.673s-1.073 2.666-2.019 3.674c-0.526 0.559-1.121 1.193-1.239 1.639-0.131 0.49 0.064 1.331 0.251 2.142 0.305 1.322 0.654 2.82-0.082 4.095-0.747 1.29-2.229 1.739-3.54 2.134-0.788 0.239-1.599 0.485-1.945 0.829-0.346 0.343-0.59 1.157-0.828 1.944-0.396 1.309-0.845 2.791-2.135 3.538-1.28 0.741-2.773 0.393-4.097 0.085-0.811-0.188-1.647-0.383-2.139-0.252-0.449 0.121-1.083 0.716-1.642 1.242-1.009 0.947-2.15 2.019-3.674 2.019-1.521 0-2.663-1.072-3.671-2.019-0.562-0.526-1.196-1.121-1.645-1.242-0.492-0.133-1.331 0.064-2.139 0.252-1.326 0.308-2.822 0.654-4.097-0.083-1.288-0.746-1.737-2.229-2.132-3.54-0.239-0.787-0.485-1.601-0.829-1.944-0.346-0.344-1.159-0.59-1.947-0.829-1.308-0.397-2.793-0.846-3.54-2.137-0.736-1.272-0.387-2.77-0.082-4.092 0.19-0.811 0.385-1.649 0.251-2.139-0.115-0.449-0.713-1.083-1.239-1.642-0.946-1.008-2.019-2.153-2.019-3.674s1.073-2.665 2.019-3.674c0.526-0.559 1.121-1.193 1.239-1.639 0.131-0.49-0.064-1.331-0.251-2.142-0.305-1.321-0.654-2.819 0.082-4.094 0.747-1.291 2.229-1.74 3.54-2.135 0.788-0.238 1.599-0.485 1.945-0.829 0.146-0.146 0.272-0.387 0.39-0.664l-8.866-21.531c-0.206-0.495-0.08-1.065 0.31-1.429 0.244-0.226 0.557-0.344 0.875-0.344 0.195 0 0.39 0.043 0.575 0.138l9.594 4.798 7.078-4.718c0.326-0.216 0.734-0.269 1.106-0.154 0.372 0.121 0.67 0.403 0.806 0.77l2.801 7.47 2.476-7.427c0.128-0.379 0.425-0.677 0.803-0.808 0.377-0.128 0.792-0.077 1.126 0.146l7.078 4.718 9.594-4.797c0.185-0.093 0.38-0.136 0.575-0.136 0.318 0 0.631 0.118 0.872 0.341 0.39 0.364 0.516 0.934 0.311 1.429z" fill="#fff"/>
   </g>
  </g>
 </g>
</svg>
