<?xml version="1.0" encoding="UTF-8"?>
<!-- Created with Inkscape (http://www.inkscape.org/) -->
<svg width="18.352mm" height="20.355mm" version="1.1" viewBox="0 0 18.352 21.15" xmlns="http://www.w3.org/2000/svg" xmlns:cc="http://creativecommons.org/ns#" xmlns:dc="http://purl.org/dc/elements/1.1/" xmlns:rdf="http://www.w3.org/1999/02/22-rdf-syntax-ns#">
 <defs>
  <clipPath id="clipPath2744">
   <path d="m0 8681.9h1280v-8681.9h-1280z"/>
  </clipPath>
 </defs>
 <metadata>
  <rdf:RDF>
   <cc:Work rdf:about="">
    <dc:format>image/svg+xml</dc:format>
    <dc:type rdf:resource="http://purl.org/dc/dcmitype/StillImage"/>
    <dc:title/>
   </cc:Work>
  </rdf:RDF>
 </metadata>
 <g transform="translate(-5.6597 -271.35)">
  <g transform="matrix(.35278 0 0 -.35278 -97.302 1371)">
   <g clip-path="url(#clipPath2744)">
    <g transform="translate(341.93 3106.7)">
     <path d="m0 0-18.307 9.913c-1.736 0.941-4.124 0.217-5.065-1.519l-10.709-19.899h-13.024c-1.665 0-2.967-1.303-2.967-2.967v-32.199c0-1.664 1.302-2.967 2.967-2.967h41.606c1.664 0 2.966 1.303 2.966 2.967v7.525h1.231c0.651 0 1.157 0.507 1.157 1.158v8.61c0 0.652-0.506 1.158-1.157 1.158h-1.231v8.466c0 1.375-1.013 2.605-2.315 2.894l6.368 11.795c0.94 1.809 0.289 4.052-1.52 5.065" fill="#2da868"/>
    </g>
    <g transform="translate(341.35 3102.8)">
     <path d="m0 0-6.946-12.88h-14.327l10.853 20.044 9.841-5.355c0.724-0.289 0.941-1.158 0.579-1.809m-8.828-24.312c-1.953 0-3.473-1.592-3.473-3.474v-3.979c0-1.954 1.592-3.474 3.473-3.474h4.487v-7.525c0-0.361-0.29-0.651-0.652-0.651h-41.606c-0.362 0-0.651 0.29-0.651 0.651v26.918c0 0.361 0.289 0.651 0.651 0.651h41.534c0.362 0 0.651-0.29 0.651-0.651v-8.466zm6.874-2.316v-6.295h-6.874c-0.651 0-1.157 0.506-1.157 1.158v3.979c0 0.652 0.506 1.158 1.157 1.158h6.802zm-44.645 16.715h11.795l-1.592-2.894h-10.203c-0.217 0-0.434 0-0.651-0.073v2.388c0 0.217 0.289 0.579 0.651 0.579m25.904 21.129c0.362 0.651 1.231 0.94 1.882 0.578l1.809-1.013-12.735-23.661h-3.98zm8.249-2.895-11.432-21.201h-3.256l12.228 22.504zm13.025-4.414-18.307 9.914c-1.736 0.94-4.124 0.217-5.065-1.52l-10.709-19.899h-13.024c-1.665 0-2.967-1.302-2.967-2.966v-32.2c0-1.664 1.302-2.966 2.967-2.966h41.606c1.664 0 2.966 1.302 2.966 2.966v7.525h1.23c0.652 0 1.158 0.507 1.158 1.158v8.611c0 0.651-0.506 1.158-1.158 1.158h-1.23v8.466c0 1.374-1.013 2.605-2.315 2.894l6.367 11.794c0.941 1.809 0.29 4.052-1.519 5.065" fill="#fff"/>
    </g>
    <g transform="translate(336.14 3100.8)">
     <path d="m0 0-0.724-1.375c-0.217-0.362-0.723-0.506-1.085-0.289l-0.579 0.362c-0.145 0.072-0.289 0.289-0.362 0.434-0.072 0.217-0.072 0.434 0.073 0.578l0.723 1.375c0.145 0.217 0.434 0.435 0.724 0.435 0.145 0 0.217 0 0.362-0.073l0.579-0.289c0.289-0.29 0.434-0.724 0.289-1.158m0.796 3.111-0.579 0.29c-1.447 0.796-3.401 0.217-4.197-1.23l-0.723-1.375c-0.362-0.724-0.507-1.592-0.217-2.388 0.217-0.796 0.796-1.447 1.519-1.809l0.579-0.289c0.434-0.217 0.941-0.362 1.447-0.362 1.158 0 2.171 0.651 2.75 1.592l0.723 1.375c0.724 1.519 0.145 3.4-1.302 4.196" fill="#fff"/>
    </g>
    <g transform="translate(336.14 3100.8)">
     <path d="m0 0-0.724-1.375c-0.217-0.362-0.723-0.506-1.085-0.289l-0.579 0.362c-0.145 0.072-0.289 0.289-0.362 0.434-0.072 0.217-0.072 0.434 0.073 0.578l0.723 1.375c0.145 0.217 0.434 0.435 0.724 0.435 0.145 0 0.217 0 0.362-0.073l0.579-0.289c0.289-0.29 0.434-0.724 0.289-1.158m0.796 3.111-0.579 0.29c-1.447 0.796-3.401 0.217-4.197-1.23l-0.723-1.375c-0.362-0.724-0.507-1.592-0.217-2.388 0.217-0.796 0.796-1.447 1.519-1.809l0.579-0.289c0.434-0.217 0.941-0.362 1.447-0.362 1.158 0 2.171 0.651 2.75 1.592l0.723 1.375c0.724 1.519 0.145 3.4-1.302 4.196" fill="#fff"/>
    </g>
   </g>
  </g>
 </g>
</svg>
