<?xml version="1.0" encoding="UTF-8"?>
<!-- Created with Inkscape (http://www.inkscape.org/) -->
<svg width="18.639mm" height="17.849mm" version="1.1" viewBox="0 0 18.639 18.65" xmlns="http://www.w3.org/2000/svg" xmlns:cc="http://creativecommons.org/ns#" xmlns:dc="http://purl.org/dc/elements/1.1/" xmlns:rdf="http://www.w3.org/1999/02/22-rdf-syntax-ns#">
 <defs>
  <clipPath id="clipPath3782">
   <path d="m0 8681.9h1280v-8681.9h-1280z"/>
  </clipPath>
 </defs>
 <metadata>
  <rdf:RDF>
   <cc:Work rdf:about="">
    <dc:format>image/svg+xml</dc:format>
    <dc:type rdf:resource="http://purl.org/dc/dcmitype/StillImage"/>
    <dc:title/>
   </cc:Work>
  </rdf:RDF>
 </metadata>
 <g transform="translate(-2.0672 -276.71)">
  <g transform="matrix(.35278 0 0 -.35278 -177.09 1373.9)">
   <g clip-path="url(#clipPath3782)">
    <g transform="translate(558.89 3083)">
     <path d="m0 0c0-13.651-11.066-24.717-24.717-24.717s-24.718 11.066-24.718 24.717 11.067 24.718 24.718 24.718 24.717-11.067 24.717-24.718" fill="#2da868"/>
    </g>
    <g transform="translate(540.8 3061.3)">
     <path d="m0 0c0.836 0.962 1.648 2.068 2.404 3.294 0.964 1.564 1.799 3.259 2.498 5.051h7.148c-0.65-0.86-1.363-1.682-2.139-2.458-2.807-2.806-6.204-4.806-9.911-5.887m-25.146 8.345h7.148c0.699-1.792 1.534-3.487 2.498-5.051 0.756-1.226 1.568-2.332 2.404-3.294-3.707 1.081-7.104 3.081-9.911 5.887-0.776 0.776-1.489 1.598-2.139 2.458m12.05 36.346c-0.836-0.962-1.648-2.068-2.404-3.294-0.964-1.564-1.799-3.259-2.498-5.051h-7.148c0.65 0.861 1.363 1.683 2.139 2.459 2.806 2.806 6.204 4.806 9.911 5.886m25.146-8.345h-7.148c-0.699 1.792-1.534 3.487-2.498 5.051-0.756 1.226-1.568 2.332-2.404 3.294 3.707-1.08 7.104-3.08 9.911-5.886 0.776-0.776 1.489-1.598 2.139-2.459m-4.629-15.57h9.254c-0.217-3.284-1.114-6.435-2.624-9.29h-8.092c0.842 2.944 1.339 6.082 1.462 9.29m-12.399-9.29v9.29h9.257c-0.134-3.235-0.679-6.381-1.597-9.29zm0-11.785v8.644h6.484c-0.524-1.195-1.116-2.333-1.775-3.402-1.644-2.666-3.4-4.386-4.709-5.242m-3.14 8.644v-8.644c-1.309 0.856-3.065 2.576-4.709 5.242-0.659 1.069-1.252 2.207-1.775 3.402zm-9.257 12.431h9.257v-9.29h-7.661c-0.917 2.909-1.462 6.055-1.596 9.29m-3.142 3.14h-9.254c0.217 3.284 1.114 6.435 2.624 9.29h8.092c-0.842-2.945-1.339-6.082-1.462-9.29m12.399 9.29v-9.29h-9.257c0.134 3.234 0.679 6.38 1.596 9.29zm0 11.784v-8.644h-6.484c0.523 1.195 1.116 2.334 1.775 3.403 1.644 2.666 3.4 4.385 4.709 5.241m3.14-8.644v8.644c1.308-0.856 3.065-2.575 4.709-5.241 0.659-1.069 1.251-2.208 1.775-3.403zm9.257-12.43h-9.257v9.29h7.66c0.918-2.91 1.463-6.056 1.597-9.29m12.396 0h-9.254c-0.123 3.208-0.62 6.345-1.462 9.29h8.092c1.51-2.855 2.407-6.006 2.624-9.29m-46.446-3.14h9.254c0.123-3.208 0.62-6.346 1.462-9.29h-8.092c-1.51 2.855-2.407 6.006-2.624 9.29m49.64 1.57c0 7.056-2.748 13.69-7.738 18.679-4.905 4.905-11.399 7.642-18.321 7.733-0.121 0.011-0.241 0.019-0.358 0.019-0.118 0-0.237-8e-3 -0.358-0.019-6.922-0.091-13.417-2.828-18.322-7.733-4.989-4.989-7.737-11.623-7.737-18.679s2.748-13.69 7.738-18.68c4.904-4.905 11.399-7.641 18.321-7.733 0.121-0.011 0.241-0.018 0.358-0.018s0.237 7e-3 0.358 0.018c6.922 0.092 13.417 2.828 18.322 7.733 4.989 4.99 7.737 11.624 7.737 18.68" fill="#fff"/>
    </g>
   </g>
  </g>
 </g>
</svg>
