<?xml version="1.0" encoding="UTF-8"?>
<!-- Created with Inkscape (http://www.inkscape.org/) -->
<svg width="20.999mm" height="16.426mm" version="1.1" viewBox="0 0 20.999 17.23" xmlns="http://www.w3.org/2000/svg" xmlns:cc="http://creativecommons.org/ns#" xmlns:dc="http://purl.org/dc/elements/1.1/" xmlns:rdf="http://www.w3.org/1999/02/22-rdf-syntax-ns#">
 <defs>
  <clipPath id="clipPath3814">
   <path d="m0 8681.9h1280v-8681.9h-1280z"/>
  </clipPath>
 </defs>
 <metadata>
  <rdf:RDF>
   <cc:Work rdf:about="">
    <dc:format>image/svg+xml</dc:format>
    <dc:type rdf:resource="http://purl.org/dc/dcmitype/StillImage"/>
    <dc:title/>
   </cc:Work>
  </rdf:RDF>
 </metadata>
 <g transform="translate(-64.33 -271.19)">
  <g transform="matrix(.35278 0 0 -.35278 -114.09 1278.1)" clip-path="url(#clipPath3814)">
   <g transform="translate(556.45 2830)">
    <path d="m0 0h-1.749c1.097 1.458 1.749 3.27 1.749 5.232v3.487c0 4.808-3.912 8.72-8.72 8.72h-10.463c-0.963 0-1.744-0.781-1.744-1.744 0-2.846 1.371-5.378 3.488-6.971v-1.748h-8.724c1.097 1.458 1.748 3.27 1.748 5.231v3.493c2.117 1.592 3.488 4.124 3.488 6.971 0 0.963-0.781 1.744-1.744 1.744h-10.463c-4.808 0-8.72-3.912-8.72-8.72v-3.488c0-1.961 0.652-3.773 1.749-5.231h-1.749c-4.82 0-8.835-3.899-8.835-8.72v-20.926c0-0.964 0.78-1.744 1.744-1.744h24.53c0.963 0 1.744 0.78 1.744 1.744v12.207h3.488v-12.207c0-0.964 0.781-1.744 1.744-1.744h24.531c0.963 0 1.743 0.78 1.743 1.744v13.951c0 4.82-4.014 8.719-8.835 8.719" fill="#2da868"/>
   </g>
   <g transform="translate(561.8 2809)">
    <path d="m0 0h-3.604v8.719c0 0.963-0.781 1.744-1.744 1.744s-1.744-0.781-1.744-1.744v-8.719h-13.951v12.207c0 0.963-0.781 1.744-1.744 1.744h-5.231v3.488h22.67c2.899 0 5.348-2.396 5.348-5.232zm-31.506 0h-13.951v15.695c0 0.963-0.781 1.744-1.744 1.744s-1.744-0.781-1.744-1.744v-15.695h-3.604v19.183c0 2.836 2.449 5.231 5.348 5.231h24.59c0.262-1.288 0.81-2.473 1.573-3.487h-8.724c-0.963 0-1.744-0.781-1.744-1.744v-6.976zm-12.208 33.134v1.744h8.72c0.597 0 1.18 0.06 1.744 0.175v-1.919c0-2.885-2.347-5.232-5.232-5.232s-5.232 2.347-5.232 5.232m5.232 8.742h8.421c-0.72-2.03-2.659-3.511-4.933-3.511h-8.421c0.72 2.031 2.66 3.511 4.933 3.511m20.927-13.974h8.719v-1.744c0-2.885-2.347-5.231-5.231-5.231-2.885 0-5.232 2.346-5.232 5.231v1.92c0.564-0.115 1.147-0.176 1.744-0.176m3.488 6.976c2.273 0 4.213-1.458 4.933-3.488h-8.421c-2.274 0-4.213 1.458-4.933 3.488zm8.719-13.951h-1.749c1.098 1.458 1.749 3.27 1.749 5.231v3.488c0 4.808-3.911 8.719-8.719 8.719h-10.464c-0.963 0-1.744-0.78-1.744-1.743 0-2.847 1.372-5.379 3.488-6.971v-1.749h-8.724c1.097 1.459 1.749 3.27 1.749 5.232v3.492c2.116 1.593 3.487 4.125 3.487 6.971 0 0.963-0.78 1.744-1.743 1.744h-10.464c-4.808 0-8.719-3.912-8.719-8.719v-3.488c0-1.962 0.651-3.773 1.748-5.232h-1.748c-4.821 0-8.836-3.899-8.836-8.719v-20.927c0-0.963 0.781-1.744 1.744-1.744h24.531c0.963 0 1.744 0.781 1.744 1.744v12.207h3.487v-12.207c0-0.963 0.781-1.744 1.744-1.744h24.531c0.963 0 1.744 0.781 1.744 1.744v13.951c0 4.82-4.015 8.72-8.836 8.72" fill="#fff"/>
   </g>
  </g>
 </g>
</svg>
