<?xml version="1.0" encoding="UTF-8"?>
<!-- Created with Inkscape (http://www.inkscape.org/) -->
<svg width="23.267mm" height="23.267mm" version="1.1" viewBox="0 0 23.267 23.267" xmlns="http://www.w3.org/2000/svg" xmlns:cc="http://creativecommons.org/ns#" xmlns:dc="http://purl.org/dc/elements/1.1/" xmlns:rdf="http://www.w3.org/1999/02/22-rdf-syntax-ns#">
 <metadata>
  <rdf:RDF>
   <cc:Work rdf:about="">
    <dc:format>image/svg+xml</dc:format>
    <dc:type rdf:resource="http://purl.org/dc/dcmitype/StillImage"/>
    <dc:title/>
   </cc:Work>
  </rdf:RDF>
 </metadata>
 <g transform="translate(249.76 -178.78)" fill="#004f53">
  <path d="m-230.23 197.66-2.219-2.219c1.0989-1.2382 1.7999-2.837 1.9004-4.5939h3.139c-0.10583 2.6211-1.1568 5.0027-2.8205 6.8128m-7.8948-0.57079c-3.6834 0-6.6802-2.9965-6.6802-6.6802 0-1.8274 0.73766-3.4854 1.9308-4.6926 0.0106-9e-3 0.0205-0.0176 0.0303-0.0275 0.01-0.01 0.0187-0.0198 0.0272-0.0303 1.2072-1.1924 2.8649-1.9297 4.6919-1.9297 3.6834 0 6.6802 2.9968 6.6802 6.6802 0 3.6837-2.9968 6.6802-6.6802 6.6802m0.46355 0.89429c1.7477-0.10548 3.3373-0.80539 4.5695-1.8997l2.219 2.219c-1.8045 1.6591-4.1769 2.7086-6.7885 2.8205zm-5.4945-1.898c1.2361 1.0971 2.8317 1.7974 4.5858 1.8994v3.139c-2.618-0.1076-4.9967-1.1575-6.8051-2.8194zm4.5858-13.252c-1.7544 0.10195-3.3503 0.80257-4.5868 1.8997l-2.219-2.219c1.8083-1.6623 4.1875-2.7125 6.8058-2.8201zm5.4794 1.9018c-1.2326-1.0947-2.8226-1.7949-4.5706-1.9008v-3.1397c2.612 0.11183 4.9851 1.162 6.7896 2.8215zm-12.928-1.5783 2.219 2.219c-1.0926 1.2305-1.7921 2.8176-1.8994 4.5621h-3.1397c0.11324-2.6088 1.1628-4.9784 2.8201-6.7811m-2.8215 7.6902h0.68968c0.0783 1.4725 0.4579 2.9365 1.1049 4.252 0.079 0.16086 0.24024 0.254 0.40816 0.254 0.0674 0 0.13582-0.0152 0.20003-0.0466 0.22542-0.11112 0.3182-0.38347 0.20743-0.60854-0.58596-1.1917-0.93239-2.5167-1.01-3.8509h1.5388c0.10055 1.7579 0.80222 3.3574 1.9022 4.596l-2.219 2.219c-1.6648-1.8105-2.7164-4.1928-2.8222-6.815m18.289-0.90911c-0.10725-1.7438-0.8061-3.3299-1.8976-4.56l2.219-2.219c1.6566 1.8023 2.7051 4.1712 2.8183 6.779zm0.65228-7.7551c-2.1974-2.1975-5.1188-3.4075-8.2264-3.4075s-6.029 1.21-8.2264 3.4075c-2.1971 2.1971-3.4071 5.1188-3.4071 8.2261 0 3.1076 1.21 6.029 3.4071 8.2264 2.1974 2.1975 5.1188 3.4075 8.2264 3.4075s6.029-1.21 8.2264-3.4075c2.1971-2.1974 3.4071-5.1188 3.4071-8.2264 0-3.1073-1.21-6.029-3.4071-8.2261"/>
  <path d="m-245.47 195.99c-0.0106-0.0173-0.0226-0.0349-0.0353-0.0508-0.15663-0.19579-0.44273-0.2279-0.63888-0.0709-0.18697 0.14958-0.22436 0.41663-0.0914 0.61101 0.0871 0.12841 0.23002 0.19897 0.37642 0.19897 0.0794 0 0.15981-0.0208 0.23318-0.0646 0.2152-0.12947 0.28505-0.40852 0.15593-0.62371"/>
  <path d="m-238.07 195.36h-0.0175c-0.25083 2e-3 -0.45332 0.20638-0.45156 0.45755 1e-3 0.24977 0.20461 0.45156 0.45438 0.45156h0.0175c0.25083-2e-3 0.45332-0.20638 0.45156-0.45755-1e-3 -0.24977-0.20461-0.45156-0.45438-0.45156"/>
  <path d="m-234.01 186.23c-1.1162-1.0982-2.595-1.6962-4.1592-1.6835-3.2325 0.0261-5.8409 2.6772-5.8148 5.9097 0.01 1.2199 0.39053 2.3869 1.1014 3.3736 0.69462 0.96449 1.6499 1.6877 2.7633 2.0913 0.0515 0.0187 0.10371 0.0275 0.15486 0.0275 0.18592 0 0.36054-0.11501 0.42757-0.29986 0.0854-0.23566-0.0367-0.49636-0.2727-0.58209-1.9364-0.70203-3.2491-2.558-3.2657-4.6179-0.0222-2.7312 2.1819-4.9714 4.9135-4.9936 1.3219-0.0113 2.571 0.49459 3.5144 1.4224 0.94333 0.92816 1.4686 2.1678 1.4792 3.4911 0.0166 2.0599-1.2658 3.937-3.1909 4.6701-0.23459 0.0892-0.35207 0.35207-0.26282 0.58632 0.0892 0.23459 0.35172 0.35207 0.58632 0.26317 1.107-0.42157 2.0507-1.1603 2.7294-2.1361 0.69462-0.99836 1.0566-2.171 1.0467-3.3909-0.0127-1.566-0.63429-3.0332-1.7505-4.1314"/>
  <path d="m-238.37 186.96h-0.74542v0.79833c-0.79587 0.20462-1.2749 1.016-1.07 1.8115 0.16933 0.65828 0.76305 1.118 1.4425 1.1169h1.4908c0.4117 0 0.74542 0.33408 0.74542 0.74578 0 0.41169-0.33372 0.74541-0.74542 0.74541h-1.4908c-0.41133 0-0.74506-0.33372-0.74506-0.74541h-0.74542c2e-3 0.67768 0.46178 1.2682 1.118 1.4376v0.79869h0.74542v-0.74542h0.74542v0.74542h0.74542v-0.79869c0.79587-0.20461 1.2749-1.0156 1.07-1.8115-0.16933-0.65828-0.76305-1.118-1.4429-1.1169h-1.4908c-0.41133 0-0.74506-0.33373-0.74506-0.74542s0.33373-0.74542 0.74506-0.74542h1.4908c0.4117 0 0.74542 0.33373 0.74542 0.74542h0.74542c-2e-3 -0.67804-0.46178-1.2686-1.118-1.4379v-0.79833h-0.74542v0.74542h-0.74542z"/>
 </g>
</svg>
