<?xml version="1.0" encoding="UTF-8"?>
<!-- Created with Inkscape (http://www.inkscape.org/) -->
<svg width="20.66mm" height="21.167mm" version="1.1" viewBox="0 0 20.66 21.167" xmlns="http://www.w3.org/2000/svg" xmlns:cc="http://creativecommons.org/ns#" xmlns:dc="http://purl.org/dc/elements/1.1/" xmlns:rdf="http://www.w3.org/1999/02/22-rdf-syntax-ns#">
 <metadata>
  <rdf:RDF>
   <cc:Work rdf:about="">
    <dc:format>image/svg+xml</dc:format>
    <dc:type rdf:resource="http://purl.org/dc/dcmitype/StillImage"/>
    <dc:title/>
   </cc:Work>
  </rdf:RDF>
 </metadata>
 <g transform="translate(-62.997 -130.69)" fill="#004f53">
  <path d="m68.632 136.16c0.04621 0.0166 0.09313 0.0243 0.1397 0.0243 0.16933 0 0.32844-0.10513 0.38911-0.27411l0.01447-0.0402c0.07726-0.21484-0.03422-0.45155-0.24906-0.52881-0.21484-0.0773-0.45191 0.0342-0.52917 0.24906l-0.01446 0.0409c-0.07726 0.2152 0.03457 0.45191 0.24941 0.52882"/>
  <path d="m70.601 131.92c-0.4826 0.46425-0.93169 1.0541-1.3342 1.7614-0.11289 0.19861-0.04339 0.45085 0.15487 0.56374 0.19861 0.11289 0.45085 0.0437 0.56374-0.15487 0.83538-1.4679 1.8623-2.3509 2.9284-2.5333v9.8799c-0.63535-0.52882-1.4404-0.82621-2.2976-0.82621-0.92004 0-1.7805 0.3429-2.4352 0.94721 0.0314-1.2919 0.1778-2.5435 0.43674-3.7278 0.04868-0.22296-0.09243-0.44309-0.31538-0.49213-0.22296-0.0483-0.44344 0.0928-0.49212 0.31574-0.25647 1.1726-0.40675 2.407-0.44944 3.6791-0.61313-0.46355-1.367-0.72214-2.1661-0.72214-0.47449 0-0.93839 0.0921-1.3698 0.27023 0.06315-4.2305 2.9041-7.7992 6.7762-8.9609m12.228 8.9606c-0.43145-0.1778-0.89535-0.26987-1.3698-0.26987-0.79904 0-1.5529 0.25859-2.1661 0.72214-0.09102-2.7139-0.67275-5.2458-1.6619-7.1967-0.46214-0.91158-0.99236-1.6545-1.5709-2.214 3.8682 1.1642 6.706 4.7311 6.7687 8.9584m-5.6208 4.1977c-0.19509-0.11889-0.44944-0.0568-0.56797 0.13829l-2.9002 4.7657v-7.323c0.51752-0.76694 1.3677-1.2217 2.2976-1.2217 0.96732 0 1.8493 0.49213 2.359 1.3169 0.07514 0.12206 0.20814 0.19614 0.35172 0.19614 0.14323 0 0.27622-0.0741 0.35172-0.19614 0.50941-0.82479 1.3914-1.3169 2.359-1.3169 0.37853 0 0.7486 0.0759 1.0908 0.22296l-7.0788 7.0676 1.8754-3.0819c0.11853-0.19509 0.0568-0.44944-0.13829-0.56797m-9.6552-2.3245 3.6354 5.9743-7.0806-7.0693c0.34114-0.14569 0.70944-0.22119 1.0866-0.22119 0.96732 0 1.8489 0.49213 2.3587 1.3162m5.3605 7.2189-4.517-7.4232c0.52246-0.70062 1.3353-1.112 2.2193-1.112 0.92992 0 1.7805 0.45473 2.2976 1.2217zm0.82656-18.416c1.1719 0.1972 2.2789 1.228 3.1538 2.9538 0.9592 1.8927 1.5141 4.3783 1.579 7.0478-0.6544-0.60431-1.5148-0.94721-2.4352-0.94721-0.85725 0-1.6623 0.29739-2.2976 0.82621zm9.9169 9.4682c0-2.7594-1.0746-5.3534-3.0258-7.3046-1.9509-1.9512-4.5452-3.0258-7.3043-3.0258-2.7594 0-5.3534 1.0746-7.3046 3.0258-1.9512 1.9512-3.0258 4.5452-3.0258 7.3046 0 0.18203 0.0053 0.37006 0.01517 0.55845 0.0056 0.10371 0.05045 0.19931 0.12171 0.27022l-7.06e-4 3.5e-4 9.9021 9.8866c0.07726 0.0773 0.18239 0.12065 0.2921 0.12065h0.0056c0.10971 0 0.21484-0.0434 0.2921-0.12065l9.9021-9.8866c-0.0014-7.2e-4 -0.0028-2e-3 -0.0046-2e-3 0.0702-0.0709 0.11395-0.16546 0.11959-0.26812 0.0099-0.18838 0.01517-0.37641 0.01517-0.55844"/>
  <path d="m77.811 144.5c0.10866 0 0.21555-0.0441 0.2921-0.12136 0.07691-0.0769 0.12136-0.18344 0.12136-0.2921 0-0.10865-0.04445-0.21554-0.12136-0.2921-0.07655-0.0769-0.18344-0.12135-0.2921-0.12135-0.10866 0-0.21555 0.0441-0.29245 0.12135-0.07691 0.0769-0.121 0.18345-0.121 0.2921 0 0.10866 0.0441 0.2152 0.121 0.2921 0.07691 0.0773 0.18344 0.12136 0.29245 0.12136"/>
 </g>
</svg>
